<?xml version="1.0" encoding="utf-8" standalone="no"?>
<!DOCTYPE svg PUBLIC "-//W3C//DTD SVG 1.1//EN"
  "http://www.w3.org/Graphics/SVG/1.1/DTD/svg11.dtd">
<!-- Created with matplotlib (https://matplotlib.org/) -->
<svg height="360pt" version="1.1" viewBox="0 0 576 360" width="576pt" xmlns="http://www.w3.org/2000/svg" xmlns:xlink="http://www.w3.org/1999/xlink">
 <metadata>
  <rdf:RDF xmlns:cc="http://creativecommons.org/ns#" xmlns:dc="http://purl.org/dc/elements/1.1/" xmlns:rdf="http://www.w3.org/1999/02/22-rdf-syntax-ns#">
   <cc:Work>
    <dc:type rdf:resource="http://purl.org/dc/dcmitype/StillImage"/>
    <dc:date>2021-03-18T18:09:55.326275</dc:date>
    <dc:format>image/svg+xml</dc:format>
    <dc:creator>
     <cc:Agent>
      <dc:title>Matplotlib v3.3.4, https://matplotlib.org/</dc:title>
     </cc:Agent>
    </dc:creator>
   </cc:Work>
  </rdf:RDF>
 </metadata>
 <defs>
  <style type="text/css">*{stroke-linecap:butt;stroke-linejoin:round;}</style>
 </defs>
 <g id="figure_1">
  <g id="patch_1">
   <path d="M 0 360 
L 576 360 
L 576 0 
L 0 0 
z
" style="fill:#ffffff;"/>
  </g>
  <g id="axes_1">
   <g id="patch_2">
    <path d="M 72 320.4 
L 518.4 320.4 
L 518.4 43.2 
L 72 43.2 
z
" style="fill:#ffffff;"/>
   </g>
   <g id="matplotlib.axis_1">
    <g id="xtick_1">
     <g id="line2d_1">
      <path clip-path="url(#pb05c354118)" d="M 92.290909 320.4 
L 92.290909 43.2 
" style="fill:none;stroke:#b0b0b0;stroke-dasharray:2.96,1.28;stroke-dashoffset:0;stroke-width:0.8;"/>
     </g>
     <g id="line2d_2">
      <defs>
       <path d="M 0 0 
L 0 3.5 
" id="m60b25758b2" style="stroke:#000000;stroke-width:0.8;"/>
      </defs>
      <g>
       <use style="stroke:#000000;stroke-width:0.8;" x="92.290909" xlink:href="#m60b25758b2" y="320.4"/>
      </g>
     </g>
     <g id="text_1">
      <!-- 0.10 -->
      <g transform="translate(77.487784 336.518125)scale(0.12 -0.12)">
       <defs>
        <path d="M 46 36.53125 
Q 46 50.203125 43.4375 55.78125 
Q 40.875 61.375 34.8125 61.375 
Q 28.765625 61.375 26.171875 55.78125 
Q 23.578125 50.203125 23.578125 36.53125 
Q 23.578125 22.703125 26.171875 17.03125 
Q 28.765625 11.375 34.8125 11.375 
Q 40.828125 11.375 43.40625 17.03125 
Q 46 22.703125 46 36.53125 
z
M 64.796875 36.375 
Q 64.796875 18.265625 56.984375 8.421875 
Q 49.171875 -1.421875 34.8125 -1.421875 
Q 20.40625 -1.421875 12.59375 8.421875 
Q 4.78125 18.265625 4.78125 36.375 
Q 4.78125 54.546875 12.59375 64.375 
Q 20.40625 74.21875 34.8125 74.21875 
Q 49.171875 74.21875 56.984375 64.375 
Q 64.796875 54.546875 64.796875 36.375 
z
" id="DejaVuSans-Bold-48"/>
        <path d="M 10.203125 18.890625 
L 27.78125 18.890625 
L 27.78125 0 
L 10.203125 0 
z
" id="DejaVuSans-Bold-46"/>
        <path d="M 11.71875 12.984375 
L 28.328125 12.984375 
L 28.328125 60.109375 
L 11.28125 56.59375 
L 11.28125 69.390625 
L 28.21875 72.90625 
L 46.09375 72.90625 
L 46.09375 12.984375 
L 62.703125 12.984375 
L 62.703125 0 
L 11.71875 0 
z
" id="DejaVuSans-Bold-49"/>
       </defs>
       <use xlink:href="#DejaVuSans-Bold-48"/>
       <use x="69.580078" xlink:href="#DejaVuSans-Bold-46"/>
       <use x="107.568359" xlink:href="#DejaVuSans-Bold-49"/>
       <use x="177.148438" xlink:href="#DejaVuSans-Bold-48"/>
      </g>
     </g>
    </g>
    <g id="xtick_2">
     <g id="line2d_3">
      <path clip-path="url(#pb05c354118)" d="M 143.018182 320.4 
L 143.018182 43.2 
" style="fill:none;stroke:#b0b0b0;stroke-dasharray:2.96,1.28;stroke-dashoffset:0;stroke-width:0.8;"/>
     </g>
     <g id="line2d_4">
      <g>
       <use style="stroke:#000000;stroke-width:0.8;" x="143.018182" xlink:href="#m60b25758b2" y="320.4"/>
      </g>
     </g>
     <g id="text_2">
      <!-- 0.15 -->
      <g transform="translate(128.215057 336.518125)scale(0.12 -0.12)">
       <defs>
        <path d="M 10.59375 72.90625 
L 57.328125 72.90625 
L 57.328125 59.078125 
L 25.59375 59.078125 
L 25.59375 47.796875 
Q 27.734375 48.390625 29.90625 48.703125 
Q 32.078125 49.03125 34.421875 49.03125 
Q 47.75 49.03125 55.171875 42.359375 
Q 62.59375 35.6875 62.59375 23.78125 
Q 62.59375 11.96875 54.515625 5.265625 
Q 46.4375 -1.421875 32.078125 -1.421875 
Q 25.875 -1.421875 19.796875 -0.21875 
Q 13.71875 0.984375 7.71875 3.421875 
L 7.71875 18.21875 
Q 13.671875 14.796875 19.015625 13.078125 
Q 24.359375 11.375 29.109375 11.375 
Q 35.9375 11.375 39.859375 14.71875 
Q 43.796875 18.0625 43.796875 23.78125 
Q 43.796875 29.546875 39.859375 32.859375 
Q 35.9375 36.1875 29.109375 36.1875 
Q 25.046875 36.1875 20.453125 35.125 
Q 15.875 34.078125 10.59375 31.890625 
z
" id="DejaVuSans-Bold-53"/>
       </defs>
       <use xlink:href="#DejaVuSans-Bold-48"/>
       <use x="69.580078" xlink:href="#DejaVuSans-Bold-46"/>
       <use x="107.568359" xlink:href="#DejaVuSans-Bold-49"/>
       <use x="177.148438" xlink:href="#DejaVuSans-Bold-53"/>
      </g>
     </g>
    </g>
    <g id="xtick_3">
     <g id="line2d_5">
      <path clip-path="url(#pb05c354118)" d="M 193.745455 320.4 
L 193.745455 43.2 
" style="fill:none;stroke:#b0b0b0;stroke-dasharray:2.96,1.28;stroke-dashoffset:0;stroke-width:0.8;"/>
     </g>
     <g id="line2d_6">
      <g>
       <use style="stroke:#000000;stroke-width:0.8;" x="193.745455" xlink:href="#m60b25758b2" y="320.4"/>
      </g>
     </g>
     <g id="text_3">
      <!-- 0.20 -->
      <g transform="translate(178.94233 336.518125)scale(0.12 -0.12)">
       <defs>
        <path d="M 28.8125 13.8125 
L 60.890625 13.8125 
L 60.890625 0 
L 7.90625 0 
L 7.90625 13.8125 
L 34.515625 37.3125 
Q 38.09375 40.53125 39.796875 43.609375 
Q 41.5 46.6875 41.5 50 
Q 41.5 55.125 38.0625 58.25 
Q 34.625 61.375 28.90625 61.375 
Q 24.515625 61.375 19.28125 59.5 
Q 14.0625 57.625 8.109375 53.90625 
L 8.109375 69.921875 
Q 14.453125 72.015625 20.65625 73.109375 
Q 26.859375 74.21875 32.8125 74.21875 
Q 45.90625 74.21875 53.15625 68.453125 
Q 60.40625 62.703125 60.40625 52.390625 
Q 60.40625 46.4375 57.328125 41.28125 
Q 54.25 36.140625 44.390625 27.484375 
z
" id="DejaVuSans-Bold-50"/>
       </defs>
       <use xlink:href="#DejaVuSans-Bold-48"/>
       <use x="69.580078" xlink:href="#DejaVuSans-Bold-46"/>
       <use x="107.568359" xlink:href="#DejaVuSans-Bold-50"/>
       <use x="177.148438" xlink:href="#DejaVuSans-Bold-48"/>
      </g>
     </g>
    </g>
    <g id="xtick_4">
     <g id="line2d_7">
      <path clip-path="url(#pb05c354118)" d="M 244.472727 320.4 
L 244.472727 43.2 
" style="fill:none;stroke:#b0b0b0;stroke-dasharray:2.96,1.28;stroke-dashoffset:0;stroke-width:0.8;"/>
     </g>
     <g id="line2d_8">
      <g>
       <use style="stroke:#000000;stroke-width:0.8;" x="244.472727" xlink:href="#m60b25758b2" y="320.4"/>
      </g>
     </g>
     <g id="text_4">
      <!-- 0.25 -->
      <g transform="translate(229.669602 336.518125)scale(0.12 -0.12)">
       <use xlink:href="#DejaVuSans-Bold-48"/>
       <use x="69.580078" xlink:href="#DejaVuSans-Bold-46"/>
       <use x="107.568359" xlink:href="#DejaVuSans-Bold-50"/>
       <use x="177.148438" xlink:href="#DejaVuSans-Bold-53"/>
      </g>
     </g>
    </g>
    <g id="xtick_5">
     <g id="line2d_9">
      <path clip-path="url(#pb05c354118)" d="M 295.2 320.4 
L 295.2 43.2 
" style="fill:none;stroke:#b0b0b0;stroke-dasharray:2.96,1.28;stroke-dashoffset:0;stroke-width:0.8;"/>
     </g>
     <g id="line2d_10">
      <g>
       <use style="stroke:#000000;stroke-width:0.8;" x="295.2" xlink:href="#m60b25758b2" y="320.4"/>
      </g>
     </g>
     <g id="text_5">
      <!-- 0.30 -->
      <g transform="translate(280.396875 336.518125)scale(0.12 -0.12)">
       <defs>
        <path d="M 46.578125 39.3125 
Q 53.953125 37.40625 57.78125 32.6875 
Q 61.625 27.984375 61.625 20.703125 
Q 61.625 9.859375 53.3125 4.21875 
Q 45.015625 -1.421875 29.109375 -1.421875 
Q 23.484375 -1.421875 17.84375 -0.515625 
Q 12.203125 0.390625 6.6875 2.203125 
L 6.6875 16.703125 
Q 11.96875 14.0625 17.15625 12.71875 
Q 22.359375 11.375 27.390625 11.375 
Q 34.859375 11.375 38.84375 13.953125 
Q 42.828125 16.546875 42.828125 21.390625 
Q 42.828125 26.375 38.75 28.9375 
Q 34.671875 31.5 26.703125 31.5 
L 19.1875 31.5 
L 19.1875 43.609375 
L 27.09375 43.609375 
Q 34.1875 43.609375 37.640625 45.828125 
Q 41.109375 48.046875 41.109375 52.59375 
Q 41.109375 56.78125 37.734375 59.078125 
Q 34.375 61.375 28.21875 61.375 
Q 23.6875 61.375 19.046875 60.34375 
Q 14.40625 59.328125 9.8125 57.328125 
L 9.8125 71.09375 
Q 15.375 72.65625 20.84375 73.4375 
Q 26.3125 74.21875 31.59375 74.21875 
Q 45.796875 74.21875 52.84375 69.546875 
Q 59.90625 64.890625 59.90625 55.515625 
Q 59.90625 49.125 56.53125 45.046875 
Q 53.171875 40.96875 46.578125 39.3125 
z
" id="DejaVuSans-Bold-51"/>
       </defs>
       <use xlink:href="#DejaVuSans-Bold-48"/>
       <use x="69.580078" xlink:href="#DejaVuSans-Bold-46"/>
       <use x="107.568359" xlink:href="#DejaVuSans-Bold-51"/>
       <use x="177.148438" xlink:href="#DejaVuSans-Bold-48"/>
      </g>
     </g>
    </g>
    <g id="xtick_6">
     <g id="line2d_11">
      <path clip-path="url(#pb05c354118)" d="M 345.927273 320.4 
L 345.927273 43.2 
" style="fill:none;stroke:#b0b0b0;stroke-dasharray:2.96,1.28;stroke-dashoffset:0;stroke-width:0.8;"/>
     </g>
     <g id="line2d_12">
      <g>
       <use style="stroke:#000000;stroke-width:0.8;" x="345.927273" xlink:href="#m60b25758b2" y="320.4"/>
      </g>
     </g>
     <g id="text_6">
      <!-- 0.35 -->
      <g transform="translate(331.124148 336.518125)scale(0.12 -0.12)">
       <use xlink:href="#DejaVuSans-Bold-48"/>
       <use x="69.580078" xlink:href="#DejaVuSans-Bold-46"/>
       <use x="107.568359" xlink:href="#DejaVuSans-Bold-51"/>
       <use x="177.148438" xlink:href="#DejaVuSans-Bold-53"/>
      </g>
     </g>
    </g>
    <g id="xtick_7">
     <g id="line2d_13">
      <path clip-path="url(#pb05c354118)" d="M 396.654545 320.4 
L 396.654545 43.2 
" style="fill:none;stroke:#b0b0b0;stroke-dasharray:2.96,1.28;stroke-dashoffset:0;stroke-width:0.8;"/>
     </g>
     <g id="line2d_14">
      <g>
       <use style="stroke:#000000;stroke-width:0.8;" x="396.654545" xlink:href="#m60b25758b2" y="320.4"/>
      </g>
     </g>
     <g id="text_7">
      <!-- 0.40 -->
      <g transform="translate(381.85142 336.518125)scale(0.12 -0.12)">
       <defs>
        <path d="M 36.8125 57.421875 
L 16.21875 26.90625 
L 36.8125 26.90625 
z
M 33.6875 72.90625 
L 54.59375 72.90625 
L 54.59375 26.90625 
L 64.984375 26.90625 
L 64.984375 13.28125 
L 54.59375 13.28125 
L 54.59375 0 
L 36.8125 0 
L 36.8125 13.28125 
L 4.5 13.28125 
L 4.5 29.390625 
z
" id="DejaVuSans-Bold-52"/>
       </defs>
       <use xlink:href="#DejaVuSans-Bold-48"/>
       <use x="69.580078" xlink:href="#DejaVuSans-Bold-46"/>
       <use x="107.568359" xlink:href="#DejaVuSans-Bold-52"/>
       <use x="177.148438" xlink:href="#DejaVuSans-Bold-48"/>
      </g>
     </g>
    </g>
    <g id="xtick_8">
     <g id="line2d_15">
      <path clip-path="url(#pb05c354118)" d="M 447.381818 320.4 
L 447.381818 43.2 
" style="fill:none;stroke:#b0b0b0;stroke-dasharray:2.96,1.28;stroke-dashoffset:0;stroke-width:0.8;"/>
     </g>
     <g id="line2d_16">
      <g>
       <use style="stroke:#000000;stroke-width:0.8;" x="447.381818" xlink:href="#m60b25758b2" y="320.4"/>
      </g>
     </g>
     <g id="text_8">
      <!-- 0.45 -->
      <g transform="translate(432.578693 336.518125)scale(0.12 -0.12)">
       <use xlink:href="#DejaVuSans-Bold-48"/>
       <use x="69.580078" xlink:href="#DejaVuSans-Bold-46"/>
       <use x="107.568359" xlink:href="#DejaVuSans-Bold-52"/>
       <use x="177.148438" xlink:href="#DejaVuSans-Bold-53"/>
      </g>
     </g>
    </g>
    <g id="xtick_9">
     <g id="line2d_17">
      <path clip-path="url(#pb05c354118)" d="M 498.109091 320.4 
L 498.109091 43.2 
" style="fill:none;stroke:#b0b0b0;stroke-dasharray:2.96,1.28;stroke-dashoffset:0;stroke-width:0.8;"/>
     </g>
     <g id="line2d_18">
      <g>
       <use style="stroke:#000000;stroke-width:0.8;" x="498.109091" xlink:href="#m60b25758b2" y="320.4"/>
      </g>
     </g>
     <g id="text_9">
      <!-- 0.50 -->
      <g transform="translate(483.305966 336.518125)scale(0.12 -0.12)">
       <use xlink:href="#DejaVuSans-Bold-48"/>
       <use x="69.580078" xlink:href="#DejaVuSans-Bold-46"/>
       <use x="107.568359" xlink:href="#DejaVuSans-Bold-53"/>
       <use x="177.148438" xlink:href="#DejaVuSans-Bold-48"/>
      </g>
     </g>
    </g>
    <g id="text_10">
     <!-- 投票错误的概率 -->
     <g transform="translate(249.7 353.373125)scale(0.13 -0.13)">
      <defs>
       <path d="M 41.40625 40.625 
Q 50 40.234375 56.640625 40.234375 
L 85.9375 40.234375 
Q 84.375 32.421875 80.078125 24.015625 
Q 75.78125 15.625 69.53125 8.203125 
Q 74.21875 4.296875 82.03125 2.140625 
Q 89.84375 0 96.875 -0.390625 
Q 93.359375 -4.296875 91.796875 -8.984375 
Q 83.984375 -7.03125 77.140625 -4.09375 
Q 70.3125 -1.171875 63.671875 3.125 
Q 57.8125 -1.171875 52.34375 -4.09375 
Q 46.875 -7.03125 38.28125 -10.15625 
Q 36.71875 -6.640625 32.8125 -2.734375 
Q 37.890625 -1.5625 44.140625 0.390625 
Q 50.390625 2.34375 58.203125 8.203125 
Q 50.390625 18.359375 47.65625 33.59375 
L 41.40625 33.59375 
z
M 18.75 59.765625 
Q 18.75 72.265625 18.359375 81.25 
L 26.171875 81.25 
Q 25.78125 73.046875 25.78125 59.765625 
Q 32.03125 59.765625 37.890625 60.15625 
L 37.890625 52.734375 
Q 32.03125 53.125 25.78125 53.125 
L 25.78125 36.71875 
Q 29.296875 37.5 36.71875 40.625 
Q 36.71875 37.109375 37.5 32.8125 
Q 33.984375 32.03125 25.78125 28.90625 
L 25.78125 -0.78125 
Q 25.390625 -5.859375 22.265625 -7.03125 
Q 19.140625 -8.203125 9.765625 -9.375 
Q 9.765625 -4.6875 7.421875 -0.390625 
Q 14.453125 -0.78125 16.40625 -0.390625 
Q 18.359375 0 18.75 3.515625 
L 18.75 26.953125 
Q 10.546875 23.828125 6.640625 21.09375 
Q 5.46875 26.171875 3.125 30.078125 
Q 9.375 30.859375 18.75 33.984375 
L 18.75 53.125 
Q 10.546875 53.125 5.46875 52.734375 
L 5.46875 60.15625 
Q 10.546875 59.765625 18.75 59.765625 
z
M 83.984375 48.4375 
Q 78.90625 48.4375 75 48.828125 
Q 71.09375 49.21875 71.09375 55.46875 
L 71.09375 71.484375 
L 57.03125 71.484375 
Q 57.03125 60.546875 54.484375 54.296875 
Q 51.953125 48.046875 46.484375 42.578125 
Q 43.359375 45.703125 39.0625 47.265625 
Q 47.265625 53.90625 48.234375 60.9375 
Q 49.21875 67.96875 48.828125 77.734375 
L 78.515625 77.734375 
Q 78.125 73.828125 78.125 67.1875 
L 78.125 57.8125 
Q 78.125 55.078125 80.859375 55.078125 
L 86.71875 55.078125 
Q 90.234375 55.078125 92.1875 55.46875 
Q 91.40625 52.34375 91.40625 48.4375 
z
M 54.296875 33.59375 
Q 57.8125 19.53125 64.0625 12.890625 
Q 67.578125 16.796875 70.5 21.09375 
Q 73.4375 25.390625 76.171875 33.59375 
L 54.296875 33.59375 
z
" id="SimHei-25237"/>
       <path d="M 12.890625 43.75 
Q 13.28125 49.609375 13.28125 54.6875 
Q 13.28125 60.15625 12.890625 66.015625 
L 35.546875 66.015625 
L 35.546875 73.4375 
L 21.484375 73.4375 
Q 12.109375 73.4375 7.421875 73.046875 
L 7.421875 79.6875 
Q 13.28125 79.296875 22.265625 79.296875 
L 76.5625 79.296875 
Q 83.59375 79.296875 92.578125 79.6875 
L 92.578125 73.046875 
Q 83.59375 73.4375 76.5625 73.4375 
L 62.890625 73.4375 
L 62.890625 66.015625 
L 86.71875 66.015625 
Q 86.328125 60.15625 86.328125 54.6875 
Q 86.328125 49.609375 86.71875 43.75 
z
M 4.6875 23.4375 
Q 8.984375 23.046875 14.453125 23.046875 
L 83.203125 23.046875 
Q 88.671875 23.046875 96.09375 23.4375 
L 96.09375 16.796875 
Q 88.671875 17.1875 83.203125 17.1875 
L 54.296875 17.1875 
L 54.296875 -0.78125 
Q 54.296875 -5.859375 50.1875 -7.8125 
Q 46.09375 -9.765625 39.84375 -10.546875 
Q 39.0625 -5.859375 36.328125 -1.5625 
Q 42.1875 -1.953125 44.328125 -1.5625 
Q 46.484375 -1.171875 46.484375 1.5625 
L 46.484375 17.1875 
L 14.453125 17.1875 
Q 8.984375 17.1875 4.6875 16.796875 
z
M 71.875 36.328125 
Q 78.515625 36.328125 85.15625 36.71875 
L 85.15625 30.078125 
Q 78.125 30.46875 72.265625 30.46875 
L 26.953125 30.46875 
Q 20.703125 30.46875 14.453125 30.078125 
L 14.453125 36.71875 
Q 20.703125 36.328125 27.34375 36.328125 
z
M 71.09375 12.109375 
Q 87.109375 3.90625 93.359375 0.390625 
Q 89.84375 -2.734375 87.890625 -6.640625 
Q 81.25 -1.5625 66.40625 5.46875 
Q 69.53125 8.203125 71.09375 12.109375 
z
M 6.25 -0.390625 
Q 10.15625 1.171875 15.8125 4.09375 
Q 21.484375 7.03125 26.953125 13.28125 
Q 29.6875 10.15625 33.984375 7.03125 
Q 31.25 5.859375 25.78125 1.953125 
Q 20.3125 -1.953125 12.5 -6.640625 
Q 10.546875 -3.125 6.25 -0.390625 
z
M 78.90625 50 
L 78.90625 59.375 
L 62.890625 59.375 
L 62.890625 50 
z
M 35.546875 50 
L 35.546875 59.375 
L 20.703125 59.375 
L 20.703125 50 
z
M 55.46875 50 
L 55.46875 59.375 
L 42.578125 59.375 
L 42.578125 50 
z
M 55.46875 66.015625 
L 55.46875 73.4375 
L 42.578125 73.4375 
L 42.578125 66.015625 
z
" id="SimHei-31080"/>
       <path d="M 87.5 32.03125 
Q 87.109375 27.34375 87.109375 12.109375 
Q 87.109375 -2.734375 87.5 -8.59375 
L 80.078125 -8.59375 
L 80.078125 -3.515625 
L 53.125 -3.515625 
L 53.125 -9.765625 
L 45.703125 -9.765625 
Q 46.09375 1.5625 46.09375 12.5 
Q 46.09375 23.828125 45.703125 32.03125 
L 87.5 32.03125 
z
M 52.34375 66.40625 
Q 52.34375 75 51.953125 79.296875 
L 59.765625 79.296875 
Q 59.375 71.484375 59.375 66.40625 
L 73.4375 66.40625 
Q 73.4375 73.046875 73.046875 78.90625 
L 81.25 78.90625 
Q 80.859375 74.609375 80.859375 66.40625 
Q 87.109375 66.40625 91.796875 66.796875 
L 91.796875 59.765625 
Q 86.328125 60.15625 80.859375 60.15625 
L 80.859375 47.265625 
Q 91.40625 47.265625 95.703125 47.65625 
L 95.703125 41.015625 
Q 91.015625 41.40625 83.203125 41.40625 
L 50.390625 41.40625 
Q 47.65625 41.40625 40.234375 41.015625 
L 40.234375 47.65625 
Q 44.53125 47.265625 52.34375 47.265625 
L 52.34375 60.15625 
Q 50 60.15625 42.1875 59.765625 
L 42.1875 66.796875 
Q 49.21875 66.40625 52.34375 66.40625 
z
M 35.15625 42.96875 
Q 30.859375 43.359375 25.78125 43.359375 
L 25.78125 32.03125 
Q 33.203125 32.03125 39.0625 32.421875 
L 39.0625 25.78125 
Q 32.8125 26.171875 25.78125 26.171875 
L 25.78125 7.03125 
Q 32.03125 12.109375 35.9375 16.796875 
Q 37.5 12.5 39.0625 9.375 
Q 34.765625 5.859375 29.6875 1.75 
Q 24.609375 -2.34375 19.921875 -7.03125 
Q 17.1875 -3.125 14.84375 -0.390625 
Q 18.359375 3.125 18.359375 7.421875 
L 18.359375 26.171875 
Q 12.109375 26.171875 7.03125 25.78125 
L 7.03125 32.421875 
Q 12.5 32.03125 18.359375 32.03125 
L 18.359375 43.359375 
Q 15.625 43.359375 12.5 42.96875 
L 12.5 50 
Q 16.40625 49.609375 20.3125 49.609375 
L 28.515625 49.609375 
Q 31.640625 49.609375 35.15625 50 
z
M 3.125 51.953125 
Q 10.15625 59.375 14.25 66.796875 
Q 18.359375 74.21875 20.703125 80.46875 
Q 25.78125 77.734375 29.6875 75.78125 
Q 24.609375 70.703125 21.875 65.234375 
Q 30.078125 65.234375 36.328125 65.625 
L 36.328125 58.59375 
Q 29.296875 58.984375 18.359375 58.984375 
Q 13.28125 51.953125 8.203125 45.703125 
Q 5.859375 48.828125 3.125 51.953125 
z
M 80.078125 2.34375 
L 80.078125 11.328125 
L 53.125 11.328125 
L 53.125 2.34375 
z
M 80.078125 17.1875 
L 80.078125 26.171875 
L 53.125 26.171875 
L 53.125 17.1875 
z
M 73.4375 47.265625 
L 73.4375 60.15625 
L 59.375 60.15625 
L 59.375 47.265625 
z
" id="SimHei-38169"/>
       <path d="M 72.265625 42.96875 
Q 83.203125 42.96875 90.625 43.359375 
L 90.625 36.71875 
Q 82.8125 37.109375 72.265625 37.109375 
L 64.84375 37.109375 
Q 64.84375 33.203125 64.0625 25.78125 
L 78.515625 25.78125 
Q 87.109375 25.78125 95.3125 26.171875 
L 95.3125 19.140625 
Q 87.109375 19.53125 78.515625 19.53125 
L 66.40625 19.53125 
Q 71.484375 9.375 78.90625 4.484375 
Q 86.328125 -0.390625 95.703125 -1.953125 
Q 92.1875 -5.46875 90.234375 -9.765625 
Q 76.171875 -4.296875 69.53125 2.734375 
Q 62.890625 9.765625 60.9375 15.625 
Q 56.25 5.078125 48.828125 -0.96875 
Q 41.40625 -7.03125 31.640625 -10.546875 
Q 30.859375 -7.03125 26.953125 -3.125 
Q 38.671875 -1.171875 45.890625 6.828125 
Q 53.125 14.84375 54.296875 19.53125 
L 46.484375 19.53125 
Q 37.5 19.53125 31.640625 19.140625 
L 31.640625 26.171875 
Q 38.671875 25.78125 45.3125 25.78125 
L 56.25 25.78125 
Q 57.03125 31.640625 57.03125 37.109375 
L 51.953125 37.109375 
Q 41.796875 37.109375 34.765625 36.71875 
L 34.765625 43.359375 
Q 42.1875 42.96875 49.21875 42.96875 
z
M 84.765625 76.171875 
Q 84.375 71.09375 84.375 63.671875 
Q 84.375 56.25 84.765625 51.953125 
L 38.28125 51.953125 
Q 38.671875 55.859375 38.671875 63.28125 
Q 38.671875 70.703125 38.28125 76.171875 
L 84.765625 76.171875 
z
M 24.21875 51.953125 
Q 23.828125 46.875 23.828125 39.0625 
L 23.828125 10.546875 
L 29.6875 17.1875 
Q 31.640625 13.671875 34.765625 10.9375 
Q 26.171875 4.6875 19.53125 -5.078125 
Q 17.1875 -1.5625 12.890625 0.78125 
Q 16.015625 3.90625 16.40625 7.8125 
L 16.40625 45.3125 
Q 10.9375 45.3125 5.078125 44.921875 
L 5.078125 52.34375 
Q 8.59375 51.953125 11.71875 51.953125 
z
M 77.734375 57.8125 
L 77.734375 69.921875 
L 45.3125 69.921875 
L 45.3125 57.8125 
z
M 15.234375 80.078125 
Q 17.96875 78.125 29.6875 66.796875 
Q 26.953125 64.453125 24.21875 61.328125 
Q 17.96875 68.75 10.546875 74.609375 
Q 13.671875 77.734375 15.234375 80.078125 
z
" id="SimHei-35823"/>
       <path d="M 32.8125 77.734375 
Q 30.859375 74.21875 27.34375 61.71875 
L 44.921875 61.71875 
Q 44.53125 55.078125 44.53125 44.921875 
L 44.53125 10.546875 
Q 44.53125 4.6875 44.921875 -6.25 
L 37.109375 -6.25 
L 37.109375 1.5625 
L 17.1875 1.5625 
L 17.1875 -7.03125 
L 9.375 -7.03125 
Q 9.765625 5.46875 9.765625 8.59375 
L 9.765625 44.53125 
Q 9.765625 55.078125 9.375 61.71875 
L 20.703125 61.71875 
Q 22.65625 70.703125 23.828125 80.46875 
Q 29.296875 78.515625 32.8125 77.734375 
z
M 91.015625 48.046875 
Q 90.625 24.21875 89.0625 2.734375 
Q 88.28125 -4.296875 81.640625 -6.640625 
Q 75 -8.984375 66.796875 -9.765625 
Q 66.40625 -5.46875 63.28125 -0.78125 
Q 71.09375 -1.171875 75.578125 -0.390625 
Q 80.078125 0.390625 81.25 3.125 
Q 82.421875 5.859375 83 19.140625 
Q 83.59375 32.421875 83.984375 56.25 
L 61.328125 56.25 
Q 58.203125 48.828125 52.34375 38.671875 
Q 49.609375 41.40625 45.703125 42.96875 
Q 49.21875 47.65625 52.34375 54.296875 
Q 55.46875 60.9375 57.8125 68.75 
Q 60.15625 76.5625 60.546875 80.859375 
Q 66.015625 78.515625 69.921875 77.34375 
Q 67.96875 74.21875 66.59375 70.5 
Q 65.234375 66.796875 63.671875 63.28125 
L 91.40625 63.28125 
Q 91.015625 55.078125 91.015625 48.046875 
z
M 37.109375 8.203125 
L 37.109375 28.90625 
L 17.1875 28.90625 
L 17.1875 8.203125 
z
M 37.109375 35.546875 
L 37.109375 55.078125 
L 17.1875 55.078125 
L 17.1875 35.546875 
z
M 67.96875 32.03125 
Q 70.3125 27.34375 73.4375 19.921875 
Q 70.703125 18.75 66.015625 16.015625 
Q 63.28125 23.4375 60.9375 28.703125 
Q 58.59375 33.984375 56.25 37.5 
Q 58.984375 39.0625 63.28125 41.40625 
z
" id="SimHei-30340"/>
       <path d="M 48.4375 17.96875 
Q 46.875 21.09375 45.3125 23.046875 
Q 48.046875 25 51.171875 26.953125 
Q 53.515625 23.046875 55.265625 19.71875 
Q 57.03125 16.40625 59.765625 11.71875 
Q 57.421875 9.765625 53.515625 7.03125 
Q 52.734375 9.375 51.171875 12.5 
Q 48.046875 9.765625 43.359375 6.4375 
Q 38.671875 3.125 35.15625 -0.78125 
Q 32.421875 3.125 30.078125 5.46875 
Q 32.8125 8.203125 33.203125 13.671875 
L 33.203125 62.5 
Q 33.203125 69.140625 32.8125 73.4375 
L 55.859375 73.4375 
Q 55.46875 67.578125 55.46875 54.296875 
Q 55.46875 41.40625 55.859375 34.375 
L 39.84375 34.375 
L 39.84375 11.71875 
Q 42.578125 13.28125 48.4375 17.96875 
z
M 51.953125 -10.9375 
Q 50 -7.8125 46.09375 -5.078125 
Q 53.125 -1.171875 60.15625 9.953125 
Q 67.1875 21.09375 70.3125 36.71875 
L 59.375 36.71875 
Q 59.765625 42.578125 59.765625 48.046875 
Q 59.765625 53.515625 59.375 58.59375 
L 66.796875 58.59375 
Q 66.015625 55.46875 66.015625 50.78125 
L 66.015625 42.578125 
L 71.875 42.578125 
Q 73.046875 54.6875 73.046875 68.75 
L 69.140625 68.75 
Q 63.671875 68.75 59.375 68.359375 
L 59.375 75 
Q 64.0625 74.609375 69.140625 74.609375 
L 80.46875 74.609375 
Q 87.890625 74.609375 91.40625 75 
L 91.40625 68.359375 
Q 88.28125 68.75 79.6875 68.75 
Q 79.6875 57.8125 78.515625 42.578125 
L 83.984375 42.578125 
Q 87.5 42.578125 92.578125 42.96875 
L 92.578125 36.328125 
Q 87.5 36.71875 84.765625 36.71875 
L 77.34375 36.71875 
Q 72.265625 16.796875 66.984375 7.21875 
Q 61.71875 -2.34375 51.953125 -10.9375 
z
M 15.625 69.140625 
Q 15.625 74.21875 15.234375 78.90625 
L 23.046875 78.90625 
Q 22.265625 73.828125 22.265625 67.1875 
L 22.265625 59.375 
Q 25.390625 59.375 30.078125 59.765625 
L 30.078125 53.125 
Q 25 53.515625 22.265625 53.515625 
L 22.265625 41.40625 
Q 24.21875 42.578125 26.5625 44.140625 
Q 29.6875 36.71875 32.421875 29.296875 
Q 28.90625 28.515625 26.5625 26.5625 
Q 25 32.03125 22.265625 38.28125 
L 22.265625 4.6875 
Q 22.265625 -1.953125 22.65625 -8.984375 
L 15.234375 -8.984375 
Q 15.625 -0.78125 15.625 4.6875 
L 15.625 31.640625 
Q 12.890625 22.65625 8.59375 14.84375 
Q 7.03125 17.96875 2.734375 21.09375 
Q 7.8125 28.515625 10.34375 35.546875 
Q 12.890625 42.578125 14.84375 53.515625 
Q 7.8125 53.515625 5.46875 53.125 
L 5.46875 59.765625 
Q 8.59375 59.375 15.625 59.375 
z
M 82.8125 26.953125 
Q 82.421875 16.40625 82.421875 3.515625 
Q 82.421875 -0.78125 84.5625 -1.171875 
Q 86.71875 -1.5625 87.890625 -1.359375 
Q 89.0625 -1.171875 89.640625 0.578125 
Q 90.234375 2.34375 90.234375 7.421875 
Q 93.75 5.46875 97.65625 4.6875 
Q 96.09375 -3.515625 94.53125 -5.46875 
Q 92.96875 -7.421875 88.28125 -7.421875 
L 83.59375 -7.421875 
Q 75 -7.03125 75.78125 0.78125 
Q 75.78125 14.453125 75.78125 26.953125 
L 82.8125 26.953125 
z
M 48.828125 40.234375 
L 48.828125 51.171875 
L 39.84375 51.171875 
L 39.84375 40.234375 
z
M 48.828125 57.03125 
L 48.828125 67.578125 
L 39.84375 67.578125 
L 39.84375 57.03125 
z
" id="SimHei-27010"/>
       <path d="M 51.953125 80.46875 
Q 53.515625 76.5625 55.46875 70.703125 
L 75 70.703125 
Q 82.03125 70.703125 90.625 71.09375 
L 90.625 64.453125 
Q 82.03125 65.234375 74.609375 65.234375 
L 43.75 65.234375 
Q 46.484375 63.28125 51.5625 60.9375 
Q 48.046875 58.59375 44.921875 55.265625 
Q 41.796875 51.953125 38.671875 48.828125 
L 51.171875 48.828125 
Q 55.859375 53.515625 58.984375 58.984375 
Q 62.5 56.25 66.796875 53.515625 
Q 61.71875 50.78125 56.25 44.921875 
Q 50.78125 39.0625 41.015625 31.25 
L 60.15625 32.8125 
Q 58.203125 35.15625 56.25 37.890625 
Q 58.59375 38.671875 62.5 41.40625 
Q 66.40625 36.71875 73.4375 26.5625 
Q 69.921875 25.390625 66.015625 22.65625 
Q 65.234375 25 62.890625 27.734375 
Q 57.8125 27.34375 53.515625 27.34375 
L 53.515625 16.40625 
L 80.46875 16.40625 
Q 88.671875 16.40625 95.3125 16.796875 
L 95.3125 10.15625 
Q 89.0625 10.546875 80.078125 10.546875 
L 53.515625 10.546875 
L 53.515625 2.734375 
Q 53.515625 -4.6875 53.90625 -9.765625 
L 45.3125 -9.765625 
Q 45.703125 -4.6875 45.703125 2.734375 
L 45.703125 10.546875 
L 20.703125 10.546875 
Q 12.890625 10.546875 5.078125 10.15625 
L 5.078125 16.796875 
Q 12.890625 16.40625 21.09375 16.40625 
L 45.703125 16.40625 
L 45.703125 26.5625 
Q 42.1875 26.171875 38.671875 25.578125 
Q 35.15625 25 31.640625 23.828125 
Q 30.46875 27.734375 28.90625 31.25 
Q 32.421875 31.640625 36.328125 34.375 
Q 40.234375 37.109375 46.484375 43.75 
Q 35.9375 42.578125 31.640625 41.015625 
Q 30.859375 44.921875 28.90625 49.609375 
Q 32.421875 49.609375 36.328125 54.484375 
Q 40.234375 59.375 42.96875 65.234375 
L 26.5625 65.234375 
Q 17.96875 65.234375 10.15625 64.453125 
L 10.15625 71.09375 
Q 17.96875 70.703125 24.21875 70.703125 
L 46.484375 70.703125 
Q 45.3125 75.390625 43.75 78.515625 
Q 47.265625 79.296875 51.953125 80.46875 
z
M 25.390625 40.234375 
Q 26.953125 37.5 28.515625 34.375 
Q 24.609375 32.03125 20.703125 29.09375 
Q 16.796875 26.171875 12.5 22.265625 
Q 9.765625 26.171875 7.421875 29.296875 
Q 12.5 31.640625 17.1875 34.5625 
Q 21.875 37.5 25.390625 40.234375 
z
M 75.78125 41.40625 
Q 80.078125 38.671875 83.390625 36.515625 
Q 86.71875 34.375 91.796875 30.46875 
Q 88.671875 28.125 85.9375 25 
Q 82.8125 27.734375 79.09375 30.859375 
Q 75.390625 33.984375 71.484375 36.328125 
Q 73.828125 38.671875 75.78125 41.40625 
z
M 89.453125 55.078125 
Q 86.71875 53.90625 82.8125 50.96875 
Q 78.90625 48.046875 75 44.140625 
Q 72.265625 47.65625 69.921875 49.609375 
Q 73.4375 51.953125 76.171875 54.484375 
Q 78.90625 57.03125 82.8125 61.328125 
Q 86.328125 57.8125 89.453125 55.078125 
z
M 16.40625 60.15625 
Q 22.265625 56.25 27.734375 51.171875 
Q 24.609375 48.4375 22.265625 45.703125 
Q 16.796875 51.5625 10.546875 55.078125 
Q 13.671875 57.8125 16.40625 60.15625 
z
" id="SimHei-29575"/>
      </defs>
      <use xlink:href="#SimHei-25237"/>
      <use x="100" xlink:href="#SimHei-31080"/>
      <use x="200" xlink:href="#SimHei-38169"/>
      <use x="300" xlink:href="#SimHei-35823"/>
      <use x="400" xlink:href="#SimHei-30340"/>
      <use x="500" xlink:href="#SimHei-27010"/>
      <use x="600" xlink:href="#SimHei-29575"/>
     </g>
    </g>
   </g>
   <g id="matplotlib.axis_2">
    <g id="ytick_1">
     <g id="line2d_19">
      <path clip-path="url(#pb05c354118)" d="M 72 299.143229 
L 518.4 299.143229 
" style="fill:none;stroke:#b0b0b0;stroke-dasharray:2.96,1.28;stroke-dashoffset:0;stroke-width:0.8;"/>
     </g>
     <g id="line2d_20">
      <defs>
       <path d="M 0 0 
L -3.5 0 
" id="m883fb19df5" style="stroke:#000000;stroke-width:0.8;"/>
      </defs>
      <g>
       <use style="stroke:#000000;stroke-width:0.8;" x="72" xlink:href="#m883fb19df5" y="299.143229"/>
      </g>
     </g>
     <g id="text_11">
      <!-- 0.5 -->
      <g transform="translate(43.743125 303.702291)scale(0.12 -0.12)">
       <use xlink:href="#DejaVuSans-Bold-48"/>
       <use x="69.580078" xlink:href="#DejaVuSans-Bold-46"/>
       <use x="107.568359" xlink:href="#DejaVuSans-Bold-53"/>
      </g>
     </g>
    </g>
    <g id="ytick_2">
     <g id="line2d_21">
      <path clip-path="url(#pb05c354118)" d="M 72 250.474583 
L 518.4 250.474583 
" style="fill:none;stroke:#b0b0b0;stroke-dasharray:2.96,1.28;stroke-dashoffset:0;stroke-width:0.8;"/>
     </g>
     <g id="line2d_22">
      <g>
       <use style="stroke:#000000;stroke-width:0.8;" x="72" xlink:href="#m883fb19df5" y="250.474583"/>
      </g>
     </g>
     <g id="text_12">
      <!-- 0.6 -->
      <g transform="translate(43.743125 255.033646)scale(0.12 -0.12)">
       <defs>
        <path d="M 36.1875 35.984375 
Q 31.25 35.984375 28.78125 32.78125 
Q 26.3125 29.59375 26.3125 23.1875 
Q 26.3125 16.796875 28.78125 13.59375 
Q 31.25 10.40625 36.1875 10.40625 
Q 41.15625 10.40625 43.625 13.59375 
Q 46.09375 16.796875 46.09375 23.1875 
Q 46.09375 29.59375 43.625 32.78125 
Q 41.15625 35.984375 36.1875 35.984375 
z
M 59.421875 71 
L 59.421875 57.515625 
Q 54.78125 59.71875 50.671875 60.765625 
Q 46.578125 61.8125 42.671875 61.8125 
Q 34.28125 61.8125 29.59375 57.140625 
Q 24.90625 52.484375 24.125 43.3125 
Q 27.34375 45.703125 31.09375 46.890625 
Q 34.859375 48.09375 39.3125 48.09375 
Q 50.484375 48.09375 57.34375 41.546875 
Q 64.203125 35.015625 64.203125 24.421875 
Q 64.203125 12.703125 56.53125 5.640625 
Q 48.875 -1.421875 35.984375 -1.421875 
Q 21.78125 -1.421875 13.984375 8.171875 
Q 6.203125 17.78125 6.203125 35.40625 
Q 6.203125 53.46875 15.3125 63.796875 
Q 24.421875 74.125 40.28125 74.125 
Q 45.3125 74.125 50.046875 73.34375 
Q 54.78125 72.5625 59.421875 71 
z
" id="DejaVuSans-Bold-54"/>
       </defs>
       <use xlink:href="#DejaVuSans-Bold-48"/>
       <use x="69.580078" xlink:href="#DejaVuSans-Bold-46"/>
       <use x="107.568359" xlink:href="#DejaVuSans-Bold-54"/>
      </g>
     </g>
    </g>
    <g id="ytick_3">
     <g id="line2d_23">
      <path clip-path="url(#pb05c354118)" d="M 72 201.805937 
L 518.4 201.805937 
" style="fill:none;stroke:#b0b0b0;stroke-dasharray:2.96,1.28;stroke-dashoffset:0;stroke-width:0.8;"/>
     </g>
     <g id="line2d_24">
      <g>
       <use style="stroke:#000000;stroke-width:0.8;" x="72" xlink:href="#m883fb19df5" y="201.805937"/>
      </g>
     </g>
     <g id="text_13">
      <!-- 0.7 -->
      <g transform="translate(43.743125 206.365)scale(0.12 -0.12)">
       <defs>
        <path d="M 6.6875 72.90625 
L 61.625 72.90625 
L 61.625 62.3125 
L 33.203125 0 
L 14.890625 0 
L 41.796875 59.078125 
L 6.6875 59.078125 
z
" id="DejaVuSans-Bold-55"/>
       </defs>
       <use xlink:href="#DejaVuSans-Bold-48"/>
       <use x="69.580078" xlink:href="#DejaVuSans-Bold-46"/>
       <use x="107.568359" xlink:href="#DejaVuSans-Bold-55"/>
      </g>
     </g>
    </g>
    <g id="ytick_4">
     <g id="line2d_25">
      <path clip-path="url(#pb05c354118)" d="M 72 153.137292 
L 518.4 153.137292 
" style="fill:none;stroke:#b0b0b0;stroke-dasharray:2.96,1.28;stroke-dashoffset:0;stroke-width:0.8;"/>
     </g>
     <g id="line2d_26">
      <g>
       <use style="stroke:#000000;stroke-width:0.8;" x="72" xlink:href="#m883fb19df5" y="153.137292"/>
      </g>
     </g>
     <g id="text_14">
      <!-- 0.8 -->
      <g transform="translate(43.743125 157.696354)scale(0.12 -0.12)">
       <defs>
        <path d="M 34.8125 32.625 
Q 29.546875 32.625 26.703125 29.734375 
Q 23.875 26.859375 23.875 21.484375 
Q 23.875 16.109375 26.703125 13.25 
Q 29.546875 10.40625 34.8125 10.40625 
Q 40.046875 10.40625 42.828125 13.25 
Q 45.609375 16.109375 45.609375 21.484375 
Q 45.609375 26.90625 42.828125 29.765625 
Q 40.046875 32.625 34.8125 32.625 
z
M 21.09375 38.8125 
Q 14.453125 40.828125 11.078125 44.96875 
Q 7.71875 49.125 7.71875 55.328125 
Q 7.71875 64.546875 14.59375 69.375 
Q 21.484375 74.21875 34.8125 74.21875 
Q 48.046875 74.21875 54.921875 69.40625 
Q 61.8125 64.59375 61.8125 55.328125 
Q 61.8125 49.125 58.421875 44.96875 
Q 55.03125 40.828125 48.390625 38.8125 
Q 55.8125 36.765625 59.59375 32.15625 
Q 63.375 27.546875 63.375 20.515625 
Q 63.375 9.671875 56.171875 4.125 
Q 48.96875 -1.421875 34.8125 -1.421875 
Q 20.609375 -1.421875 13.359375 4.125 
Q 6.109375 9.671875 6.109375 20.515625 
Q 6.109375 27.546875 9.890625 32.15625 
Q 13.671875 36.765625 21.09375 38.8125 
z
M 25.484375 53.421875 
Q 25.484375 49.078125 27.90625 46.734375 
Q 30.328125 44.390625 34.8125 44.390625 
Q 39.203125 44.390625 41.59375 46.734375 
Q 44 49.078125 44 53.421875 
Q 44 57.765625 41.59375 60.078125 
Q 39.203125 62.40625 34.8125 62.40625 
Q 30.328125 62.40625 27.90625 60.0625 
Q 25.484375 57.71875 25.484375 53.421875 
z
" id="DejaVuSans-Bold-56"/>
       </defs>
       <use xlink:href="#DejaVuSans-Bold-48"/>
       <use x="69.580078" xlink:href="#DejaVuSans-Bold-46"/>
       <use x="107.568359" xlink:href="#DejaVuSans-Bold-56"/>
      </g>
     </g>
    </g>
    <g id="ytick_5">
     <g id="line2d_27">
      <path clip-path="url(#pb05c354118)" d="M 72 104.468646 
L 518.4 104.468646 
" style="fill:none;stroke:#b0b0b0;stroke-dasharray:2.96,1.28;stroke-dashoffset:0;stroke-width:0.8;"/>
     </g>
     <g id="line2d_28">
      <g>
       <use style="stroke:#000000;stroke-width:0.8;" x="72" xlink:href="#m883fb19df5" y="104.468646"/>
      </g>
     </g>
     <g id="text_15">
      <!-- 0.9 -->
      <g transform="translate(43.743125 109.027708)scale(0.12 -0.12)">
       <defs>
        <path d="M 10.015625 1.609375 
L 10.015625 15.09375 
Q 14.5 12.984375 18.59375 11.9375 
Q 22.703125 10.890625 26.703125 10.890625 
Q 35.109375 10.890625 39.796875 15.546875 
Q 44.484375 20.21875 45.3125 29.390625 
Q 42 26.953125 38.234375 25.734375 
Q 34.46875 24.515625 30.078125 24.515625 
Q 18.890625 24.515625 12.03125 31.03125 
Q 5.171875 37.546875 5.171875 48.1875 
Q 5.171875 59.96875 12.8125 67.046875 
Q 20.453125 74.125 33.296875 74.125 
Q 47.5625 74.125 55.375 64.5 
Q 63.1875 54.890625 63.1875 37.3125 
Q 63.1875 19.234375 54.046875 8.90625 
Q 44.921875 -1.421875 29 -1.421875 
Q 23.875 -1.421875 19.1875 -0.65625 
Q 14.5 0.09375 10.015625 1.609375 
z
M 33.203125 36.71875 
Q 38.140625 36.71875 40.625 39.90625 
Q 43.109375 43.109375 43.109375 49.515625 
Q 43.109375 55.859375 40.625 59.078125 
Q 38.140625 62.3125 33.203125 62.3125 
Q 28.265625 62.3125 25.78125 59.078125 
Q 23.296875 55.859375 23.296875 49.515625 
Q 23.296875 43.109375 25.78125 39.90625 
Q 28.265625 36.71875 33.203125 36.71875 
z
" id="DejaVuSans-Bold-57"/>
       </defs>
       <use xlink:href="#DejaVuSans-Bold-48"/>
       <use x="69.580078" xlink:href="#DejaVuSans-Bold-46"/>
       <use x="107.568359" xlink:href="#DejaVuSans-Bold-57"/>
      </g>
     </g>
    </g>
    <g id="ytick_6">
     <g id="line2d_29">
      <path clip-path="url(#pb05c354118)" d="M 72 55.8 
L 518.4 55.8 
" style="fill:none;stroke:#b0b0b0;stroke-dasharray:2.96,1.28;stroke-dashoffset:0;stroke-width:0.8;"/>
     </g>
     <g id="line2d_30">
      <g>
       <use style="stroke:#000000;stroke-width:0.8;" x="72" xlink:href="#m883fb19df5" y="55.8"/>
      </g>
     </g>
     <g id="text_16">
      <!-- 1.0 -->
      <g transform="translate(43.743125 60.359062)scale(0.12 -0.12)">
       <use xlink:href="#DejaVuSans-Bold-49"/>
       <use x="69.580078" xlink:href="#DejaVuSans-Bold-46"/>
       <use x="107.568359" xlink:href="#DejaVuSans-Bold-48"/>
      </g>
     </g>
    </g>
    <g id="text_17">
     <!-- 正确区块所占比例 -->
     <g transform="translate(38.118125 233.8)rotate(-90)scale(0.13 -0.13)">
      <defs>
       <path d="M 75.390625 72.265625 
Q 82.8125 72.265625 88.671875 72.65625 
L 88.671875 64.84375 
Q 82.8125 65.234375 74.609375 65.234375 
L 55.859375 65.234375 
L 55.859375 40.625 
L 75.78125 40.625 
Q 82.03125 40.625 86.71875 41.015625 
L 86.71875 33.59375 
Q 82.03125 33.984375 75.78125 33.984375 
L 55.859375 33.984375 
L 55.859375 2.34375 
L 75.78125 2.34375 
Q 83.984375 2.34375 92.1875 2.734375 
L 92.1875 -5.078125 
Q 83.984375 -4.6875 77.734375 -4.6875 
L 18.359375 -4.6875 
Q 10.9375 -4.6875 5.859375 -5.078125 
L 5.859375 2.734375 
Q 10.9375 2.34375 18.359375 2.34375 
L 20.703125 2.34375 
L 20.703125 36.71875 
Q 20.703125 43.75 20.3125 48.828125 
L 29.296875 48.828125 
Q 28.90625 44.140625 28.90625 36.71875 
L 28.90625 2.34375 
L 48.046875 2.34375 
L 48.046875 65.234375 
L 25.390625 65.234375 
Q 17.96875 65.234375 12.5 64.84375 
L 12.5 72.65625 
Q 17.96875 72.265625 25.390625 72.265625 
z
" id="SimHei-27491"/>
       <path d="M 77.734375 -3.125 
Q 82.03125 -2.734375 83.78125 -1.953125 
Q 85.546875 -1.171875 85.546875 1.953125 
L 85.546875 15.234375 
L 72.265625 15.234375 
L 72.265625 -6.25 
L 65.625 -6.25 
L 65.625 15.234375 
L 54.6875 15.234375 
Q 54.296875 9.765625 51.953125 3.703125 
Q 49.609375 -2.34375 43.75 -9.375 
Q 41.015625 -5.46875 36.328125 -5.078125 
Q 41.40625 -0.78125 43.9375 4.09375 
Q 46.484375 8.984375 47.265625 15.625 
Q 48.046875 22.265625 48.234375 34.171875 
Q 48.4375 46.09375 48.046875 53.515625 
L 66.40625 53.515625 
Q 69.921875 59.765625 72.65625 66.015625 
L 56.640625 66.015625 
Q 51.953125 60.546875 44.53125 50.78125 
Q 41.40625 53.515625 37.890625 54.6875 
Q 44.921875 62.109375 49.609375 69.140625 
Q 54.296875 76.171875 56.640625 82.8125 
Q 60.9375 80.859375 65.625 79.6875 
Q 63.671875 78.515625 59.765625 71.484375 
L 83.59375 71.484375 
Q 76.5625 58.984375 74.21875 53.515625 
L 92.96875 53.515625 
Q 92.578125 46.484375 92.578125 38.28125 
L 92.578125 -0.78125 
Q 92.96875 -5.46875 90.234375 -7.21875 
Q 87.5 -8.984375 80.859375 -10.546875 
Q 80.46875 -6.640625 77.734375 -3.125 
z
M 3.125 30.859375 
Q 8.59375 35.9375 13.28125 44.328125 
Q 17.96875 52.734375 20.3125 66.015625 
Q 12.890625 66.015625 8.203125 65.625 
L 8.203125 72.65625 
Q 13.671875 72.265625 18.75 72.265625 
L 29.6875 72.265625 
Q 36.328125 72.265625 41.015625 72.65625 
L 41.015625 65.625 
Q 36.328125 66.015625 28.125 66.015625 
Q 25.78125 55.078125 21.875 45.703125 
L 39.453125 45.703125 
Q 39.0625 39.0625 39.0625 33.203125 
L 39.0625 16.796875 
Q 39.0625 10.15625 39.453125 1.953125 
L 32.421875 1.953125 
L 32.421875 9.375 
L 21.09375 9.375 
L 21.09375 -4.6875 
L 14.0625 -4.6875 
Q 14.453125 3.515625 14.453125 9.375 
L 14.453125 32.8125 
Q 12.5 29.6875 9.765625 25.390625 
Q 7.421875 28.515625 3.125 30.859375 
z
M 32.421875 15.234375 
L 32.421875 40.234375 
L 21.09375 40.234375 
L 21.09375 15.234375 
z
M 85.546875 36.71875 
L 85.546875 48.046875 
L 72.265625 48.046875 
L 72.265625 36.71875 
z
M 85.546875 20.703125 
L 85.546875 31.25 
L 72.265625 31.25 
L 72.265625 20.703125 
z
M 65.625 36.71875 
L 65.625 48.046875 
L 54.6875 48.046875 
L 54.6875 36.71875 
z
M 65.625 20.703125 
L 65.625 31.25 
L 54.6875 31.25 
L 54.6875 20.703125 
z
" id="SimHei-30830"/>
       <path d="M 91.40625 70.703125 
Q 85.546875 71.09375 75.78125 71.09375 
L 17.96875 71.09375 
L 17.96875 -1.171875 
L 81.640625 -1.171875 
Q 89.453125 -1.171875 94.140625 -0.78125 
L 94.140625 -7.8125 
Q 89.0625 -7.421875 80.859375 -7.421875 
L 9.765625 -7.421875 
Q 10.15625 1.953125 10.15625 6.25 
L 10.15625 65.625 
Q 10.15625 72.265625 9.765625 77.734375 
L 91.40625 77.734375 
z
M 35.546875 60.546875 
Q 49.21875 51.171875 59.375 42.1875 
Q 68.359375 52.734375 72.65625 63.28125 
Q 76.953125 60.546875 82.8125 57.8125 
Q 78.515625 55.078125 75.390625 50.390625 
Q 72.265625 45.703125 66.015625 37.109375 
Q 79.296875 26.171875 87.5 15.625 
Q 82.8125 12.5 80.859375 8.984375 
Q 74.609375 18.359375 60.15625 30.46875 
Q 54.296875 23.828125 48.234375 18.359375 
Q 42.1875 12.890625 33.203125 6.25 
Q 29.6875 9.765625 25.390625 12.109375 
Q 33.203125 15.625 39.453125 20.5 
Q 45.703125 25.390625 54.296875 35.9375 
Q 44.53125 44.921875 30.078125 53.90625 
Q 33.984375 57.03125 35.546875 60.546875 
z
" id="SimHei-21306"/>
       <path d="M 55.46875 63.28125 
Q 55.46875 75 55.078125 80.859375 
Q 57.8125 80.078125 63.671875 79.296875 
Q 63.28125 76.5625 63.078125 72.65625 
Q 62.890625 68.75 62.890625 63.28125 
L 84.765625 63.28125 
Q 84.375 57.421875 84.375 50.390625 
L 84.375 34.375 
Q 91.015625 34.375 95.3125 34.765625 
L 95.3125 28.125 
Q 89.453125 28.515625 84.765625 28.515625 
L 66.40625 28.515625 
Q 69.140625 22.265625 72.84375 16.59375 
Q 76.5625 10.9375 82.421875 5.46875 
Q 88.28125 0 96.484375 -3.515625 
Q 93.359375 -5.859375 90.234375 -10.15625 
Q 86.71875 -8.203125 81.046875 -3.515625 
Q 75.390625 1.171875 70.3125 8 
Q 65.234375 14.84375 61.328125 23.4375 
Q 57.8125 13.28125 53.125 7.21875 
Q 48.4375 1.171875 44.328125 -2.53125 
Q 40.234375 -6.25 33.984375 -10.546875 
Q 30.859375 -7.03125 28.125 -4.6875 
Q 32.8125 -1.953125 37.890625 1.953125 
Q 42.96875 5.859375 46.671875 10.34375 
Q 50.390625 14.84375 52.34375 19.71875 
Q 54.296875 24.609375 54.6875 28.515625 
L 45.3125 28.515625 
Q 39.0625 28.515625 32.8125 28.125 
L 32.8125 34.765625 
Q 39.0625 34.375 45.3125 34.375 
L 55.46875 34.375 
L 55.46875 57.421875 
L 51.171875 57.421875 
Q 45.3125 57.421875 39.0625 56.640625 
L 39.0625 63.671875 
Q 44.921875 63.28125 51.171875 63.28125 
z
M 17.578125 54.6875 
L 17.578125 66.40625 
Q 17.578125 72.65625 17.1875 78.90625 
L 25 78.90625 
Q 24.609375 73.046875 24.609375 66.40625 
L 24.609375 54.6875 
L 27.734375 54.6875 
Q 30.46875 54.6875 36.71875 55.078125 
L 36.71875 48.4375 
Q 30.46875 48.828125 27.734375 48.828125 
L 24.609375 48.828125 
L 24.609375 19.140625 
L 38.671875 23.828125 
L 38.671875 17.1875 
Q 31.640625 14.84375 22.453125 11.328125 
Q 13.28125 7.8125 7.03125 5.078125 
Q 4.6875 10.9375 3.125 13.671875 
Q 7.421875 14.453125 11.125 15.421875 
Q 14.84375 16.40625 17.578125 17.1875 
L 17.578125 48.828125 
L 16.015625 48.828125 
Q 10.15625 48.828125 5.078125 48.4375 
L 5.078125 55.078125 
Q 10.15625 54.6875 15.625 54.6875 
z
M 76.953125 34.375 
L 76.953125 57.421875 
L 62.890625 57.421875 
L 62.890625 34.375 
z
" id="SimHei-22359"/>
       <path d="M 45.703125 69.53125 
Q 41.40625 69.140625 21.484375 66.40625 
L 21.484375 52.734375 
L 42.578125 52.734375 
Q 42.1875 43.75 42.1875 34.765625 
Q 42.1875 26.171875 42.578125 20.703125 
L 21.09375 20.703125 
Q 20.703125 13.671875 18.359375 6.640625 
Q 16.015625 -0.390625 12.109375 -8.203125 
Q 8.984375 -5.078125 5.078125 -4.296875 
Q 11.328125 5.078125 12.6875 16.40625 
Q 14.0625 27.734375 14.0625 41.796875 
Q 14.0625 55.859375 13.671875 71.484375 
Q 34.765625 73.828125 41.40625 77.34375 
Q 42.96875 73.828125 45.703125 69.53125 
z
M 91.015625 69.140625 
Q 85.546875 68.75 78.125 67.765625 
Q 70.703125 66.796875 59.375 66.015625 
L 59.375 47.265625 
L 81.640625 47.265625 
Q 87.109375 47.265625 93.359375 47.65625 
L 93.359375 40.625 
Q 87.109375 41.015625 81.25 41.015625 
L 81.25 6.25 
Q 81.25 -1.5625 81.640625 -7.8125 
L 73.4375 -7.8125 
Q 73.828125 -0.78125 73.828125 6.25 
L 73.828125 41.015625 
L 59.375 41.015625 
Q 58.59375 25.390625 56.25 16.59375 
Q 53.90625 7.8125 50.78125 1.953125 
Q 47.65625 -3.90625 42.578125 -9.765625 
Q 39.84375 -6.640625 35.9375 -5.078125 
Q 42.578125 1.171875 46.484375 9.5625 
Q 50.390625 17.96875 51.359375 28.3125 
Q 52.34375 38.671875 52.34375 48.828125 
Q 52.34375 59.375 51.953125 71.875 
Q 57.8125 71.875 69.140625 73.234375 
Q 80.46875 74.609375 87.109375 77.34375 
Q 89.0625 73.046875 91.015625 69.140625 
z
M 35.546875 27.34375 
L 35.546875 46.484375 
L 21.484375 46.484375 
L 21.484375 27.34375 
z
" id="SimHei-25152"/>
       <path d="M 42.578125 68.75 
Q 42.578125 75 42.1875 79.296875 
L 52.734375 79.296875 
Q 52.34375 74.609375 52.34375 68.75 
L 52.34375 62.5 
L 82.03125 62.5 
Q 92.1875 62.5 96.09375 62.890625 
L 96.09375 55.078125 
Q 92.1875 55.46875 82.8125 55.46875 
L 52.34375 55.46875 
L 52.34375 36.328125 
L 85.15625 36.328125 
Q 84.375 31.25 84.375 23.828125 
L 84.375 5.078125 
Q 84.375 -3.90625 85.15625 -8.59375 
L 75.78125 -8.59375 
L 75.78125 -0.390625 
L 23.046875 -0.390625 
L 23.046875 -8.59375 
L 13.671875 -8.59375 
Q 14.0625 -2.34375 14.0625 2.734375 
L 14.0625 24.21875 
Q 14.0625 31.25 13.671875 36.328125 
L 42.578125 36.328125 
z
M 75.78125 6.640625 
L 75.78125 29.296875 
L 23.046875 29.296875 
L 23.046875 6.640625 
z
" id="SimHei-21344"/>
       <path d="M 58.984375 79.6875 
Q 58.59375 71.484375 58.59375 64.0625 
L 58.59375 47.65625 
Q 76.953125 56.25 85.546875 65.234375 
Q 88.671875 60.9375 92.1875 57.421875 
Q 87.5 54.6875 78.703125 49.796875 
Q 69.921875 44.921875 58.59375 39.84375 
L 58.59375 7.03125 
Q 58.59375 1.5625 63.28125 1.5625 
L 78.125 1.5625 
Q 80.859375 1.5625 82.21875 3.90625 
Q 83.59375 6.25 85.15625 14.0625 
Q 88.28125 12.109375 94.140625 10.546875 
Q 91.40625 0 88.28125 -2.734375 
Q 85.15625 -5.46875 81.640625 -5.46875 
L 60.9375 -5.46875 
Q 50.78125 -5.46875 50.78125 4.296875 
L 50.78125 62.5 
Q 50.78125 71.09375 50.390625 79.6875 
L 58.984375 79.6875 
z
M 19.921875 77.734375 
Q 19.53125 71.484375 19.53125 62.5 
L 19.53125 49.21875 
L 28.90625 49.21875 
Q 36.328125 49.21875 44.921875 49.609375 
L 44.921875 41.40625 
Q 36.328125 41.796875 28.90625 41.796875 
L 19.53125 41.796875 
L 19.53125 7.421875 
Q 25.78125 10.15625 30.65625 12.6875 
Q 35.546875 15.234375 44.53125 19.921875 
Q 45.3125 14.84375 46.09375 11.71875 
Q 37.109375 7.421875 27.53125 2.734375 
Q 17.96875 -1.953125 14.453125 -5.078125 
Q 11.71875 -1.5625 8.984375 3.125 
Q 10.9375 4.6875 11.71875 9.375 
L 11.71875 61.71875 
Q 11.71875 71.09375 11.328125 77.734375 
L 19.921875 77.734375 
z
" id="SimHei-27604"/>
       <path d="M 53.90625 73.828125 
Q 59.765625 73.828125 64.0625 74.21875 
L 64.0625 67.1875 
Q 59.765625 67.578125 54.6875 67.578125 
L 49.21875 67.578125 
Q 48.828125 62.890625 47.265625 52.34375 
L 63.28125 52.34375 
Q 62.5 32.03125 56.4375 16.40625 
Q 50.390625 0.78125 35.9375 -9.375 
Q 34.375 -6.25 29.6875 -2.34375 
Q 42.96875 3.90625 50 20.703125 
Q 46.484375 23.828125 39.84375 28.125 
Q 42.1875 31.25 44.140625 33.984375 
Q 50 29.296875 52.34375 27.734375 
Q 54.6875 35.15625 55.859375 46.09375 
L 45.703125 46.09375 
Q 43.75 37.890625 34.765625 24.609375 
Q 31.640625 27.734375 27.734375 30.078125 
Q 33.203125 35.546875 37.109375 44.328125 
Q 41.015625 53.125 41.796875 67.578125 
Q 35.9375 67.578125 33.59375 67.1875 
L 33.59375 74.21875 
Q 37.5 73.828125 43.75 73.828125 
z
M 32.03125 77.734375 
Q 29.296875 74.609375 24.21875 60.15625 
L 24.21875 7.421875 
Q 24.21875 -0.390625 24.609375 -9.375 
L 16.796875 -9.375 
Q 17.1875 -1.171875 17.1875 6.640625 
L 17.1875 46.875 
Q 14.84375 42.1875 10.15625 35.15625 
Q 8.59375 37.109375 3.125 41.015625 
Q 8.203125 45.703125 14.640625 58.78125 
Q 21.09375 71.875 22.65625 81.25 
Q 25.78125 79.296875 32.03125 77.734375 
z
M 92.96875 79.296875 
Q 92.1875 74.609375 92.1875 67.1875 
L 92.1875 3.90625 
Q 92.1875 -4.296875 89.0625 -6.25 
Q 85.9375 -8.203125 75.78125 -8.984375 
Q 75.390625 -4.6875 72.65625 0.78125 
Q 80.859375 0 82.8125 0.390625 
Q 84.765625 0.78125 85.15625 4.6875 
L 85.15625 66.796875 
Q 85.15625 74.21875 84.375 79.296875 
L 92.96875 79.296875 
z
M 76.953125 66.015625 
Q 76.171875 60.546875 76.171875 50.78125 
L 76.171875 28.125 
Q 76.171875 18.75 76.5625 14.453125 
L 68.359375 14.453125 
Q 69.140625 18.75 69.140625 27.734375 
L 69.140625 51.171875 
Q 68.75 60.15625 68.359375 66.015625 
L 76.953125 66.015625 
z
" id="SimHei-20363"/>
      </defs>
      <use xlink:href="#SimHei-27491"/>
      <use x="100" xlink:href="#SimHei-30830"/>
      <use x="200" xlink:href="#SimHei-21306"/>
      <use x="300" xlink:href="#SimHei-22359"/>
      <use x="400" xlink:href="#SimHei-25152"/>
      <use x="500" xlink:href="#SimHei-21344"/>
      <use x="600" xlink:href="#SimHei-27604"/>
      <use x="700" xlink:href="#SimHei-20363"/>
     </g>
    </g>
   </g>
   <g id="line2d_31">
    <path clip-path="url(#pb05c354118)" d="M 92.290909 55.8 
L 143.018182 55.8 
L 193.745455 55.8 
L 244.472727 55.8 
L 295.2 55.8 
L 345.927273 55.8 
L 396.654545 60.791656 
L 447.381818 78.028841 
L 498.109091 103.238991 
" style="fill:none;stroke:#0000ff;stroke-linecap:square;stroke-width:1.5;"/>
    <defs>
     <path d="M 0 3 
C 0.795609 3 1.55874 2.683901 2.12132 2.12132 
C 2.683901 1.55874 3 0.795609 3 0 
C 3 -0.795609 2.683901 -1.55874 2.12132 -2.12132 
C 1.55874 -2.683901 0.795609 -3 0 -3 
C -0.795609 -3 -1.55874 -2.683901 -2.12132 -2.12132 
C -2.683901 -1.55874 -3 -0.795609 -3 0 
C -3 0.795609 -2.683901 1.55874 -2.12132 2.12132 
C -1.55874 2.683901 -0.795609 3 0 3 
z
" id="mf971e75475" style="stroke:#0000ff;"/>
    </defs>
    <g clip-path="url(#pb05c354118)">
     <use style="fill:#0000ff;stroke:#0000ff;" x="92.290909" xlink:href="#mf971e75475" y="55.8"/>
     <use style="fill:#0000ff;stroke:#0000ff;" x="143.018182" xlink:href="#mf971e75475" y="55.8"/>
     <use style="fill:#0000ff;stroke:#0000ff;" x="193.745455" xlink:href="#mf971e75475" y="55.8"/>
     <use style="fill:#0000ff;stroke:#0000ff;" x="244.472727" xlink:href="#mf971e75475" y="55.8"/>
     <use style="fill:#0000ff;stroke:#0000ff;" x="295.2" xlink:href="#mf971e75475" y="55.8"/>
     <use style="fill:#0000ff;stroke:#0000ff;" x="345.927273" xlink:href="#mf971e75475" y="55.8"/>
     <use style="fill:#0000ff;stroke:#0000ff;" x="396.654545" xlink:href="#mf971e75475" y="60.791656"/>
     <use style="fill:#0000ff;stroke:#0000ff;" x="447.381818" xlink:href="#mf971e75475" y="78.028841"/>
     <use style="fill:#0000ff;stroke:#0000ff;" x="498.109091" xlink:href="#mf971e75475" y="103.238991"/>
    </g>
   </g>
   <g id="line2d_32">
    <path clip-path="url(#pb05c354118)" d="M 92.290909 55.8 
L 143.018182 55.8 
L 193.745455 55.8 
L 244.472727 55.8 
L 295.2 61.337618 
L 345.927273 58.295828 
L 396.654545 90.599045 
L 447.381818 108.833606 
L 498.109091 186.636207 
" style="fill:none;stroke:#008000;stroke-dasharray:5.55,2.4;stroke-dashoffset:0;stroke-width:1.5;"/>
    <defs>
     <path d="M -0 3 
L 3 -3 
L -3 -3 
z
" id="mc6da401fb2" style="stroke:#008000;stroke-linejoin:miter;"/>
    </defs>
    <g clip-path="url(#pb05c354118)">
     <use style="fill:#008000;stroke:#008000;stroke-linejoin:miter;" x="92.290909" xlink:href="#mc6da401fb2" y="55.8"/>
     <use style="fill:#008000;stroke:#008000;stroke-linejoin:miter;" x="143.018182" xlink:href="#mc6da401fb2" y="55.8"/>
     <use style="fill:#008000;stroke:#008000;stroke-linejoin:miter;" x="193.745455" xlink:href="#mc6da401fb2" y="55.8"/>
     <use style="fill:#008000;stroke:#008000;stroke-linejoin:miter;" x="244.472727" xlink:href="#mc6da401fb2" y="55.8"/>
     <use style="fill:#008000;stroke:#008000;stroke-linejoin:miter;" x="295.2" xlink:href="#mc6da401fb2" y="61.337618"/>
     <use style="fill:#008000;stroke:#008000;stroke-linejoin:miter;" x="345.927273" xlink:href="#mc6da401fb2" y="58.295828"/>
     <use style="fill:#008000;stroke:#008000;stroke-linejoin:miter;" x="396.654545" xlink:href="#mc6da401fb2" y="90.599045"/>
     <use style="fill:#008000;stroke:#008000;stroke-linejoin:miter;" x="447.381818" xlink:href="#mc6da401fb2" y="108.833606"/>
     <use style="fill:#008000;stroke:#008000;stroke-linejoin:miter;" x="498.109091" xlink:href="#mc6da401fb2" y="186.636207"/>
    </g>
   </g>
   <g id="line2d_33">
    <path clip-path="url(#pb05c354118)" d="M 92.290909 55.8 
L 143.018182 55.8 
L 193.745455 55.8 
L 244.472727 55.8 
L 295.2 65.533729 
L 345.927273 65.070218 
L 396.654545 97.001286 
L 447.381818 204.115505 
L 498.109091 307.8 
" style="fill:none;stroke:#ff0000;stroke-dasharray:9.6,2.4,1.5,2.4;stroke-dashoffset:0;stroke-width:1.5;"/>
    <defs>
     <path d="M -3 3 
L 3 3 
L 3 -3 
L -3 -3 
z
" id="m96e0494b8c" style="stroke:#ff0000;stroke-linejoin:miter;"/>
    </defs>
    <g clip-path="url(#pb05c354118)">
     <use style="fill:#ff0000;stroke:#ff0000;stroke-linejoin:miter;" x="92.290909" xlink:href="#m96e0494b8c" y="55.8"/>
     <use style="fill:#ff0000;stroke:#ff0000;stroke-linejoin:miter;" x="143.018182" xlink:href="#m96e0494b8c" y="55.8"/>
     <use style="fill:#ff0000;stroke:#ff0000;stroke-linejoin:miter;" x="193.745455" xlink:href="#m96e0494b8c" y="55.8"/>
     <use style="fill:#ff0000;stroke:#ff0000;stroke-linejoin:miter;" x="244.472727" xlink:href="#m96e0494b8c" y="55.8"/>
     <use style="fill:#ff0000;stroke:#ff0000;stroke-linejoin:miter;" x="295.2" xlink:href="#m96e0494b8c" y="65.533729"/>
     <use style="fill:#ff0000;stroke:#ff0000;stroke-linejoin:miter;" x="345.927273" xlink:href="#m96e0494b8c" y="65.070218"/>
     <use style="fill:#ff0000;stroke:#ff0000;stroke-linejoin:miter;" x="396.654545" xlink:href="#m96e0494b8c" y="97.001286"/>
     <use style="fill:#ff0000;stroke:#ff0000;stroke-linejoin:miter;" x="447.381818" xlink:href="#m96e0494b8c" y="204.115505"/>
     <use style="fill:#ff0000;stroke:#ff0000;stroke-linejoin:miter;" x="498.109091" xlink:href="#m96e0494b8c" y="307.8"/>
    </g>
   </g>
   <g id="patch_3">
    <path d="M 72 320.4 
L 72 43.2 
" style="fill:none;stroke:#000000;stroke-linecap:square;stroke-linejoin:miter;stroke-width:0.8;"/>
   </g>
   <g id="patch_4">
    <path d="M 72 320.4 
L 518.4 320.4 
" style="fill:none;stroke:#000000;stroke-linecap:square;stroke-linejoin:miter;stroke-width:0.8;"/>
   </g>
   <g id="legend_1">
    <g id="patch_5">
     <path d="M 79 315.4 
L 291 315.4 
Q 293 315.4 293 313.4 
L 293 265.65 
Q 293 263.65 291 263.65 
L 79 263.65 
Q 77 263.65 77 265.65 
L 77 313.4 
Q 77 315.4 79 315.4 
z
" style="fill:#ffffff;opacity:0.8;stroke:#cccccc;stroke-linejoin:miter;"/>
    </g>
    <g id="line2d_34">
     <path d="M 81 273.9 
L 101 273.9 
" style="fill:none;stroke:#0000ff;stroke-linecap:square;stroke-width:1.5;"/>
    </g>
    <g id="line2d_35">
     <g>
      <use style="fill:#0000ff;stroke:#0000ff;" x="91" xlink:href="#mf971e75475" y="273.9"/>
     </g>
    </g>
    <g id="text_18">
     <!-- 领导节点发布错误区块的概率=0.1 -->
     <g transform="translate(109 277.4)scale(0.12 -0.12)">
      <defs>
       <path d="M 82.421875 74.609375 
Q 88.671875 74.609375 95.703125 75 
L 95.703125 68.359375 
Q 88.671875 68.75 82.421875 68.75 
L 73.046875 68.75 
Q 71.09375 63.671875 68.75 56.25 
L 91.40625 56.25 
Q 91.015625 50.390625 91.015625 43.75 
L 91.015625 27.734375 
Q 91.015625 21.875 91.40625 13.28125 
L 83.984375 13.28125 
L 83.984375 50.390625 
L 58.203125 50.390625 
L 58.203125 12.5 
L 51.171875 12.5 
Q 51.5625 20.703125 51.5625 27.34375 
L 51.5625 43.359375 
Q 51.5625 48.4375 51.171875 56.25 
L 61.71875 56.25 
Q 64.0625 63.671875 65.234375 68.75 
L 60.15625 68.75 
Q 52.734375 68.75 46.484375 68.359375 
L 46.484375 75 
Q 52.734375 74.609375 59.375 74.609375 
z
M 21.09375 30.859375 
Q 16.40625 30.859375 8.984375 30.46875 
L 8.984375 37.109375 
Q 16.40625 36.71875 21.09375 36.71875 
L 46.875 36.71875 
L 46.875 32.03125 
Q 43.75 28.125 39.84375 22.453125 
Q 35.9375 16.796875 29.6875 7.03125 
Q 32.8125 4.6875 39.0625 -0.390625 
Q 37.109375 -2.734375 33.984375 -6.640625 
Q 26.953125 0.78125 10.9375 11.71875 
Q 12.890625 14.0625 15.234375 17.578125 
Q 23.046875 12.109375 25 10.9375 
Q 35.15625 26.5625 37.5 30.859375 
z
M 35.15625 77.734375 
Q 32.8125 74.609375 31.25 72.265625 
Q 42.1875 62.890625 50.390625 54.296875 
Q 46.875 51.5625 44.53125 48.828125 
Q 39.453125 55.859375 36.515625 58.984375 
Q 33.59375 62.109375 28.125 67.1875 
Q 24.21875 60.15625 20.109375 54.875 
Q 16.015625 49.609375 8.59375 41.40625 
Q 6.640625 44.140625 3.125 46.484375 
Q 11.328125 53.125 17.765625 62.890625 
Q 24.21875 72.65625 26.953125 81.640625 
Q 30.46875 79.6875 35.15625 77.734375 
z
M 76.171875 42.578125 
Q 75 37.890625 75 31.25 
Q 75 24.609375 74.015625 18.359375 
Q 73.046875 12.109375 67.96875 5.46875 
Q 62.890625 -1.171875 46.09375 -9.375 
Q 44.53125 -6.25 41.40625 -3.125 
Q 51.953125 0.390625 58.390625 5.859375 
Q 64.84375 11.328125 66.40625 16.59375 
Q 67.96875 21.875 67.96875 28.90625 
Q 67.96875 35.9375 67.578125 43.359375 
Q 71.875 42.578125 76.171875 42.578125 
z
M 76.171875 12.890625 
Q 80.078125 9.765625 84.953125 6.25 
Q 89.84375 2.734375 96.09375 -3.125 
L 89.84375 -9.375 
Q 84.765625 -3.125 80.859375 0.1875 
Q 76.953125 3.515625 71.875 7.03125 
Q 74.21875 9.375 76.171875 12.890625 
z
M 26.5625 56.640625 
Q 32.8125 48.828125 35.9375 43.359375 
Q 33.203125 41.40625 29.6875 39.453125 
Q 23.4375 50 20.703125 52.34375 
Q 24.21875 54.296875 26.5625 56.640625 
z
" id="SimHei-39046"/>
       <path d="M 80.078125 79.6875 
Q 79.6875 75.78125 79.6875 67.96875 
Q 79.6875 60.546875 80.078125 55.46875 
L 25 55.46875 
L 25 50 
Q 25 44.53125 32.03125 44.53125 
L 73.828125 44.53125 
Q 79.6875 44.53125 81.4375 46.09375 
Q 83.203125 47.65625 83.59375 54.6875 
Q 87.5 51.5625 92.578125 50 
Q 89.0625 41.015625 87.109375 39.453125 
Q 85.15625 37.890625 79.296875 37.890625 
L 26.171875 37.890625 
Q 17.1875 37.890625 17.1875 47.265625 
L 17.1875 69.53125 
Q 17.1875 74.609375 16.40625 79.6875 
z
M 65.625 26.953125 
Q 65.625 30.46875 65.234375 35.9375 
L 73.828125 35.9375 
Q 73.4375 29.6875 73.4375 26.953125 
L 81.25 26.953125 
Q 87.109375 26.953125 95.3125 27.34375 
L 95.3125 20.3125 
Q 87.109375 20.703125 81.25 20.703125 
L 73.4375 20.703125 
L 73.4375 3.515625 
Q 73.4375 -3.515625 69.53125 -5.859375 
Q 65.625 -8.203125 55.46875 -10.15625 
Q 54.296875 -5.078125 51.953125 -0.78125 
Q 62.109375 -0.78125 63.859375 0.390625 
Q 65.625 1.5625 65.625 4.6875 
L 65.625 20.703125 
L 22.265625 20.703125 
Q 14.0625 20.703125 5.46875 20.3125 
L 5.46875 27.34375 
Q 13.28125 26.953125 21.875 26.953125 
z
M 72.265625 62.109375 
L 72.265625 73.4375 
L 25 73.4375 
L 25 62.109375 
z
M 25.390625 17.96875 
Q 31.25 11.328125 37.109375 1.953125 
Q 32.8125 -0.78125 30.078125 -2.734375 
Q 25.78125 5.078125 19.53125 12.890625 
Q 22.65625 14.84375 25.390625 17.96875 
z
" id="SimHei-23548"/>
       <path d="M 65.625 3.125 
Q 64.84375 7.8125 61.71875 12.5 
Q 69.53125 12.5 73.625 13.28125 
Q 77.734375 14.0625 78.125 17.96875 
L 78.90625 39.0625 
L 45.703125 39.0625 
L 45.703125 5.078125 
Q 45.703125 -1.953125 46.09375 -9.375 
L 37.109375 -9.375 
Q 37.890625 -2.34375 37.890625 5.078125 
L 37.890625 39.0625 
L 29.296875 39.0625 
Q 16.40625 39.0625 8.59375 38.671875 
L 8.59375 46.09375 
Q 16.796875 45.703125 25.390625 45.703125 
L 87.890625 45.703125 
Q 86.71875 29.296875 86.328125 19.140625 
Q 85.9375 8.984375 80.46875 6.4375 
Q 75 3.90625 65.625 3.125 
z
M 38.671875 61.71875 
Q 38.671875 54.6875 39.0625 49.609375 
L 30.46875 49.609375 
Q 30.859375 55.46875 30.859375 61.71875 
L 17.578125 61.71875 
Q 12.109375 61.71875 5.46875 60.9375 
L 5.46875 68.75 
Q 12.109375 68.359375 17.578125 68.359375 
L 30.859375 68.359375 
Q 30.859375 75.78125 30.46875 80.859375 
L 39.0625 80.859375 
Q 38.671875 75.78125 38.671875 68.359375 
L 59.375 68.359375 
Q 59.375 76.171875 58.984375 80.859375 
L 67.96875 80.859375 
Q 67.578125 76.171875 67.578125 68.359375 
L 80.078125 68.359375 
Q 87.5 68.359375 93.75 68.75 
L 93.75 61.328125 
Q 87.5 61.71875 80.078125 61.71875 
L 67.578125 61.71875 
Q 67.578125 55.46875 67.96875 49.609375 
L 58.984375 49.609375 
Q 59.375 55.859375 59.375 61.71875 
z
" id="SimHei-33410"/>
       <path d="M 51.953125 81.25 
Q 51.5625 76.953125 51.5625 68.359375 
L 76.5625 68.359375 
Q 82.421875 68.359375 89.453125 68.75 
L 89.453125 61.328125 
Q 82.8125 61.71875 76.5625 61.71875 
L 51.5625 61.71875 
L 51.5625 50.390625 
L 81.640625 50.390625 
Q 81.25 42.1875 81.25 33.59375 
Q 81.25 25.390625 81.640625 18.359375 
L 18.359375 18.359375 
Q 18.75 25.390625 18.75 33.984375 
Q 18.75 42.578125 18.359375 50.390625 
L 43.359375 50.390625 
L 43.359375 70.3125 
Q 43.359375 76.5625 42.96875 81.25 
L 51.953125 81.25 
z
M 73.4375 25 
L 73.4375 43.75 
L 26.953125 43.75 
L 26.953125 25 
z
M 23.4375 11.71875 
Q 16.015625 -3.90625 12.890625 -9.765625 
Q 9.765625 -7.421875 5.078125 -5.859375 
Q 10.15625 0.78125 14.84375 14.453125 
Q 18.75 12.5 23.4375 11.71875 
z
M 83.203125 13.28125 
Q 90.234375 2.34375 94.921875 -5.46875 
Q 92.578125 -6.640625 87.109375 -9.765625 
Q 83.984375 -2.34375 76.5625 8.984375 
Q 80.46875 10.9375 83.203125 13.28125 
z
M 62.109375 -8.984375 
Q 58.984375 -1.5625 53.125 8.984375 
Q 55.859375 10.546875 59.765625 12.890625 
Q 67.96875 -1.171875 69.53125 -5.078125 
Q 65.625 -7.03125 62.109375 -8.984375 
z
M 37.109375 -8.984375 
Q 36.71875 -4.6875 30.859375 8.59375 
Q 34.375 9.765625 37.890625 12.109375 
Q 43.75 -1.171875 45.3125 -5.46875 
Q 41.015625 -7.03125 37.109375 -8.984375 
z
" id="SimHei-28857"/>
       <path d="M 54.296875 76.953125 
Q 52.34375 72.65625 51.171875 68.15625 
Q 50 63.671875 48.046875 55.859375 
L 79.296875 55.859375 
Q 83.203125 55.859375 91.015625 56.25 
L 91.015625 48.828125 
Q 83.203125 49.21875 79.296875 49.21875 
L 46.484375 49.21875 
Q 44.140625 43.359375 41.40625 37.5 
L 82.8125 37.5 
Q 75.390625 19.53125 62.109375 7.421875 
Q 72.65625 0 92.96875 -2.34375 
Q 90.234375 -5.46875 88.28125 -10.15625 
Q 80.46875 -8.59375 72.265625 -5.65625 
Q 64.0625 -2.734375 56.25 2.734375 
Q 50 -1.171875 41.015625 -4.875 
Q 32.03125 -8.59375 22.65625 -10.9375 
Q 21.875 -7.03125 18.75 -3.515625 
Q 27.34375 -2.34375 35.9375 0.578125 
Q 44.53125 3.515625 51.171875 7.8125 
Q 44.53125 14.453125 36.328125 26.953125 
Q 32.03125 19.921875 25.390625 13.28125 
Q 18.75 6.640625 10.9375 1.171875 
Q 9.375 3.90625 4.6875 7.03125 
Q 10.546875 10.15625 16.203125 15.234375 
Q 21.875 20.3125 28.125 28.703125 
Q 34.375 37.109375 38.671875 49.21875 
Q 28.515625 49.21875 23.046875 48.828125 
Q 17.578125 48.4375 14.84375 47.265625 
Q 13.671875 50.78125 11.71875 54.6875 
Q 15.625 55.46875 17.375 60.546875 
Q 19.140625 65.625 21.09375 76.171875 
Q 24.21875 74.609375 29.6875 73.046875 
Q 27.734375 69.140625 26.171875 65.03125 
Q 24.609375 60.9375 22.65625 55.859375 
L 40.625 55.859375 
Q 43.75 68.359375 45.3125 79.6875 
Q 49.609375 77.34375 54.296875 76.953125 
z
M 41.796875 31.25 
Q 47.265625 21.484375 57.03125 11.71875 
Q 65.625 18.75 72.265625 31.25 
L 41.796875 31.25 
z
M 68.75 79.296875 
Q 75.390625 71.875 82.03125 64.0625 
Q 79.296875 62.5 75.390625 58.984375 
Q 69.140625 67.96875 63.28125 74.21875 
Q 66.015625 76.171875 68.75 79.296875 
z
" id="SimHei-21457"/>
       <path d="M 37.109375 66.015625 
Q 41.40625 74.609375 43.359375 82.8125 
Q 48.828125 80.859375 53.125 79.296875 
Q 51.171875 77.734375 46.09375 66.015625 
L 75 66.015625 
Q 86.71875 66.015625 94.140625 66.40625 
L 94.140625 59.375 
L 42.578125 59.375 
Q 36.328125 48.4375 30.859375 41.796875 
L 51.171875 41.796875 
Q 51.171875 50.390625 50.78125 55.859375 
L 58.984375 55.859375 
Q 58.59375 50.390625 58.59375 41.796875 
L 85.9375 41.796875 
Q 85.546875 34.765625 85.546875 27.734375 
L 85.546875 11.71875 
Q 85.546875 4.296875 81.4375 2.34375 
Q 77.34375 0.390625 69.53125 -0.390625 
Q 68.75 5.078125 66.015625 8.59375 
Q 75 8.59375 76.75 9.765625 
Q 78.515625 10.9375 78.125 16.015625 
L 78.125 35.15625 
L 58.59375 35.15625 
L 58.59375 8.59375 
Q 58.59375 0.390625 58.984375 -9.375 
L 50.78125 -9.375 
Q 51.171875 0.390625 51.171875 8.59375 
L 51.171875 35.15625 
L 32.8125 35.15625 
L 32.8125 0 
L 25 0 
Q 25.390625 8.203125 25.390625 16.015625 
L 25.390625 34.765625 
Q 20.3125 28.90625 10.15625 19.921875 
Q 7.421875 23.046875 3.125 25.78125 
Q 11.71875 31.640625 19.71875 40.03125 
Q 27.734375 48.4375 33.59375 59.375 
L 24.21875 59.375 
Q 14.453125 59.375 6.25 58.984375 
L 6.25 66.40625 
Q 14.453125 66.015625 24.21875 66.015625 
z
" id="SimHei-24067"/>
       <path d="M 46.484375 45.3125 
L 1.953125 45.3125 
L 1.953125 51.5625 
L 46.484375 51.5625 
z
M 46.484375 21.484375 
L 1.953125 21.484375 
L 1.953125 27.734375 
L 46.484375 27.734375 
z
" id="SimHei-61"/>
       <path d="M 3.125 29.296875 
Q 3.90625 50 6.4375 56.046875 
Q 8.984375 62.109375 13.671875 66.015625 
Q 18.359375 69.921875 25.1875 69.921875 
Q 32.03125 69.921875 37.109375 64.25 
Q 42.1875 58.59375 43.75 50 
Q 45.3125 41.40625 44.71875 30.265625 
Q 44.140625 19.140625 40.8125 12.109375 
Q 37.5 5.078125 30.859375 2.34375 
Q 24.21875 -0.390625 17.578125 2.921875 
Q 10.9375 6.25 8.203125 11.71875 
Q 5.46875 17.1875 4.296875 23.234375 
Q 3.125 29.296875 3.90625 50 
z
M 12.890625 52.734375 
Q 10.546875 31.25 12.5 22.84375 
Q 14.453125 14.453125 18.9375 10.9375 
Q 23.4375 7.421875 28.125 9.5625 
Q 32.8125 11.71875 34.953125 18.15625 
Q 37.109375 24.609375 37.109375 32.21875 
Q 37.109375 39.84375 36.515625 46.09375 
Q 35.9375 52.34375 33 57.421875 
Q 30.078125 62.5 25.1875 62.6875 
Q 20.3125 62.890625 16.59375 57.8125 
Q 12.890625 52.734375 10.546875 31.25 
z
" id="SimHei-48"/>
       <path d="M 16.796875 1.953125 
L 7.8125 1.953125 
L 7.8125 10.546875 
L 16.796875 10.546875 
z
" id="SimHei-46"/>
       <path d="M 21.875 56.25 
Q 16.796875 51.171875 8.984375 46.484375 
L 8.984375 53.90625 
Q 18.75 60.546875 25 69.53125 
L 29.6875 69.53125 
L 29.6875 2.34375 
L 21.875 2.34375 
z
" id="SimHei-49"/>
      </defs>
      <use xlink:href="#SimHei-39046"/>
      <use x="100" xlink:href="#SimHei-23548"/>
      <use x="200" xlink:href="#SimHei-33410"/>
      <use x="300" xlink:href="#SimHei-28857"/>
      <use x="400" xlink:href="#SimHei-21457"/>
      <use x="500" xlink:href="#SimHei-24067"/>
      <use x="600" xlink:href="#SimHei-38169"/>
      <use x="700" xlink:href="#SimHei-35823"/>
      <use x="800" xlink:href="#SimHei-21306"/>
      <use x="900" xlink:href="#SimHei-22359"/>
      <use x="1000" xlink:href="#SimHei-30340"/>
      <use x="1100" xlink:href="#SimHei-27010"/>
      <use x="1200" xlink:href="#SimHei-29575"/>
      <use x="1300" xlink:href="#SimHei-61"/>
      <use x="1350" xlink:href="#SimHei-48"/>
      <use x="1400" xlink:href="#SimHei-46"/>
      <use x="1450" xlink:href="#SimHei-49"/>
     </g>
    </g>
    <g id="line2d_36">
     <path d="M 81 290.15 
L 101 290.15 
" style="fill:none;stroke:#008000;stroke-dasharray:5.55,2.4;stroke-dashoffset:0;stroke-width:1.5;"/>
    </g>
    <g id="line2d_37">
     <g>
      <use style="fill:#008000;stroke:#008000;stroke-linejoin:miter;" x="91" xlink:href="#mc6da401fb2" y="290.15"/>
     </g>
    </g>
    <g id="text_19">
     <!-- 领导节点发布错误区块的概率=0.3 -->
     <g transform="translate(109 293.65)scale(0.12 -0.12)">
      <defs>
       <path d="M 3.90625 19.140625 
L 10.9375 20.3125 
Q 12.5 15.234375 16.015625 11.90625 
Q 19.53125 8.59375 24.796875 8.78125 
Q 30.078125 8.984375 33.203125 13.078125 
Q 36.328125 17.1875 35.9375 22.453125 
Q 35.546875 27.734375 31.828125 30.65625 
Q 28.125 33.59375 19.921875 34.765625 
L 19.921875 39.84375 
Q 28.125 40.625 31.828125 44.140625 
Q 35.546875 47.65625 35.15625 53.3125 
Q 34.765625 58.984375 30.078125 61.515625 
Q 25.390625 64.0625 20.109375 62.109375 
Q 14.84375 60.15625 11.71875 51.171875 
L 4.6875 52.34375 
Q 7.03125 59.375 11.125 64.0625 
Q 15.234375 68.75 22.265625 69.53125 
Q 29.296875 70.3125 34.5625 67.765625 
Q 39.84375 65.234375 41.984375 59.953125 
Q 44.140625 54.6875 42.578125 48.4375 
Q 41.015625 42.1875 33.59375 37.5 
Q 39.0625 35.15625 41.984375 30.46875 
Q 44.921875 25.78125 43.9375 18.15625 
Q 42.96875 10.546875 37.109375 5.859375 
Q 31.25 1.171875 23.828125 1.359375 
Q 16.40625 1.5625 10.9375 6.046875 
Q 5.46875 10.546875 3.90625 19.140625 
z
" id="SimHei-51"/>
      </defs>
      <use xlink:href="#SimHei-39046"/>
      <use x="100" xlink:href="#SimHei-23548"/>
      <use x="200" xlink:href="#SimHei-33410"/>
      <use x="300" xlink:href="#SimHei-28857"/>
      <use x="400" xlink:href="#SimHei-21457"/>
      <use x="500" xlink:href="#SimHei-24067"/>
      <use x="600" xlink:href="#SimHei-38169"/>
      <use x="700" xlink:href="#SimHei-35823"/>
      <use x="800" xlink:href="#SimHei-21306"/>
      <use x="900" xlink:href="#SimHei-22359"/>
      <use x="1000" xlink:href="#SimHei-30340"/>
      <use x="1100" xlink:href="#SimHei-27010"/>
      <use x="1200" xlink:href="#SimHei-29575"/>
      <use x="1300" xlink:href="#SimHei-61"/>
      <use x="1350" xlink:href="#SimHei-48"/>
      <use x="1400" xlink:href="#SimHei-46"/>
      <use x="1450" xlink:href="#SimHei-51"/>
     </g>
    </g>
    <g id="line2d_38">
     <path d="M 81 306.4 
L 101 306.4 
" style="fill:none;stroke:#ff0000;stroke-dasharray:9.6,2.4,1.5,2.4;stroke-dashoffset:0;stroke-width:1.5;"/>
    </g>
    <g id="line2d_39">
     <g>
      <use style="fill:#ff0000;stroke:#ff0000;stroke-linejoin:miter;" x="91" xlink:href="#m96e0494b8c" y="306.4"/>
     </g>
    </g>
    <g id="text_20">
     <!-- 领导节点发布错误区块的概率=0.5 -->
     <g transform="translate(109 309.9)scale(0.12 -0.12)">
      <defs>
       <path d="M 8.59375 20.703125 
Q 11.328125 10.15625 17.96875 8.984375 
Q 24.609375 7.8125 28.703125 10.34375 
Q 32.8125 12.890625 34.5625 16.984375 
Q 36.328125 21.09375 36.125 26.171875 
Q 35.9375 31.25 33.390625 34.765625 
Q 30.859375 38.28125 26.953125 39.453125 
Q 23.046875 40.625 18.15625 39.453125 
Q 13.28125 38.28125 10.15625 33.984375 
L 3.515625 34.765625 
Q 4.296875 37.109375 10.9375 68.359375 
L 41.796875 68.359375 
L 41.796875 61.328125 
L 16.796875 61.328125 
Q 14.84375 50.78125 12.890625 44.53125 
Q 18.75 47.265625 23.828125 47.0625 
Q 28.90625 46.875 33.59375 44.71875 
Q 38.28125 42.578125 40.421875 38.859375 
Q 42.578125 35.15625 43.546875 31.4375 
Q 44.53125 27.734375 44.328125 23.4375 
Q 44.140625 19.140625 42.578125 14.640625 
Q 41.015625 10.15625 37.890625 7.21875 
Q 34.765625 4.296875 30.265625 2.53125 
Q 25.78125 0.78125 19.921875 1.171875 
Q 14.0625 1.5625 8.78125 5.46875 
Q 3.515625 9.375 1.5625 18.75 
z
" id="SimHei-53"/>
      </defs>
      <use xlink:href="#SimHei-39046"/>
      <use x="100" xlink:href="#SimHei-23548"/>
      <use x="200" xlink:href="#SimHei-33410"/>
      <use x="300" xlink:href="#SimHei-28857"/>
      <use x="400" xlink:href="#SimHei-21457"/>
      <use x="500" xlink:href="#SimHei-24067"/>
      <use x="600" xlink:href="#SimHei-38169"/>
      <use x="700" xlink:href="#SimHei-35823"/>
      <use x="800" xlink:href="#SimHei-21306"/>
      <use x="900" xlink:href="#SimHei-22359"/>
      <use x="1000" xlink:href="#SimHei-30340"/>
      <use x="1100" xlink:href="#SimHei-27010"/>
      <use x="1200" xlink:href="#SimHei-29575"/>
      <use x="1300" xlink:href="#SimHei-61"/>
      <use x="1350" xlink:href="#SimHei-48"/>
      <use x="1400" xlink:href="#SimHei-46"/>
      <use x="1450" xlink:href="#SimHei-53"/>
     </g>
    </g>
   </g>
  </g>
 </g>
 <defs>
  <clipPath id="pb05c354118">
   <rect height="277.2" width="446.4" x="72" y="43.2"/>
  </clipPath>
 </defs>
</svg>
