<?xml version="1.0" encoding="utf-8" standalone="no"?>
<!DOCTYPE svg PUBLIC "-//W3C//DTD SVG 1.1//EN"
  "http://www.w3.org/Graphics/SVG/1.1/DTD/svg11.dtd">
<!-- Created with matplotlib (https://matplotlib.org/) -->
<svg height="360pt" version="1.1" viewBox="0 0 576 360" width="576pt" xmlns="http://www.w3.org/2000/svg" xmlns:xlink="http://www.w3.org/1999/xlink">
 <metadata>
  <rdf:RDF xmlns:cc="http://creativecommons.org/ns#" xmlns:dc="http://purl.org/dc/elements/1.1/" xmlns:rdf="http://www.w3.org/1999/02/22-rdf-syntax-ns#">
   <cc:Work>
    <dc:type rdf:resource="http://purl.org/dc/dcmitype/StillImage"/>
    <dc:date>2021-03-29T00:25:36.819567</dc:date>
    <dc:format>image/svg+xml</dc:format>
    <dc:creator>
     <cc:Agent>
      <dc:title>Matplotlib v3.3.4, https://matplotlib.org/</dc:title>
     </cc:Agent>
    </dc:creator>
   </cc:Work>
  </rdf:RDF>
 </metadata>
 <defs>
  <style type="text/css">*{stroke-linecap:butt;stroke-linejoin:round;}</style>
 </defs>
 <g id="figure_1">
  <g id="patch_1">
   <path d="M 0 360 
L 576 360 
L 576 0 
L 0 0 
z
" style="fill:#ffffff;"/>
  </g>
  <g id="axes_1">
   <g id="patch_2">
    <path d="M 72 320.4 
L 518.4 320.4 
L 518.4 43.2 
L 72 43.2 
z
" style="fill:#ffffff;"/>
   </g>
   <g id="matplotlib.axis_1">
    <g id="xtick_1">
     <g id="line2d_1">
      <path clip-path="url(#p86d1accf12)" d="M 137.381818 320.4 
L 137.381818 43.2 
" style="fill:none;stroke:#b0b0b0;stroke-dasharray:2.96,1.28;stroke-dashoffset:0;stroke-width:0.8;"/>
     </g>
     <g id="line2d_2">
      <defs>
       <path d="M 0 0 
L 0 3.5 
" id="m1d45ec5aa4" style="stroke:#000000;stroke-width:0.8;"/>
      </defs>
      <g>
       <use style="stroke:#000000;stroke-width:0.8;" x="137.381818" xlink:href="#m1d45ec5aa4" y="320.4"/>
      </g>
     </g>
     <g id="text_1">
      <!-- 0.2 -->
      <g transform="translate(126.753381 336.518125)scale(0.12 -0.12)">
       <defs>
        <path d="M 46 36.53125 
Q 46 50.203125 43.4375 55.78125 
Q 40.875 61.375 34.8125 61.375 
Q 28.765625 61.375 26.171875 55.78125 
Q 23.578125 50.203125 23.578125 36.53125 
Q 23.578125 22.703125 26.171875 17.03125 
Q 28.765625 11.375 34.8125 11.375 
Q 40.828125 11.375 43.40625 17.03125 
Q 46 22.703125 46 36.53125 
z
M 64.796875 36.375 
Q 64.796875 18.265625 56.984375 8.421875 
Q 49.171875 -1.421875 34.8125 -1.421875 
Q 20.40625 -1.421875 12.59375 8.421875 
Q 4.78125 18.265625 4.78125 36.375 
Q 4.78125 54.546875 12.59375 64.375 
Q 20.40625 74.21875 34.8125 74.21875 
Q 49.171875 74.21875 56.984375 64.375 
Q 64.796875 54.546875 64.796875 36.375 
z
" id="DejaVuSans-Bold-48"/>
        <path d="M 10.203125 18.890625 
L 27.78125 18.890625 
L 27.78125 0 
L 10.203125 0 
z
" id="DejaVuSans-Bold-46"/>
        <path d="M 28.8125 13.8125 
L 60.890625 13.8125 
L 60.890625 0 
L 7.90625 0 
L 7.90625 13.8125 
L 34.515625 37.3125 
Q 38.09375 40.53125 39.796875 43.609375 
Q 41.5 46.6875 41.5 50 
Q 41.5 55.125 38.0625 58.25 
Q 34.625 61.375 28.90625 61.375 
Q 24.515625 61.375 19.28125 59.5 
Q 14.0625 57.625 8.109375 53.90625 
L 8.109375 69.921875 
Q 14.453125 72.015625 20.65625 73.109375 
Q 26.859375 74.21875 32.8125 74.21875 
Q 45.90625 74.21875 53.15625 68.453125 
Q 60.40625 62.703125 60.40625 52.390625 
Q 60.40625 46.4375 57.328125 41.28125 
Q 54.25 36.140625 44.390625 27.484375 
z
" id="DejaVuSans-Bold-50"/>
       </defs>
       <use xlink:href="#DejaVuSans-Bold-48"/>
       <use x="69.580078" xlink:href="#DejaVuSans-Bold-46"/>
       <use x="107.568359" xlink:href="#DejaVuSans-Bold-50"/>
      </g>
     </g>
    </g>
    <g id="xtick_2">
     <g id="line2d_3">
      <path clip-path="url(#p86d1accf12)" d="M 227.563636 320.4 
L 227.563636 43.2 
" style="fill:none;stroke:#b0b0b0;stroke-dasharray:2.96,1.28;stroke-dashoffset:0;stroke-width:0.8;"/>
     </g>
     <g id="line2d_4">
      <g>
       <use style="stroke:#000000;stroke-width:0.8;" x="227.563636" xlink:href="#m1d45ec5aa4" y="320.4"/>
      </g>
     </g>
     <g id="text_2">
      <!-- 0.4 -->
      <g transform="translate(216.935199 336.518125)scale(0.12 -0.12)">
       <defs>
        <path d="M 36.8125 57.421875 
L 16.21875 26.90625 
L 36.8125 26.90625 
z
M 33.6875 72.90625 
L 54.59375 72.90625 
L 54.59375 26.90625 
L 64.984375 26.90625 
L 64.984375 13.28125 
L 54.59375 13.28125 
L 54.59375 0 
L 36.8125 0 
L 36.8125 13.28125 
L 4.5 13.28125 
L 4.5 29.390625 
z
" id="DejaVuSans-Bold-52"/>
       </defs>
       <use xlink:href="#DejaVuSans-Bold-48"/>
       <use x="69.580078" xlink:href="#DejaVuSans-Bold-46"/>
       <use x="107.568359" xlink:href="#DejaVuSans-Bold-52"/>
      </g>
     </g>
    </g>
    <g id="xtick_3">
     <g id="line2d_5">
      <path clip-path="url(#p86d1accf12)" d="M 317.745455 320.4 
L 317.745455 43.2 
" style="fill:none;stroke:#b0b0b0;stroke-dasharray:2.96,1.28;stroke-dashoffset:0;stroke-width:0.8;"/>
     </g>
     <g id="line2d_6">
      <g>
       <use style="stroke:#000000;stroke-width:0.8;" x="317.745455" xlink:href="#m1d45ec5aa4" y="320.4"/>
      </g>
     </g>
     <g id="text_3">
      <!-- 0.6 -->
      <g transform="translate(307.117017 336.518125)scale(0.12 -0.12)">
       <defs>
        <path d="M 36.1875 35.984375 
Q 31.25 35.984375 28.78125 32.78125 
Q 26.3125 29.59375 26.3125 23.1875 
Q 26.3125 16.796875 28.78125 13.59375 
Q 31.25 10.40625 36.1875 10.40625 
Q 41.15625 10.40625 43.625 13.59375 
Q 46.09375 16.796875 46.09375 23.1875 
Q 46.09375 29.59375 43.625 32.78125 
Q 41.15625 35.984375 36.1875 35.984375 
z
M 59.421875 71 
L 59.421875 57.515625 
Q 54.78125 59.71875 50.671875 60.765625 
Q 46.578125 61.8125 42.671875 61.8125 
Q 34.28125 61.8125 29.59375 57.140625 
Q 24.90625 52.484375 24.125 43.3125 
Q 27.34375 45.703125 31.09375 46.890625 
Q 34.859375 48.09375 39.3125 48.09375 
Q 50.484375 48.09375 57.34375 41.546875 
Q 64.203125 35.015625 64.203125 24.421875 
Q 64.203125 12.703125 56.53125 5.640625 
Q 48.875 -1.421875 35.984375 -1.421875 
Q 21.78125 -1.421875 13.984375 8.171875 
Q 6.203125 17.78125 6.203125 35.40625 
Q 6.203125 53.46875 15.3125 63.796875 
Q 24.421875 74.125 40.28125 74.125 
Q 45.3125 74.125 50.046875 73.34375 
Q 54.78125 72.5625 59.421875 71 
z
" id="DejaVuSans-Bold-54"/>
       </defs>
       <use xlink:href="#DejaVuSans-Bold-48"/>
       <use x="69.580078" xlink:href="#DejaVuSans-Bold-46"/>
       <use x="107.568359" xlink:href="#DejaVuSans-Bold-54"/>
      </g>
     </g>
    </g>
    <g id="xtick_4">
     <g id="line2d_7">
      <path clip-path="url(#p86d1accf12)" d="M 407.927273 320.4 
L 407.927273 43.2 
" style="fill:none;stroke:#b0b0b0;stroke-dasharray:2.96,1.28;stroke-dashoffset:0;stroke-width:0.8;"/>
     </g>
     <g id="line2d_8">
      <g>
       <use style="stroke:#000000;stroke-width:0.8;" x="407.927273" xlink:href="#m1d45ec5aa4" y="320.4"/>
      </g>
     </g>
     <g id="text_4">
      <!-- 0.8 -->
      <g transform="translate(397.298835 336.518125)scale(0.12 -0.12)">
       <defs>
        <path d="M 34.8125 32.625 
Q 29.546875 32.625 26.703125 29.734375 
Q 23.875 26.859375 23.875 21.484375 
Q 23.875 16.109375 26.703125 13.25 
Q 29.546875 10.40625 34.8125 10.40625 
Q 40.046875 10.40625 42.828125 13.25 
Q 45.609375 16.109375 45.609375 21.484375 
Q 45.609375 26.90625 42.828125 29.765625 
Q 40.046875 32.625 34.8125 32.625 
z
M 21.09375 38.8125 
Q 14.453125 40.828125 11.078125 44.96875 
Q 7.71875 49.125 7.71875 55.328125 
Q 7.71875 64.546875 14.59375 69.375 
Q 21.484375 74.21875 34.8125 74.21875 
Q 48.046875 74.21875 54.921875 69.40625 
Q 61.8125 64.59375 61.8125 55.328125 
Q 61.8125 49.125 58.421875 44.96875 
Q 55.03125 40.828125 48.390625 38.8125 
Q 55.8125 36.765625 59.59375 32.15625 
Q 63.375 27.546875 63.375 20.515625 
Q 63.375 9.671875 56.171875 4.125 
Q 48.96875 -1.421875 34.8125 -1.421875 
Q 20.609375 -1.421875 13.359375 4.125 
Q 6.109375 9.671875 6.109375 20.515625 
Q 6.109375 27.546875 9.890625 32.15625 
Q 13.671875 36.765625 21.09375 38.8125 
z
M 25.484375 53.421875 
Q 25.484375 49.078125 27.90625 46.734375 
Q 30.328125 44.390625 34.8125 44.390625 
Q 39.203125 44.390625 41.59375 46.734375 
Q 44 49.078125 44 53.421875 
Q 44 57.765625 41.59375 60.078125 
Q 39.203125 62.40625 34.8125 62.40625 
Q 30.328125 62.40625 27.90625 60.0625 
Q 25.484375 57.71875 25.484375 53.421875 
z
" id="DejaVuSans-Bold-56"/>
       </defs>
       <use xlink:href="#DejaVuSans-Bold-48"/>
       <use x="69.580078" xlink:href="#DejaVuSans-Bold-46"/>
       <use x="107.568359" xlink:href="#DejaVuSans-Bold-56"/>
      </g>
     </g>
    </g>
    <g id="xtick_5">
     <g id="line2d_9">
      <path clip-path="url(#p86d1accf12)" d="M 498.109091 320.4 
L 498.109091 43.2 
" style="fill:none;stroke:#b0b0b0;stroke-dasharray:2.96,1.28;stroke-dashoffset:0;stroke-width:0.8;"/>
     </g>
     <g id="line2d_10">
      <g>
       <use style="stroke:#000000;stroke-width:0.8;" x="498.109091" xlink:href="#m1d45ec5aa4" y="320.4"/>
      </g>
     </g>
     <g id="text_5">
      <!-- 1.0 -->
      <g transform="translate(487.480653 336.518125)scale(0.12 -0.12)">
       <defs>
        <path d="M 11.71875 12.984375 
L 28.328125 12.984375 
L 28.328125 60.109375 
L 11.28125 56.59375 
L 11.28125 69.390625 
L 28.21875 72.90625 
L 46.09375 72.90625 
L 46.09375 12.984375 
L 62.703125 12.984375 
L 62.703125 0 
L 11.71875 0 
z
" id="DejaVuSans-Bold-49"/>
       </defs>
       <use xlink:href="#DejaVuSans-Bold-49"/>
       <use x="69.580078" xlink:href="#DejaVuSans-Bold-46"/>
       <use x="107.568359" xlink:href="#DejaVuSans-Bold-48"/>
      </g>
     </g>
    </g>
    <g id="text_6">
     <!-- 全节点的活跃度 -->
     <g transform="translate(249.7 353.423906)scale(0.13 -0.13)">
      <defs>
       <path d="M 54.296875 75.390625 
Q 67.96875 53.515625 95.703125 47.265625 
Q 92.1875 42.96875 91.015625 38.28125 
Q 83.203125 41.40625 77.734375 44.921875 
L 77.734375 38.671875 
Q 73.4375 39.0625 64.0625 39.0625 
L 54.6875 39.0625 
L 54.6875 23.4375 
L 69.53125 23.4375 
Q 77.734375 23.4375 82.8125 23.828125 
L 82.8125 16.796875 
Q 77.734375 17.1875 69.53125 17.1875 
L 54.6875 17.1875 
L 54.6875 -0.390625 
L 69.921875 -0.390625 
Q 81.640625 -0.390625 89.0625 0.390625 
L 89.0625 -7.8125 
Q 82.03125 -6.640625 70.703125 -6.640625 
L 27.734375 -6.640625 
Q 16.015625 -6.640625 10.15625 -7.03125 
L 10.15625 0 
Q 16.015625 -0.390625 27.734375 -0.390625 
L 46.875 -0.390625 
L 46.875 17.1875 
L 35.9375 17.1875 
Q 22.65625 17.1875 18.359375 16.796875 
L 18.359375 23.828125 
Q 22.65625 23.4375 35.546875 23.4375 
L 46.875 23.4375 
L 46.875 39.0625 
L 39.0625 39.0625 
Q 26.953125 39.0625 23.4375 38.671875 
L 23.4375 44.921875 
Q 19.921875 42.1875 10.15625 36.71875 
Q 7.8125 41.40625 4.6875 44.921875 
Q 14.0625 47.265625 26.5625 56.640625 
Q 39.0625 66.015625 46.484375 81.25 
Q 51.171875 79.296875 56.25 77.34375 
z
M 25.78125 46.09375 
Q 30.46875 45.703125 39.453125 45.703125 
L 62.890625 45.703125 
Q 70.703125 45.703125 75 46.09375 
Q 58.203125 54.6875 50 71.09375 
Q 39.453125 55.078125 25.78125 46.09375 
z
" id="SimHei-20840"/>
       <path d="M 65.625 3.125 
Q 64.84375 7.8125 61.71875 12.5 
Q 69.53125 12.5 73.625 13.28125 
Q 77.734375 14.0625 78.125 17.96875 
L 78.90625 39.0625 
L 45.703125 39.0625 
L 45.703125 5.078125 
Q 45.703125 -1.953125 46.09375 -9.375 
L 37.109375 -9.375 
Q 37.890625 -2.34375 37.890625 5.078125 
L 37.890625 39.0625 
L 29.296875 39.0625 
Q 16.40625 39.0625 8.59375 38.671875 
L 8.59375 46.09375 
Q 16.796875 45.703125 25.390625 45.703125 
L 87.890625 45.703125 
Q 86.71875 29.296875 86.328125 19.140625 
Q 85.9375 8.984375 80.46875 6.4375 
Q 75 3.90625 65.625 3.125 
z
M 38.671875 61.71875 
Q 38.671875 54.6875 39.0625 49.609375 
L 30.46875 49.609375 
Q 30.859375 55.46875 30.859375 61.71875 
L 17.578125 61.71875 
Q 12.109375 61.71875 5.46875 60.9375 
L 5.46875 68.75 
Q 12.109375 68.359375 17.578125 68.359375 
L 30.859375 68.359375 
Q 30.859375 75.78125 30.46875 80.859375 
L 39.0625 80.859375 
Q 38.671875 75.78125 38.671875 68.359375 
L 59.375 68.359375 
Q 59.375 76.171875 58.984375 80.859375 
L 67.96875 80.859375 
Q 67.578125 76.171875 67.578125 68.359375 
L 80.078125 68.359375 
Q 87.5 68.359375 93.75 68.75 
L 93.75 61.328125 
Q 87.5 61.71875 80.078125 61.71875 
L 67.578125 61.71875 
Q 67.578125 55.46875 67.96875 49.609375 
L 58.984375 49.609375 
Q 59.375 55.859375 59.375 61.71875 
z
" id="SimHei-33410"/>
       <path d="M 51.953125 81.25 
Q 51.5625 76.953125 51.5625 68.359375 
L 76.5625 68.359375 
Q 82.421875 68.359375 89.453125 68.75 
L 89.453125 61.328125 
Q 82.8125 61.71875 76.5625 61.71875 
L 51.5625 61.71875 
L 51.5625 50.390625 
L 81.640625 50.390625 
Q 81.25 42.1875 81.25 33.59375 
Q 81.25 25.390625 81.640625 18.359375 
L 18.359375 18.359375 
Q 18.75 25.390625 18.75 33.984375 
Q 18.75 42.578125 18.359375 50.390625 
L 43.359375 50.390625 
L 43.359375 70.3125 
Q 43.359375 76.5625 42.96875 81.25 
L 51.953125 81.25 
z
M 73.4375 25 
L 73.4375 43.75 
L 26.953125 43.75 
L 26.953125 25 
z
M 23.4375 11.71875 
Q 16.015625 -3.90625 12.890625 -9.765625 
Q 9.765625 -7.421875 5.078125 -5.859375 
Q 10.15625 0.78125 14.84375 14.453125 
Q 18.75 12.5 23.4375 11.71875 
z
M 83.203125 13.28125 
Q 90.234375 2.34375 94.921875 -5.46875 
Q 92.578125 -6.640625 87.109375 -9.765625 
Q 83.984375 -2.34375 76.5625 8.984375 
Q 80.46875 10.9375 83.203125 13.28125 
z
M 62.109375 -8.984375 
Q 58.984375 -1.5625 53.125 8.984375 
Q 55.859375 10.546875 59.765625 12.890625 
Q 67.96875 -1.171875 69.53125 -5.078125 
Q 65.625 -7.03125 62.109375 -8.984375 
z
M 37.109375 -8.984375 
Q 36.71875 -4.6875 30.859375 8.59375 
Q 34.375 9.765625 37.890625 12.109375 
Q 43.75 -1.171875 45.3125 -5.46875 
Q 41.015625 -7.03125 37.109375 -8.984375 
z
" id="SimHei-28857"/>
       <path d="M 32.8125 77.734375 
Q 30.859375 74.21875 27.34375 61.71875 
L 44.921875 61.71875 
Q 44.53125 55.078125 44.53125 44.921875 
L 44.53125 10.546875 
Q 44.53125 4.6875 44.921875 -6.25 
L 37.109375 -6.25 
L 37.109375 1.5625 
L 17.1875 1.5625 
L 17.1875 -7.03125 
L 9.375 -7.03125 
Q 9.765625 5.46875 9.765625 8.59375 
L 9.765625 44.53125 
Q 9.765625 55.078125 9.375 61.71875 
L 20.703125 61.71875 
Q 22.65625 70.703125 23.828125 80.46875 
Q 29.296875 78.515625 32.8125 77.734375 
z
M 91.015625 48.046875 
Q 90.625 24.21875 89.0625 2.734375 
Q 88.28125 -4.296875 81.640625 -6.640625 
Q 75 -8.984375 66.796875 -9.765625 
Q 66.40625 -5.46875 63.28125 -0.78125 
Q 71.09375 -1.171875 75.578125 -0.390625 
Q 80.078125 0.390625 81.25 3.125 
Q 82.421875 5.859375 83 19.140625 
Q 83.59375 32.421875 83.984375 56.25 
L 61.328125 56.25 
Q 58.203125 48.828125 52.34375 38.671875 
Q 49.609375 41.40625 45.703125 42.96875 
Q 49.21875 47.65625 52.34375 54.296875 
Q 55.46875 60.9375 57.8125 68.75 
Q 60.15625 76.5625 60.546875 80.859375 
Q 66.015625 78.515625 69.921875 77.34375 
Q 67.96875 74.21875 66.59375 70.5 
Q 65.234375 66.796875 63.671875 63.28125 
L 91.40625 63.28125 
Q 91.015625 55.078125 91.015625 48.046875 
z
M 37.109375 8.203125 
L 37.109375 28.90625 
L 17.1875 28.90625 
L 17.1875 8.203125 
z
M 37.109375 35.546875 
L 37.109375 55.078125 
L 17.1875 55.078125 
L 17.1875 35.546875 
z
M 67.96875 32.03125 
Q 70.3125 27.34375 73.4375 19.921875 
Q 70.703125 18.75 66.015625 16.015625 
Q 63.28125 23.4375 60.9375 28.703125 
Q 58.59375 33.984375 56.25 37.5 
Q 58.984375 39.0625 63.28125 41.40625 
z
" id="SimHei-30340"/>
       <path d="M 83.984375 78.125 
Q 85.9375 74.609375 89.453125 70.703125 
Q 83.203125 69.921875 77.921875 69.140625 
Q 72.65625 68.359375 66.40625 67.578125 
L 66.40625 51.171875 
L 83.203125 51.171875 
Q 89.453125 51.171875 94.921875 51.5625 
L 94.921875 44.53125 
Q 90.234375 44.921875 83.203125 44.921875 
L 66.40625 44.921875 
L 66.40625 28.515625 
L 88.28125 28.515625 
Q 87.890625 21.09375 87.890625 8.59375 
Q 87.890625 -3.90625 88.28125 -8.59375 
L 80.46875 -8.59375 
L 80.46875 -1.171875 
L 46.484375 -1.171875 
L 46.484375 -8.984375 
L 39.0625 -8.984375 
Q 39.453125 -3.90625 39.453125 9.765625 
Q 39.453125 23.828125 39.0625 28.515625 
L 58.984375 28.515625 
L 58.984375 44.921875 
L 46.484375 44.921875 
Q 37.890625 44.921875 31.640625 44.53125 
L 31.640625 51.5625 
Q 38.28125 51.171875 46.875 51.171875 
L 58.984375 51.171875 
L 58.984375 66.015625 
Q 48.4375 64.84375 38.671875 63.28125 
Q 38.28125 67.578125 35.546875 70.703125 
Q 44.140625 70.3125 61.90625 73.046875 
Q 79.6875 75.78125 83.984375 78.125 
z
M 80.46875 5.078125 
L 80.46875 22.265625 
L 46.484375 22.265625 
L 46.484375 5.078125 
z
M 32.421875 26.953125 
Q 26.5625 15.625 21.875 5.859375 
Q 17.1875 -3.90625 14.84375 -8.203125 
Q 10.9375 -5.078125 6.25 -3.125 
Q 9.375 0.390625 14.0625 7.8125 
Q 18.75 15.234375 25.78125 32.03125 
Q 29.296875 28.515625 32.421875 26.953125 
z
M 11.328125 54.296875 
Q 19.53125 48.828125 29.6875 41.796875 
Q 26.953125 38.671875 24.21875 35.15625 
Q 14.84375 42.578125 6.25 48.046875 
Q 8.984375 51.171875 11.328125 54.296875 
z
M 17.1875 78.515625 
Q 25.390625 73.046875 33.59375 66.015625 
Q 29.6875 62.890625 27.734375 59.765625 
Q 21.875 66.015625 11.71875 72.65625 
Q 14.453125 75.390625 17.1875 78.515625 
z
" id="SimHei-27963"/>
       <path d="M 9.765625 30.46875 
Q 9.765625 34.765625 9.375 39.453125 
L 17.1875 39.453125 
Q 16.796875 34.765625 16.796875 30.46875 
L 16.796875 8.203125 
L 23.828125 9.375 
L 23.828125 47.65625 
L 11.328125 47.65625 
Q 11.71875 55.078125 11.71875 62.890625 
Q 11.71875 71.09375 11.328125 78.515625 
L 41.796875 78.515625 
Q 41.40625 71.09375 41.40625 62.890625 
Q 41.40625 55.078125 41.796875 47.65625 
L 30.859375 47.65625 
L 30.859375 34.765625 
Q 35.9375 34.765625 41.796875 35.15625 
L 41.796875 28.515625 
Q 35.9375 28.90625 30.859375 28.90625 
L 30.859375 10.9375 
L 43.359375 14.0625 
L 43.359375 7.421875 
Q 20.703125 1.953125 16.015625 0.578125 
Q 11.328125 -0.78125 6.640625 -2.734375 
Q 5.078125 1.953125 3.515625 5.859375 
Q 6.640625 6.25 9.765625 7.03125 
z
M 33.984375 -4.6875 
Q 40.625 -1.171875 45.5 3.515625 
Q 50.390625 8.203125 53.703125 13.859375 
Q 57.03125 19.53125 58.984375 25.96875 
Q 60.9375 32.421875 61.71875 39.0625 
Q 47.65625 39.0625 42.578125 38.671875 
L 42.578125 45.3125 
Q 50.390625 44.921875 62.5 44.921875 
L 62.5 67.96875 
Q 56.640625 67.1875 47.265625 65.234375 
Q 46.875 69.140625 44.53125 72.265625 
Q 53.515625 72.65625 65.8125 75 
Q 78.125 77.34375 82.03125 80.078125 
Q 83.984375 76.953125 87.890625 73.046875 
Q 83.59375 71.875 69.53125 69.53125 
L 69.53125 44.921875 
Q 86.328125 44.921875 92.1875 45.3125 
L 92.1875 38.671875 
Q 85.9375 39.0625 70.703125 39.0625 
Q 71.09375 32.421875 75.96875 21.671875 
Q 80.859375 10.9375 86.328125 5.46875 
Q 91.796875 0 96.484375 -2.734375 
Q 92.1875 -4.296875 89.453125 -8.59375 
Q 81.640625 -1.953125 77.34375 4.296875 
Q 73.046875 10.546875 70.703125 15.625 
Q 68.359375 20.703125 66.796875 26.953125 
Q 64.0625 16.40625 59.171875 8.59375 
Q 54.296875 0.78125 41.40625 -9.765625 
Q 37.890625 -7.03125 33.984375 -4.6875 
z
M 34.765625 53.90625 
L 34.765625 72.265625 
L 18.359375 72.265625 
L 18.359375 53.90625 
z
" id="SimHei-36291"/>
       <path d="M 27.34375 26.171875 
Q 38.28125 25.78125 44.921875 25.78125 
L 81.25 25.78125 
Q 77.734375 19.53125 72.65625 13.28125 
Q 67.578125 7.03125 62.890625 3.125 
Q 67.96875 0.78125 77.34375 -0.78125 
Q 86.71875 -2.34375 95.3125 -2.34375 
Q 92.96875 -4.6875 91.015625 -10.15625 
Q 79.6875 -8.59375 71.09375 -6.4375 
Q 62.5 -4.296875 56.640625 -1.5625 
Q 48.4375 -5.078125 40.421875 -7.21875 
Q 32.421875 -9.375 23.828125 -10.546875 
Q 22.65625 -7.421875 19.140625 -3.90625 
Q 26.171875 -3.90625 35.15625 -1.953125 
Q 44.140625 0 50.78125 3.125 
Q 44.140625 8.59375 37.5 19.921875 
L 27.34375 19.53125 
z
M 46.484375 79.296875 
Q 50.78125 80.46875 54.296875 82.03125 
Q 56.640625 77.734375 58.984375 70.703125 
L 73.4375 70.703125 
Q 77.734375 70.703125 89.0625 71.09375 
L 89.0625 64.0625 
Q 78.125 64.453125 72.65625 64.453125 
L 21.484375 64.453125 
Q 21.484375 46.875 21.09375 36.125 
Q 20.703125 25.390625 18.9375 14.84375 
Q 17.1875 4.296875 11.328125 -8.203125 
Q 7.8125 -5.859375 3.90625 -4.6875 
Q 10.15625 6.25 11.90625 16.796875 
Q 13.671875 27.34375 13.859375 43.75 
Q 14.0625 60.15625 13.671875 70.703125 
L 50 70.703125 
Q 48.4375 75.78125 46.484375 79.296875 
z
M 38.671875 51.5625 
Q 38.671875 57.8125 38.28125 61.328125 
L 46.484375 61.328125 
Q 46.09375 58.203125 46.09375 51.5625 
L 67.1875 51.5625 
Q 67.1875 57.8125 66.796875 61.71875 
L 75 61.71875 
Q 74.609375 57.03125 74.609375 51.5625 
Q 83.203125 51.5625 89.453125 51.953125 
L 89.453125 45.3125 
Q 83.59375 45.703125 74.609375 45.703125 
Q 74.609375 35.15625 75 30.46875 
L 38.28125 30.46875 
Q 38.671875 36.71875 38.671875 45.703125 
Q 33.984375 45.703125 25 45.3125 
L 25 51.953125 
Q 33.984375 51.5625 38.671875 51.5625 
z
M 67.1875 36.71875 
L 67.1875 45.703125 
L 46.09375 45.703125 
L 46.09375 36.71875 
z
M 44.921875 19.921875 
Q 50 12.109375 57.03125 6.640625 
Q 62.890625 10.9375 69.140625 19.921875 
L 45.3125 19.921875 
z
" id="SimHei-24230"/>
      </defs>
      <use xlink:href="#SimHei-20840"/>
      <use x="100" xlink:href="#SimHei-33410"/>
      <use x="200" xlink:href="#SimHei-28857"/>
      <use x="300" xlink:href="#SimHei-30340"/>
      <use x="400" xlink:href="#SimHei-27963"/>
      <use x="500" xlink:href="#SimHei-36291"/>
      <use x="600" xlink:href="#SimHei-24230"/>
     </g>
    </g>
   </g>
   <g id="matplotlib.axis_2">
    <g id="ytick_1">
     <g id="line2d_11">
      <path clip-path="url(#p86d1accf12)" d="M 72 314.1 
L 518.4 314.1 
" style="fill:none;stroke:#b0b0b0;stroke-dasharray:2.96,1.28;stroke-dashoffset:0;stroke-width:0.8;"/>
     </g>
     <g id="line2d_12">
      <defs>
       <path d="M 0 0 
L -3.5 0 
" id="m6c20bea9fa" style="stroke:#000000;stroke-width:0.8;"/>
      </defs>
      <g>
       <use style="stroke:#000000;stroke-width:0.8;" x="72" xlink:href="#m6c20bea9fa" y="314.1"/>
      </g>
     </g>
     <g id="text_7">
      <!-- 0.5 -->
      <g transform="translate(43.743125 318.659063)scale(0.12 -0.12)">
       <defs>
        <path d="M 10.59375 72.90625 
L 57.328125 72.90625 
L 57.328125 59.078125 
L 25.59375 59.078125 
L 25.59375 47.796875 
Q 27.734375 48.390625 29.90625 48.703125 
Q 32.078125 49.03125 34.421875 49.03125 
Q 47.75 49.03125 55.171875 42.359375 
Q 62.59375 35.6875 62.59375 23.78125 
Q 62.59375 11.96875 54.515625 5.265625 
Q 46.4375 -1.421875 32.078125 -1.421875 
Q 25.875 -1.421875 19.796875 -0.21875 
Q 13.71875 0.984375 7.71875 3.421875 
L 7.71875 18.21875 
Q 13.671875 14.796875 19.015625 13.078125 
Q 24.359375 11.375 29.109375 11.375 
Q 35.9375 11.375 39.859375 14.71875 
Q 43.796875 18.0625 43.796875 23.78125 
Q 43.796875 29.546875 39.859375 32.859375 
Q 35.9375 36.1875 29.109375 36.1875 
Q 25.046875 36.1875 20.453125 35.125 
Q 15.875 34.078125 10.59375 31.890625 
z
" id="DejaVuSans-Bold-53"/>
       </defs>
       <use xlink:href="#DejaVuSans-Bold-48"/>
       <use x="69.580078" xlink:href="#DejaVuSans-Bold-46"/>
       <use x="107.568359" xlink:href="#DejaVuSans-Bold-53"/>
      </g>
     </g>
    </g>
    <g id="ytick_2">
     <g id="line2d_13">
      <path clip-path="url(#p86d1accf12)" d="M 72 257.4 
L 518.4 257.4 
" style="fill:none;stroke:#b0b0b0;stroke-dasharray:2.96,1.28;stroke-dashoffset:0;stroke-width:0.8;"/>
     </g>
     <g id="line2d_14">
      <g>
       <use style="stroke:#000000;stroke-width:0.8;" x="72" xlink:href="#m6c20bea9fa" y="257.4"/>
      </g>
     </g>
     <g id="text_8">
      <!-- 1.0 -->
      <g transform="translate(43.743125 261.959063)scale(0.12 -0.12)">
       <use xlink:href="#DejaVuSans-Bold-49"/>
       <use x="69.580078" xlink:href="#DejaVuSans-Bold-46"/>
       <use x="107.568359" xlink:href="#DejaVuSans-Bold-48"/>
      </g>
     </g>
    </g>
    <g id="ytick_3">
     <g id="line2d_15">
      <path clip-path="url(#p86d1accf12)" d="M 72 200.7 
L 518.4 200.7 
" style="fill:none;stroke:#b0b0b0;stroke-dasharray:2.96,1.28;stroke-dashoffset:0;stroke-width:0.8;"/>
     </g>
     <g id="line2d_16">
      <g>
       <use style="stroke:#000000;stroke-width:0.8;" x="72" xlink:href="#m6c20bea9fa" y="200.7"/>
      </g>
     </g>
     <g id="text_9">
      <!-- 1.5 -->
      <g transform="translate(43.743125 205.259062)scale(0.12 -0.12)">
       <use xlink:href="#DejaVuSans-Bold-49"/>
       <use x="69.580078" xlink:href="#DejaVuSans-Bold-46"/>
       <use x="107.568359" xlink:href="#DejaVuSans-Bold-53"/>
      </g>
     </g>
    </g>
    <g id="ytick_4">
     <g id="line2d_17">
      <path clip-path="url(#p86d1accf12)" d="M 72 144 
L 518.4 144 
" style="fill:none;stroke:#b0b0b0;stroke-dasharray:2.96,1.28;stroke-dashoffset:0;stroke-width:0.8;"/>
     </g>
     <g id="line2d_18">
      <g>
       <use style="stroke:#000000;stroke-width:0.8;" x="72" xlink:href="#m6c20bea9fa" y="144"/>
      </g>
     </g>
     <g id="text_10">
      <!-- 2.0 -->
      <g transform="translate(43.743125 148.559063)scale(0.12 -0.12)">
       <use xlink:href="#DejaVuSans-Bold-50"/>
       <use x="69.580078" xlink:href="#DejaVuSans-Bold-46"/>
       <use x="107.568359" xlink:href="#DejaVuSans-Bold-48"/>
      </g>
     </g>
    </g>
    <g id="ytick_5">
     <g id="line2d_19">
      <path clip-path="url(#p86d1accf12)" d="M 72 87.3 
L 518.4 87.3 
" style="fill:none;stroke:#b0b0b0;stroke-dasharray:2.96,1.28;stroke-dashoffset:0;stroke-width:0.8;"/>
     </g>
     <g id="line2d_20">
      <g>
       <use style="stroke:#000000;stroke-width:0.8;" x="72" xlink:href="#m6c20bea9fa" y="87.3"/>
      </g>
     </g>
     <g id="text_11">
      <!-- 2.5 -->
      <g transform="translate(43.743125 91.859062)scale(0.12 -0.12)">
       <use xlink:href="#DejaVuSans-Bold-50"/>
       <use x="69.580078" xlink:href="#DejaVuSans-Bold-46"/>
       <use x="107.568359" xlink:href="#DejaVuSans-Bold-53"/>
      </g>
     </g>
    </g>
    <g id="text_12">
     <!-- 共识阶段的轮数 -->
     <g transform="translate(38.118125 227.3)rotate(-90)scale(0.13 -0.13)">
      <defs>
       <path d="M 31.640625 57.8125 
Q 31.640625 73.4375 31.25 78.125 
L 40.625 78.125 
Q 39.84375 73.4375 39.84375 57.8125 
L 61.328125 57.8125 
Q 61.328125 73.828125 60.9375 78.515625 
L 70.3125 78.515625 
Q 69.53125 73.828125 69.53125 57.8125 
L 77.34375 57.8125 
Q 84.375 57.8125 89.453125 58.203125 
L 89.453125 51.171875 
Q 84.375 51.5625 77.34375 51.5625 
L 69.53125 51.5625 
L 69.53125 28.90625 
L 82.8125 28.90625 
Q 89.84375 28.90625 94.53125 29.296875 
L 94.53125 22.265625 
Q 90.234375 22.65625 83.203125 22.65625 
L 16.796875 22.65625 
Q 9.375 22.65625 5.078125 22.265625 
L 5.078125 29.296875 
Q 9.375 28.90625 16.796875 28.90625 
L 31.640625 28.90625 
L 31.640625 51.5625 
L 25 51.5625 
Q 15.625 51.5625 10.9375 51.171875 
L 10.9375 58.203125 
Q 16.015625 57.8125 25.390625 57.8125 
z
M 61.328125 28.90625 
L 61.328125 51.5625 
L 39.84375 51.5625 
L 39.84375 28.90625 
z
M 44.921875 11.328125 
Q 39.453125 8.59375 30.65625 2.140625 
Q 21.875 -4.296875 13.28125 -8.203125 
Q 10.546875 -4.296875 7.03125 -1.5625 
Q 15.234375 1.953125 22.453125 6.4375 
Q 29.6875 10.9375 36.328125 17.578125 
Q 40.625 14.0625 44.921875 11.328125 
z
M 63.28125 17.578125 
Q 67.96875 14.84375 76.953125 9.375 
Q 85.9375 3.90625 92.578125 -1.5625 
Q 89.0625 -4.296875 86.328125 -7.8125 
Q 79.6875 -2.734375 71.671875 2.53125 
Q 63.671875 7.8125 57.421875 10.9375 
Q 60.546875 14.0625 63.28125 17.578125 
z
" id="SimHei-20849"/>
       <path d="M 87.109375 76.171875 
Q 86.71875 68.359375 86.71875 51.953125 
Q 86.71875 35.9375 87.109375 28.90625 
L 40.625 28.90625 
Q 41.015625 35.546875 41.015625 51.953125 
Q 41.015625 68.359375 40.625 76.171875 
L 87.109375 76.171875 
z
M 78.515625 35.546875 
L 78.515625 68.75 
L 49.21875 68.75 
L 49.21875 35.546875 
z
M 25.78125 52.34375 
Q 25.390625 45.3125 25.390625 35.9375 
L 25.390625 13.28125 
Q 29.296875 17.1875 33.984375 23.046875 
Q 35.546875 19.140625 38.28125 14.84375 
Q 32.421875 9.375 28.3125 4.6875 
Q 24.21875 0 19.921875 -5.46875 
Q 17.1875 -1.171875 13.28125 1.5625 
Q 17.578125 5.078125 17.578125 9.375 
L 17.578125 45.703125 
Q 8.984375 45.703125 3.90625 45.3125 
L 3.90625 52.734375 
Q 8.59375 52.34375 14.453125 52.34375 
z
M 75.390625 22.265625 
Q 90.234375 5.46875 95.703125 -2.34375 
Q 91.40625 -5.46875 88.28125 -8.59375 
Q 80.46875 3.125 69.140625 16.40625 
Q 72.265625 18.359375 75.390625 22.265625 
z
M 58.59375 16.796875 
Q 54.6875 12.109375 49.21875 4.6875 
Q 43.75 -2.734375 37.109375 -10.15625 
Q 35.15625 -7.8125 30.859375 -4.6875 
Q 46.09375 11.328125 50.78125 21.875 
Q 54.6875 19.140625 58.59375 16.796875 
z
M 19.921875 82.421875 
Q 28.90625 72.265625 32.03125 67.1875 
Q 28.515625 64.84375 25.390625 61.328125 
Q 17.96875 72.65625 13.671875 77.34375 
Q 16.796875 79.296875 19.921875 82.421875 
z
" id="SimHei-35782"/>
       <path d="M 38.28125 75.78125 
Q 36.71875 71.484375 33.984375 61.90625 
Q 31.25 52.34375 28.515625 43.75 
Q 34.765625 34.765625 36.125 29.875 
Q 37.5 25 37.109375 19.53125 
Q 36.71875 14.0625 33.390625 11.328125 
Q 30.078125 8.59375 21.875 7.421875 
Q 20.3125 14.453125 18.75 16.796875 
Q 26.953125 16.015625 28.703125 19.140625 
Q 30.46875 22.265625 29.296875 27.734375 
Q 28.125 33.203125 21.09375 42.578125 
Q 26.5625 59.765625 28.515625 68.75 
L 15.234375 68.75 
L 15.234375 -7.8125 
L 7.8125 -7.8125 
Q 8.203125 2.734375 8.203125 10.546875 
L 8.203125 57.03125 
Q 8.203125 66.015625 7.8125 75.78125 
L 38.28125 75.78125 
z
M 66.40625 75.390625 
Q 71.875 64.0625 81.046875 56.828125 
Q 90.234375 49.609375 96.875 47.265625 
Q 92.96875 43.359375 90.625 39.0625 
Q 77.734375 48.046875 71.875 54.875 
Q 66.015625 61.71875 62.890625 68.75 
Q 60.15625 62.890625 54.875 54.484375 
Q 49.609375 46.09375 41.015625 36.71875 
Q 37.890625 40.234375 33.984375 42.1875 
Q 42.1875 48.046875 49.21875 59.171875 
Q 56.25 70.3125 60.15625 82.421875 
Q 63.28125 80.46875 68.359375 79.296875 
Q 66.796875 76.5625 66.40625 75.390625 
z
M 58.59375 42.1875 
Q 57.03125 36.328125 55.859375 23.625 
Q 54.6875 10.9375 50.78125 3.515625 
Q 46.875 -3.90625 41.40625 -8.984375 
Q 37.890625 -6.25 33.984375 -4.6875 
Q 39.84375 -0.390625 43.15625 5.265625 
Q 46.484375 10.9375 48.234375 18.75 
Q 50 26.5625 50 43.75 
Q 52.34375 42.578125 58.59375 42.1875 
z
M 78.515625 43.359375 
Q 77.734375 37.890625 77.734375 31.640625 
L 77.734375 5.46875 
Q 77.734375 1.5625 78.125 -8.203125 
L 69.921875 -8.203125 
Q 70.3125 2.34375 70.3125 5.859375 
L 70.3125 31.640625 
Q 70.3125 37.109375 69.921875 43.359375 
L 78.515625 43.359375 
z
" id="SimHei-38454"/>
       <path d="M 85.9375 38.671875 
Q 83.59375 27.734375 79.6875 19.328125 
Q 75.78125 10.9375 71.875 6.25 
Q 75.390625 3.515625 82.03125 1.359375 
Q 88.671875 -0.78125 95.703125 -1.953125 
Q 92.96875 -4.296875 91.015625 -10.15625 
Q 80.46875 -7.03125 75.390625 -4.484375 
Q 70.3125 -1.953125 66.015625 1.171875 
Q 59.765625 -2.734375 53.90625 -5.265625 
Q 48.046875 -7.8125 41.015625 -10.15625 
Q 39.453125 -6.25 36.328125 -3.515625 
Q 41.796875 -2.34375 48.4375 0 
Q 55.078125 2.34375 61.328125 6.640625 
Q 58.203125 10.546875 55.078125 17.96875 
Q 51.953125 25 50.390625 32.421875 
Q 47.65625 32.421875 45.3125 32.421875 
L 45.3125 39.0625 
Q 52.734375 38.671875 59.375 38.671875 
z
M 41.40625 72.265625 
Q 35.9375 71.09375 29.484375 69.921875 
Q 23.046875 68.75 20.3125 68.359375 
L 20.3125 55.46875 
Q 32.03125 55.46875 39.453125 56.25 
L 39.453125 48.828125 
Q 32.03125 49.21875 20.3125 49.21875 
L 20.3125 36.71875 
Q 32.03125 36.71875 39.453125 37.109375 
L 39.453125 29.6875 
Q 32.03125 30.078125 20.3125 30.078125 
L 20.3125 15.234375 
Q 30.46875 16.796875 41.015625 19.53125 
Q 40.625 15.625 40.625 12.109375 
Q 29.6875 10.546875 20.3125 8.203125 
L 20.3125 1.5625 
Q 20.3125 -3.125 20.703125 -9.765625 
L 12.5 -9.765625 
Q 12.890625 -3.125 12.890625 1.5625 
L 12.890625 6.640625 
Q 8.984375 5.859375 5.46875 4.6875 
Q 4.6875 10.15625 3.90625 12.890625 
Q 7.8125 13.28125 12.890625 14.0625 
L 12.890625 59.375 
Q 12.890625 66.015625 12.5 73.828125 
Q 17.1875 73.828125 24.609375 75.390625 
Q 32.03125 76.953125 37.109375 80.078125 
Q 38.671875 75.78125 41.40625 72.265625 
z
M 79.6875 77.734375 
Q 79.296875 71.875 79.296875 66.796875 
L 79.296875 57.03125 
Q 79.296875 53.515625 81.828125 52.921875 
Q 84.375 52.34375 93.359375 53.125 
Q 91.796875 50.390625 91.40625 46.09375 
L 79.296875 46.09375 
Q 72.65625 46.09375 72.265625 52.734375 
L 72.265625 71.484375 
L 58.984375 71.484375 
Q 58.984375 61.328125 57.421875 55.078125 
Q 55.859375 48.828125 50 42.578125 
Q 47.265625 45.3125 43.75 47.65625 
Q 51.171875 53.125 51.5625 61.515625 
Q 51.953125 69.921875 51.5625 77.734375 
L 79.6875 77.734375 
z
M 57.421875 32.8125 
Q 58.984375 26.171875 61.90625 20.109375 
Q 64.84375 14.0625 66.796875 12.109375 
Q 69.53125 14.84375 72.265625 20.5 
Q 75 26.171875 76.5625 32.8125 
L 59.375 32.8125 
z
" id="SimHei-27573"/>
       <path d="M 34.375 52.34375 
Q 33.984375 47.65625 33.984375 42.96875 
L 33.984375 37.890625 
Q 40.234375 37.890625 44.53125 38.28125 
L 44.53125 31.640625 
Q 39.84375 32.03125 33.984375 32.03125 
L 33.984375 17.96875 
L 46.484375 19.53125 
Q 45.703125 16.796875 45.703125 13.28125 
Q 41.015625 12.890625 33.984375 11.71875 
Q 33.984375 2.34375 34.375 -10.15625 
L 26.5625 -10.15625 
Q 26.953125 1.953125 26.953125 10.9375 
Q 10.9375 8.59375 6.25 7.421875 
Q 4.6875 12.109375 3.90625 15.234375 
Q 9.375 15.625 26.953125 17.1875 
L 26.953125 32.03125 
Q 22.265625 32.03125 17.1875 31.640625 
Q 12.109375 31.25 7.421875 30.078125 
L 4.6875 37.890625 
Q 7.03125 39.84375 10.15625 45.3125 
Q 13.28125 50.78125 16.796875 60.15625 
Q 11.71875 60.15625 4.296875 59.765625 
L 4.296875 66.796875 
Q 11.71875 66.40625 18.75 66.40625 
Q 21.484375 76.171875 22.265625 81.25 
Q 26.171875 79.296875 30.46875 78.515625 
Q 28.515625 74.21875 25.78125 66.40625 
L 32.421875 66.40625 
Q 40.625 66.40625 46.484375 66.796875 
L 46.484375 59.765625 
Q 39.84375 60.15625 32.8125 60.15625 
L 24.21875 60.15625 
Q 18.359375 45.3125 14.0625 37.890625 
L 26.953125 37.890625 
Q 26.5625 47.65625 26.5625 52.34375 
z
M 58.59375 25.390625 
Q 74.21875 32.421875 81.25 39.84375 
Q 85.546875 34.765625 87.890625 33.203125 
Q 80.859375 29.296875 74.21875 25.78125 
Q 67.578125 22.265625 58.59375 18.359375 
L 58.59375 3.515625 
Q 58.59375 -1.171875 63.28125 -1.5625 
L 76.953125 -1.5625 
Q 82.03125 -1.953125 83.203125 2.140625 
Q 84.375 6.25 84.375 9.375 
Q 90.625 5.46875 93.359375 4.6875 
Q 89.84375 -3.515625 87.6875 -5.65625 
Q 85.546875 -7.8125 80.859375 -7.8125 
L 60.15625 -7.8125 
Q 51.5625 -7.8125 51.5625 0 
L 51.5625 29.6875 
Q 51.5625 38.671875 51.171875 45.3125 
L 58.984375 45.3125 
Q 58.59375 38.28125 58.59375 32.8125 
z
M 68.359375 75 
Q 76.171875 62.109375 83.390625 57.03125 
Q 90.625 51.953125 96.875 48.828125 
Q 93.359375 44.921875 91.015625 41.40625 
Q 81.25 48.046875 75.390625 54.484375 
Q 69.53125 60.9375 65.625 67.96875 
Q 60.546875 59.765625 56.046875 53.3125 
Q 51.5625 46.875 45.703125 41.015625 
Q 42.578125 43.75 38.28125 46.875 
Q 43.359375 50 47.453125 54.484375 
Q 51.5625 58.984375 54.875 64.84375 
Q 58.203125 70.703125 61.71875 82.421875 
Q 67.1875 79.6875 71.09375 78.125 
L 68.359375 75 
z
" id="SimHei-36718"/>
       <path d="M 70.703125 76.953125 
Q 69.921875 75 68.75 71.671875 
Q 67.578125 68.359375 65.234375 59.765625 
L 83.203125 59.765625 
Q 87.109375 59.765625 92.578125 60.15625 
L 92.578125 53.125 
Q 88.28125 53.515625 85.9375 53.515625 
Q 85.9375 47.265625 83.78125 33.78125 
Q 81.640625 20.3125 76.171875 10.546875 
Q 80.078125 5.859375 84.953125 2.140625 
Q 89.84375 -1.5625 94.140625 -3.125 
Q 89.453125 -6.640625 87.890625 -9.765625 
Q 83.203125 -7.03125 79.296875 -3.515625 
Q 75.390625 0 71.484375 5.078125 
Q 67.1875 0.390625 62.296875 -2.921875 
Q 57.421875 -6.25 50 -10.15625 
Q 48.046875 -6.640625 44.53125 -4.6875 
Q 50.390625 -2.34375 57.03125 1.953125 
Q 63.671875 6.25 67.1875 10.546875 
Q 64.453125 16.015625 61.90625 22.265625 
Q 59.375 28.515625 57.421875 38.671875 
Q 56.25 35.546875 53.515625 30.46875 
Q 50.78125 32.03125 46.875 33.59375 
Q 53.125 44.53125 57.03125 57.421875 
Q 60.9375 70.3125 62.109375 79.6875 
Q 66.796875 77.734375 70.703125 76.953125 
z
M 32.8125 35.15625 
Q 31.25 33.59375 29.296875 30.078125 
L 50.78125 30.078125 
Q 48.4375 20.3125 42.578125 10.546875 
Q 48.828125 8.203125 52.34375 6.25 
Q 50.390625 3.515625 48.828125 0.390625 
Q 45.3125 2.734375 38.28125 5.078125 
Q 30.46875 -3.515625 11.328125 -10.15625 
Q 9.375 -5.859375 6.25 -4.296875 
Q 24.609375 0 31.25 7.421875 
Q 20.3125 10.15625 13.28125 12.109375 
Q 15.625 15.625 19.53125 23.828125 
Q 15.625 23.828125 6.640625 23.4375 
L 6.640625 30.46875 
Q 14.0625 30.078125 21.875 30.078125 
Q 23.4375 33.59375 24.21875 37.890625 
Q 28.515625 36.328125 32.8125 35.15625 
z
M 27.734375 61.71875 
Q 27.734375 71.09375 27.34375 79.6875 
L 35.15625 79.6875 
Q 34.765625 71.484375 34.765625 61.71875 
Q 48.046875 61.71875 53.515625 62.109375 
L 53.515625 55.078125 
Q 48.046875 55.46875 34.765625 55.46875 
Q 34.765625 44.140625 35.15625 37.890625 
L 27.34375 37.890625 
Q 27.734375 43.359375 27.734375 51.5625 
Q 25.78125 48.4375 20.3125 43.546875 
Q 14.84375 38.671875 10.15625 35.9375 
Q 8.203125 39.453125 4.296875 41.015625 
Q 7.8125 42.1875 13.671875 46.484375 
Q 19.53125 50.78125 22.65625 55.46875 
Q 14.84375 55.46875 7.8125 55.078125 
L 7.8125 62.109375 
Q 14.453125 61.71875 27.734375 61.71875 
z
M 62.109375 49.609375 
Q 65.625 26.5625 71.875 17.578125 
Q 75.78125 26.5625 77.140625 35.734375 
Q 78.515625 44.921875 78.90625 53.515625 
L 63.671875 53.515625 
L 62.109375 49.609375 
z
M 22.65625 15.625 
Q 27.34375 14.453125 35.546875 12.5 
Q 38.671875 16.40625 41.40625 23.828125 
L 26.953125 23.828125 
Q 25 19.921875 22.65625 15.625 
z
M 51.953125 75.390625 
Q 50 72.265625 48.828125 69.53125 
Q 47.65625 66.796875 45.703125 62.890625 
Q 42.578125 64.453125 39.453125 65.234375 
Q 42.578125 70.3125 45.3125 78.125 
Q 49.21875 76.171875 51.953125 75.390625 
z
M 40.234375 52.734375 
Q 45.3125 47.65625 50 42.578125 
Q 47.65625 40.625 44.921875 37.890625 
Q 39.453125 44.53125 35.9375 48.4375 
Q 38.28125 50.390625 40.234375 52.734375 
z
M 14.453125 78.125 
Q 19.921875 72.65625 23.4375 67.1875 
L 17.578125 63.671875 
Q 14.84375 69.140625 9.375 73.828125 
Q 12.890625 76.171875 14.453125 78.125 
z
" id="SimHei-25968"/>
      </defs>
      <use xlink:href="#SimHei-20849"/>
      <use x="100" xlink:href="#SimHei-35782"/>
      <use x="200" xlink:href="#SimHei-38454"/>
      <use x="300" xlink:href="#SimHei-27573"/>
      <use x="400" xlink:href="#SimHei-30340"/>
      <use x="500" xlink:href="#SimHei-36718"/>
      <use x="600" xlink:href="#SimHei-25968"/>
     </g>
    </g>
   </g>
   <g id="line2d_21">
    <path clip-path="url(#p86d1accf12)" d="M 92.290909 307.8 
L 137.381818 307.8 
L 182.472727 307.8 
L 227.563636 307.8 
L 272.654545 307.8 
L 317.745455 307.8 
L 362.836364 307.8 
L 407.927273 307.8 
L 453.018182 307.8 
L 498.109091 307.8 
" style="fill:none;stroke:#0000ff;stroke-linecap:square;stroke-width:1.5;"/>
    <defs>
     <path d="M 0 3 
C 0.795609 3 1.55874 2.683901 2.12132 2.12132 
C 2.683901 1.55874 3 0.795609 3 0 
C 3 -0.795609 2.683901 -1.55874 2.12132 -2.12132 
C 1.55874 -2.683901 0.795609 -3 0 -3 
C -0.795609 -3 -1.55874 -2.683901 -2.12132 -2.12132 
C -2.683901 -1.55874 -3 -0.795609 -3 0 
C -3 0.795609 -2.683901 1.55874 -2.12132 2.12132 
C -1.55874 2.683901 -0.795609 3 0 3 
z
" id="m67196da283" style="stroke:#0000ff;"/>
    </defs>
    <g clip-path="url(#p86d1accf12)">
     <use style="fill:#0000ff;stroke:#0000ff;" x="92.290909" xlink:href="#m67196da283" y="307.8"/>
     <use style="fill:#0000ff;stroke:#0000ff;" x="137.381818" xlink:href="#m67196da283" y="307.8"/>
     <use style="fill:#0000ff;stroke:#0000ff;" x="182.472727" xlink:href="#m67196da283" y="307.8"/>
     <use style="fill:#0000ff;stroke:#0000ff;" x="227.563636" xlink:href="#m67196da283" y="307.8"/>
     <use style="fill:#0000ff;stroke:#0000ff;" x="272.654545" xlink:href="#m67196da283" y="307.8"/>
     <use style="fill:#0000ff;stroke:#0000ff;" x="317.745455" xlink:href="#m67196da283" y="307.8"/>
     <use style="fill:#0000ff;stroke:#0000ff;" x="362.836364" xlink:href="#m67196da283" y="307.8"/>
     <use style="fill:#0000ff;stroke:#0000ff;" x="407.927273" xlink:href="#m67196da283" y="307.8"/>
     <use style="fill:#0000ff;stroke:#0000ff;" x="453.018182" xlink:href="#m67196da283" y="307.8"/>
     <use style="fill:#0000ff;stroke:#0000ff;" x="498.109091" xlink:href="#m67196da283" y="307.8"/>
    </g>
   </g>
   <g id="line2d_22">
    <path clip-path="url(#p86d1accf12)" d="M 92.290909 213.3 
L 137.381818 213.3 
L 182.472727 213.3 
L 227.563636 213.3 
L 272.654545 213.3 
L 317.745455 213.3 
L 362.836364 213.3 
L 407.927273 213.3 
L 453.018182 213.3 
L 498.109091 213.3 
" style="fill:none;stroke:#008000;stroke-dasharray:5.55,2.4;stroke-dashoffset:0;stroke-width:1.5;"/>
    <defs>
     <path d="M -0 3 
L 3 -3 
L -3 -3 
z
" id="m9a6378d3fb" style="stroke:#008000;stroke-linejoin:miter;"/>
    </defs>
    <g clip-path="url(#p86d1accf12)">
     <use style="fill:#008000;stroke:#008000;stroke-linejoin:miter;" x="92.290909" xlink:href="#m9a6378d3fb" y="213.3"/>
     <use style="fill:#008000;stroke:#008000;stroke-linejoin:miter;" x="137.381818" xlink:href="#m9a6378d3fb" y="213.3"/>
     <use style="fill:#008000;stroke:#008000;stroke-linejoin:miter;" x="182.472727" xlink:href="#m9a6378d3fb" y="213.3"/>
     <use style="fill:#008000;stroke:#008000;stroke-linejoin:miter;" x="227.563636" xlink:href="#m9a6378d3fb" y="213.3"/>
     <use style="fill:#008000;stroke:#008000;stroke-linejoin:miter;" x="272.654545" xlink:href="#m9a6378d3fb" y="213.3"/>
     <use style="fill:#008000;stroke:#008000;stroke-linejoin:miter;" x="317.745455" xlink:href="#m9a6378d3fb" y="213.3"/>
     <use style="fill:#008000;stroke:#008000;stroke-linejoin:miter;" x="362.836364" xlink:href="#m9a6378d3fb" y="213.3"/>
     <use style="fill:#008000;stroke:#008000;stroke-linejoin:miter;" x="407.927273" xlink:href="#m9a6378d3fb" y="213.3"/>
     <use style="fill:#008000;stroke:#008000;stroke-linejoin:miter;" x="453.018182" xlink:href="#m9a6378d3fb" y="213.3"/>
     <use style="fill:#008000;stroke:#008000;stroke-linejoin:miter;" x="498.109091" xlink:href="#m9a6378d3fb" y="213.3"/>
    </g>
   </g>
   <g id="line2d_23">
    <path clip-path="url(#p86d1accf12)" d="M 92.290909 55.8 
L 137.381818 55.8 
L 182.472727 55.8 
L 227.563636 55.8 
L 272.654545 55.8 
L 317.745455 55.8 
L 362.836364 55.8 
L 407.927273 55.8 
L 453.018182 55.8 
L 498.109091 55.8 
" style="fill:none;stroke:#ff0000;stroke-dasharray:9.6,2.4,1.5,2.4;stroke-dashoffset:0;stroke-width:1.5;"/>
    <defs>
     <path d="M -3 3 
L 3 3 
L 3 -3 
L -3 -3 
z
" id="m2d5e84c746" style="stroke:#ff0000;stroke-linejoin:miter;"/>
    </defs>
    <g clip-path="url(#p86d1accf12)">
     <use style="fill:#ff0000;stroke:#ff0000;stroke-linejoin:miter;" x="92.290909" xlink:href="#m2d5e84c746" y="55.8"/>
     <use style="fill:#ff0000;stroke:#ff0000;stroke-linejoin:miter;" x="137.381818" xlink:href="#m2d5e84c746" y="55.8"/>
     <use style="fill:#ff0000;stroke:#ff0000;stroke-linejoin:miter;" x="182.472727" xlink:href="#m2d5e84c746" y="55.8"/>
     <use style="fill:#ff0000;stroke:#ff0000;stroke-linejoin:miter;" x="227.563636" xlink:href="#m2d5e84c746" y="55.8"/>
     <use style="fill:#ff0000;stroke:#ff0000;stroke-linejoin:miter;" x="272.654545" xlink:href="#m2d5e84c746" y="55.8"/>
     <use style="fill:#ff0000;stroke:#ff0000;stroke-linejoin:miter;" x="317.745455" xlink:href="#m2d5e84c746" y="55.8"/>
     <use style="fill:#ff0000;stroke:#ff0000;stroke-linejoin:miter;" x="362.836364" xlink:href="#m2d5e84c746" y="55.8"/>
     <use style="fill:#ff0000;stroke:#ff0000;stroke-linejoin:miter;" x="407.927273" xlink:href="#m2d5e84c746" y="55.8"/>
     <use style="fill:#ff0000;stroke:#ff0000;stroke-linejoin:miter;" x="453.018182" xlink:href="#m2d5e84c746" y="55.8"/>
     <use style="fill:#ff0000;stroke:#ff0000;stroke-linejoin:miter;" x="498.109091" xlink:href="#m2d5e84c746" y="55.8"/>
    </g>
   </g>
   <g id="patch_3">
    <path d="M 72 320.4 
L 72 43.2 
" style="fill:none;stroke:#000000;stroke-linecap:square;stroke-linejoin:miter;stroke-width:0.8;"/>
   </g>
   <g id="patch_4">
    <path d="M 72 320.4 
L 518.4 320.4 
" style="fill:none;stroke:#000000;stroke-linecap:square;stroke-linejoin:miter;stroke-width:0.8;"/>
   </g>
   <g id="legend_1">
    <g id="patch_5">
     <path d="M 407.4 207.253125 
L 511.4 207.253125 
Q 513.4 207.253125 513.4 205.253125 
L 513.4 158.346875 
Q 513.4 156.346875 511.4 156.346875 
L 407.4 156.346875 
Q 405.4 156.346875 405.4 158.346875 
L 405.4 205.253125 
Q 405.4 207.253125 407.4 207.253125 
z
" style="fill:#ffffff;opacity:0.8;stroke:#cccccc;stroke-linejoin:miter;"/>
    </g>
    <g id="line2d_24">
     <path d="M 409.4 166.315625 
L 429.4 166.315625 
" style="fill:none;stroke:#0000ff;stroke-linecap:square;stroke-width:1.5;"/>
    </g>
    <g id="line2d_25">
     <g>
      <use style="fill:#0000ff;stroke:#0000ff;" x="419.4" xlink:href="#m67196da283" y="166.315625"/>
     </g>
    </g>
    <g id="text_13">
     <!-- 通信量=2000 -->
     <g transform="translate(437.4 169.815625)scale(0.12 -0.12)">
      <defs>
       <path d="M 88.671875 78.90625 
Q 83.203125 72.65625 77.140625 67.1875 
Q 71.09375 61.71875 66.40625 57.03125 
L 89.0625 57.03125 
Q 88.671875 48.4375 88.671875 40.234375 
L 88.671875 13.28125 
Q 89.0625 8.203125 85.9375 6.640625 
Q 82.8125 5.078125 76.5625 3.90625 
Q 75.78125 7.421875 72.65625 12.109375 
Q 78.515625 12.5 80.46875 13.28125 
Q 82.421875 14.0625 82.03125 20.703125 
L 64.453125 20.703125 
L 64.453125 4.6875 
L 57.421875 4.6875 
L 57.421875 20.703125 
L 40.234375 20.703125 
L 40.234375 4.6875 
L 33.203125 4.6875 
Q 33.59375 17.578125 33.59375 30.46875 
Q 33.59375 43.359375 33.203125 57.03125 
L 56.25 57.03125 
Q 54.296875 60.15625 47.65625 65.625 
Q 50.390625 67.96875 52.734375 70.703125 
Q 59.765625 65.234375 62.5 62.5 
Q 68.75 69.140625 72.265625 72.65625 
L 47.265625 72.65625 
Q 39.453125 72.65625 33.59375 72.265625 
L 33.59375 79.296875 
Q 39.453125 78.90625 46.484375 78.90625 
z
M 22.265625 46.875 
Q 21.875 39.0625 21.875 32.8125 
L 21.875 9.375 
Q 31.640625 -0.390625 57.8125 -0.390625 
Q 83.984375 -0.390625 96.09375 1.953125 
Q 93.75 -2.734375 93.359375 -7.8125 
Q 62.109375 -8.203125 49.015625 -7.03125 
Q 35.9375 -5.859375 27.734375 -1.75 
Q 19.53125 2.34375 16.796875 -0.578125 
Q 14.0625 -3.515625 10.15625 -10.15625 
Q 6.640625 -6.25 3.125 -3.515625 
Q 9.375 1.953125 15.234375 6.640625 
L 15.234375 40.234375 
Q 12.109375 40.234375 5.46875 39.84375 
L 5.46875 47.265625 
Q 11.71875 46.875 22.265625 46.875 
z
M 82.03125 26.953125 
L 82.03125 36.328125 
L 64.453125 36.328125 
L 64.453125 26.953125 
z
M 57.421875 26.953125 
L 57.421875 36.328125 
L 40.234375 36.328125 
L 40.234375 26.953125 
z
M 82.03125 42.578125 
L 82.03125 51.171875 
L 64.453125 51.171875 
L 64.453125 42.578125 
z
M 57.421875 42.578125 
L 57.421875 51.171875 
L 40.234375 51.171875 
L 40.234375 42.578125 
z
M 16.015625 78.515625 
Q 22.65625 69.140625 26.5625 63.671875 
Q 22.265625 61.328125 19.53125 58.203125 
Q 16.796875 64.0625 9.375 73.828125 
Q 12.5 76.171875 16.015625 78.515625 
z
" id="SimHei-36890"/>
       <path d="M 88.28125 24.609375 
Q 87.890625 19.921875 87.890625 8.984375 
Q 87.890625 -1.5625 88.28125 -7.03125 
L 80.859375 -7.03125 
L 80.859375 -0.390625 
L 47.265625 -0.390625 
L 47.265625 -8.59375 
L 39.453125 -8.59375 
Q 39.84375 -2.734375 39.84375 7.8125 
Q 39.84375 18.75 39.453125 24.609375 
L 88.28125 24.609375 
z
M 33.203125 77.734375 
Q 30.859375 75.390625 25.78125 62.109375 
L 25.78125 8.59375 
Q 25.78125 -3.125 26.171875 -9.765625 
L 17.578125 -9.765625 
Q 18.75 -2.734375 18.75 8.984375 
L 18.75 48.4375 
Q 14.0625 39.0625 9.765625 32.8125 
Q 7.421875 36.71875 3.90625 39.0625 
Q 8.203125 43.75 14.453125 55.65625 
Q 20.703125 67.578125 23.828125 80.859375 
Q 28.125 79.296875 33.203125 77.734375 
z
M 80.859375 5.859375 
L 80.859375 19.140625 
L 47.265625 19.140625 
L 47.265625 5.859375 
z
M 94.921875 60.9375 
Q 87.109375 61.328125 64.0625 61.328125 
Q 41.015625 61.328125 32.8125 60.9375 
L 32.8125 67.578125 
L 94.921875 67.578125 
z
M 89.0625 46.875 
Q 82.421875 47.265625 64.84375 47.265625 
Q 47.265625 47.265625 38.671875 46.875 
L 38.671875 53.515625 
Q 46.09375 53.125 64.0625 53.125 
Q 82.421875 53.125 89.0625 53.515625 
z
M 89.0625 33.203125 
Q 83.59375 33.59375 65.234375 33.59375 
Q 47.265625 33.59375 38.671875 33.203125 
L 38.671875 39.84375 
Q 46.875 39.453125 65.234375 39.453125 
Q 83.984375 39.453125 89.0625 39.84375 
z
M 62.890625 81.25 
Q 64.0625 78.90625 65.234375 76.171875 
Q 66.40625 73.4375 67.578125 70.3125 
Q 64.0625 69.140625 60.546875 68.359375 
Q 57.8125 76.5625 55.859375 78.515625 
Q 59.765625 80.078125 62.890625 81.25 
z
" id="SimHei-20449"/>
       <path d="M 82.03125 39.0625 
Q 81.640625 34.375 81.640625 26.5625 
Q 81.640625 19.140625 82.03125 14.84375 
L 53.515625 14.84375 
L 53.515625 9.765625 
L 71.484375 9.765625 
Q 78.125 9.765625 83.984375 10.15625 
L 83.984375 4.296875 
Q 78.515625 4.6875 71.484375 4.6875 
L 53.515625 4.6875 
L 53.515625 -1.171875 
L 80.078125 -1.171875 
Q 86.328125 -1.171875 92.578125 -0.78125 
L 92.578125 -6.640625 
Q 86.328125 -6.25 80.078125 -6.25 
L 19.921875 -6.25 
Q 14.0625 -6.25 7.421875 -6.640625 
L 7.421875 -0.78125 
Q 14.453125 -0.78125 19.921875 -1.171875 
L 46.484375 -1.171875 
L 46.484375 4.6875 
L 26.953125 4.6875 
Q 21.09375 4.6875 15.234375 3.90625 
L 15.234375 10.15625 
Q 21.484375 9.765625 26.953125 9.765625 
L 46.484375 9.765625 
L 46.484375 14.84375 
L 17.96875 14.84375 
Q 18.359375 21.484375 18.359375 27.734375 
Q 18.359375 33.984375 17.96875 39.0625 
L 82.03125 39.0625 
z
M 81.25 77.34375 
Q 80.859375 71.484375 80.859375 66.40625 
Q 80.859375 61.328125 81.25 53.125 
L 18.75 53.125 
Q 19.140625 61.328125 19.140625 66.40625 
Q 19.140625 71.484375 18.75 77.34375 
L 81.25 77.34375 
z
M 76.5625 48.4375 
Q 85.9375 48.828125 93.75 49.21875 
L 93.75 42.96875 
Q 85.9375 43.359375 76.953125 43.359375 
L 25.78125 43.359375 
Q 15.234375 43.359375 5.078125 42.96875 
L 5.078125 49.21875 
Q 15.234375 48.828125 25.78125 48.4375 
z
M 73.828125 57.8125 
L 73.828125 62.890625 
L 26.171875 62.890625 
L 26.171875 57.8125 
z
M 73.828125 67.96875 
L 73.828125 72.65625 
L 26.171875 72.65625 
L 26.171875 67.96875 
z
M 74.21875 29.296875 
L 74.21875 33.984375 
L 53.515625 33.984375 
L 53.515625 29.296875 
z
M 46.484375 29.296875 
L 46.484375 33.984375 
L 25.78125 33.984375 
L 25.78125 29.296875 
z
M 46.484375 19.921875 
L 46.484375 24.21875 
L 25.78125 24.21875 
L 25.78125 19.921875 
z
M 74.21875 19.921875 
L 74.21875 24.21875 
L 53.515625 24.21875 
L 53.515625 19.921875 
z
" id="SimHei-37327"/>
       <path d="M 46.484375 45.3125 
L 1.953125 45.3125 
L 1.953125 51.5625 
L 46.484375 51.5625 
z
M 46.484375 21.484375 
L 1.953125 21.484375 
L 1.953125 27.734375 
L 46.484375 27.734375 
z
" id="SimHei-61"/>
       <path d="M 4.6875 3.90625 
Q 5.078125 9.765625 10.15625 14.453125 
Q 15.234375 19.140625 23.046875 29.09375 
Q 30.859375 39.0625 33.203125 44.53125 
Q 35.546875 50 34.953125 53.90625 
Q 34.375 57.8125 31.25 60.34375 
Q 28.125 62.890625 24.015625 62.5 
Q 19.921875 62.109375 16.203125 59.375 
Q 12.5 56.640625 10.546875 51.171875 
L 3.125 52.34375 
Q 6.25 61.328125 11.125 65.421875 
Q 16.015625 69.53125 22.65625 69.921875 
Q 26.5625 70.3125 29.6875 69.71875 
Q 32.8125 69.140625 36.125 66.984375 
Q 39.453125 64.84375 41.59375 60.546875 
Q 43.75 56.25 43.15625 50.1875 
Q 42.578125 44.140625 37.109375 35.734375 
Q 31.640625 27.34375 16.015625 9.375 
L 44.140625 9.375 
L 44.140625 2.34375 
L 4.6875 2.34375 
z
" id="SimHei-50"/>
       <path d="M 3.125 29.296875 
Q 3.90625 50 6.4375 56.046875 
Q 8.984375 62.109375 13.671875 66.015625 
Q 18.359375 69.921875 25.1875 69.921875 
Q 32.03125 69.921875 37.109375 64.25 
Q 42.1875 58.59375 43.75 50 
Q 45.3125 41.40625 44.71875 30.265625 
Q 44.140625 19.140625 40.8125 12.109375 
Q 37.5 5.078125 30.859375 2.34375 
Q 24.21875 -0.390625 17.578125 2.921875 
Q 10.9375 6.25 8.203125 11.71875 
Q 5.46875 17.1875 4.296875 23.234375 
Q 3.125 29.296875 3.90625 50 
z
M 12.890625 52.734375 
Q 10.546875 31.25 12.5 22.84375 
Q 14.453125 14.453125 18.9375 10.9375 
Q 23.4375 7.421875 28.125 9.5625 
Q 32.8125 11.71875 34.953125 18.15625 
Q 37.109375 24.609375 37.109375 32.21875 
Q 37.109375 39.84375 36.515625 46.09375 
Q 35.9375 52.34375 33 57.421875 
Q 30.078125 62.5 25.1875 62.6875 
Q 20.3125 62.890625 16.59375 57.8125 
Q 12.890625 52.734375 10.546875 31.25 
z
" id="SimHei-48"/>
      </defs>
      <use xlink:href="#SimHei-36890"/>
      <use x="100" xlink:href="#SimHei-20449"/>
      <use x="200" xlink:href="#SimHei-37327"/>
      <use x="300" xlink:href="#SimHei-61"/>
      <use x="350" xlink:href="#SimHei-50"/>
      <use x="400" xlink:href="#SimHei-48"/>
      <use x="450" xlink:href="#SimHei-48"/>
      <use x="500" xlink:href="#SimHei-48"/>
     </g>
    </g>
    <g id="line2d_26">
     <path d="M 409.4 182.284375 
L 429.4 182.284375 
" style="fill:none;stroke:#008000;stroke-dasharray:5.55,2.4;stroke-dashoffset:0;stroke-width:1.5;"/>
    </g>
    <g id="line2d_27">
     <g>
      <use style="fill:#008000;stroke:#008000;stroke-linejoin:miter;" x="419.4" xlink:href="#m9a6378d3fb" y="182.284375"/>
     </g>
    </g>
    <g id="text_14">
     <!-- 通信量=5000 -->
     <g transform="translate(437.4 185.784375)scale(0.12 -0.12)">
      <defs>
       <path d="M 8.59375 20.703125 
Q 11.328125 10.15625 17.96875 8.984375 
Q 24.609375 7.8125 28.703125 10.34375 
Q 32.8125 12.890625 34.5625 16.984375 
Q 36.328125 21.09375 36.125 26.171875 
Q 35.9375 31.25 33.390625 34.765625 
Q 30.859375 38.28125 26.953125 39.453125 
Q 23.046875 40.625 18.15625 39.453125 
Q 13.28125 38.28125 10.15625 33.984375 
L 3.515625 34.765625 
Q 4.296875 37.109375 10.9375 68.359375 
L 41.796875 68.359375 
L 41.796875 61.328125 
L 16.796875 61.328125 
Q 14.84375 50.78125 12.890625 44.53125 
Q 18.75 47.265625 23.828125 47.0625 
Q 28.90625 46.875 33.59375 44.71875 
Q 38.28125 42.578125 40.421875 38.859375 
Q 42.578125 35.15625 43.546875 31.4375 
Q 44.53125 27.734375 44.328125 23.4375 
Q 44.140625 19.140625 42.578125 14.640625 
Q 41.015625 10.15625 37.890625 7.21875 
Q 34.765625 4.296875 30.265625 2.53125 
Q 25.78125 0.78125 19.921875 1.171875 
Q 14.0625 1.5625 8.78125 5.46875 
Q 3.515625 9.375 1.5625 18.75 
z
" id="SimHei-53"/>
      </defs>
      <use xlink:href="#SimHei-36890"/>
      <use x="100" xlink:href="#SimHei-20449"/>
      <use x="200" xlink:href="#SimHei-37327"/>
      <use x="300" xlink:href="#SimHei-61"/>
      <use x="350" xlink:href="#SimHei-53"/>
      <use x="400" xlink:href="#SimHei-48"/>
      <use x="450" xlink:href="#SimHei-48"/>
      <use x="500" xlink:href="#SimHei-48"/>
     </g>
    </g>
    <g id="line2d_28">
     <path d="M 409.4 198.253125 
L 429.4 198.253125 
" style="fill:none;stroke:#ff0000;stroke-dasharray:9.6,2.4,1.5,2.4;stroke-dashoffset:0;stroke-width:1.5;"/>
    </g>
    <g id="line2d_29">
     <g>
      <use style="fill:#ff0000;stroke:#ff0000;stroke-linejoin:miter;" x="419.4" xlink:href="#m2d5e84c746" y="198.253125"/>
     </g>
    </g>
    <g id="text_15">
     <!-- 通信量=10000 -->
     <g transform="translate(437.4 201.753125)scale(0.12 -0.12)">
      <defs>
       <path d="M 21.875 56.25 
Q 16.796875 51.171875 8.984375 46.484375 
L 8.984375 53.90625 
Q 18.75 60.546875 25 69.53125 
L 29.6875 69.53125 
L 29.6875 2.34375 
L 21.875 2.34375 
z
" id="SimHei-49"/>
      </defs>
      <use xlink:href="#SimHei-36890"/>
      <use x="100" xlink:href="#SimHei-20449"/>
      <use x="200" xlink:href="#SimHei-37327"/>
      <use x="300" xlink:href="#SimHei-61"/>
      <use x="350" xlink:href="#SimHei-49"/>
      <use x="400" xlink:href="#SimHei-48"/>
      <use x="450" xlink:href="#SimHei-48"/>
      <use x="500" xlink:href="#SimHei-48"/>
      <use x="550" xlink:href="#SimHei-48"/>
     </g>
    </g>
   </g>
  </g>
 </g>
 <defs>
  <clipPath id="p86d1accf12">
   <rect height="277.2" width="446.4" x="72" y="43.2"/>
  </clipPath>
 </defs>
</svg>
