<?xml version="1.0" encoding="utf-8" standalone="no"?>
<!DOCTYPE svg PUBLIC "-//W3C//DTD SVG 1.1//EN"
  "http://www.w3.org/Graphics/SVG/1.1/DTD/svg11.dtd">
<svg height="360pt" version="1.1" viewBox="0 0 576 360" width="576pt" xmlns="http://www.w3.org/2000/svg" xmlns:xlink="http://www.w3.org/1999/xlink">
 <metadata>
  <rdf:RDF xmlns:cc="http://creativecommons.org/ns#" xmlns:dc="http://purl.org/dc/elements/1.1/" xmlns:rdf="http://www.w3.org/1999/02/22-rdf-syntax-ns#">
   <cc:Work>
    <dc:type rdf:resource="http://purl.org/dc/dcmitype/StillImage"/>
    <dc:date>2021-03-30T15:37:13.363970</dc:date>
    <dc:format>image/svg+xml</dc:format>
    <dc:creator>
     <cc:Agent>
      <dc:title>Matplotlib v3.4.0, https://matplotlib.org/</dc:title>
     </cc:Agent>
    </dc:creator>
   </cc:Work>
  </rdf:RDF>
 </metadata>
 <defs>
  <style type="text/css">*{stroke-linecap:butt;stroke-linejoin:round;}</style>
 </defs>
 <g id="figure_1">
  <g id="patch_1">
   <path d="M 0 360 
L 576 360 
L 576 0 
L 0 0 
z
" style="fill:#ffffff;"/>
  </g>
  <g id="axes_1">
   <g id="patch_2">
    <path d="M 72 320.4 
L 518.4 320.4 
L 518.4 43.2 
L 72 43.2 
z
" style="fill:#ffffff;"/>
   </g>
   <g id="matplotlib.axis_1">
    <g id="xtick_1">
     <g id="line2d_1">
      <path clip-path="url(#pb6b24d90a2)" d="M 92.290909 320.4 
L 92.290909 43.2 
" style="fill:none;stroke:#b0b0b0;stroke-dasharray:2.96,1.28;stroke-dashoffset:0;stroke-width:0.8;"/>
     </g>
     <g id="line2d_2">
      <defs>
       <path d="M 0 0 
L 0 3.5 
" id="mb14e6bdc62" style="stroke:#000000;stroke-width:0.8;"/>
      </defs>
      <g>
       <use style="stroke:#000000;stroke-width:0.8;" x="92.290909" xlink:href="#mb14e6bdc62" y="320.4"/>
      </g>
     </g>
     <g id="text_1">
      <!-- 10 -->
      <g transform="translate(86.290909 335.603125)scale(0.12 -0.12)">
       <defs>
        <path d="M 1950 100 
L 1375 100 
L 1375 3425 
L 625 3425 
L 625 3725 
Q 1075 3725 1325 3900 
Q 1575 4075 1650 4425 
L 1950 4425 
L 1950 100 
z
" id="SimHei-31" transform="scale(0.015625)"/>
        <path d="M 2975 2250 
Q 2975 1350 2650 700 
Q 2325 50 1600 50 
Q 875 50 537 700 
Q 200 1350 200 2250 
Q 200 3150 537 3787 
Q 875 4425 1600 4425 
Q 2325 4425 2650 3787 
Q 2975 3150 2975 2250 
z
M 2375 2250 
Q 2375 3050 2187 3500 
Q 2000 3950 1600 3950 
Q 1200 3950 1000 3500 
Q 800 3050 800 2250 
Q 800 1450 1000 987 
Q 1200 525 1600 525 
Q 2000 525 2187 987 
Q 2375 1450 2375 2250 
z
" id="SimHei-30" transform="scale(0.015625)"/>
       </defs>
       <use xlink:href="#SimHei-31"/>
       <use x="50" xlink:href="#SimHei-30"/>
      </g>
     </g>
    </g>
    <g id="xtick_2">
     <g id="line2d_3">
      <path clip-path="url(#pb6b24d90a2)" d="M 143.018182 320.4 
L 143.018182 43.2 
" style="fill:none;stroke:#b0b0b0;stroke-dasharray:2.96,1.28;stroke-dashoffset:0;stroke-width:0.8;"/>
     </g>
     <g id="line2d_4">
      <g>
       <use style="stroke:#000000;stroke-width:0.8;" x="143.018182" xlink:href="#mb14e6bdc62" y="320.4"/>
      </g>
     </g>
     <g id="text_2">
      <!-- 15 -->
      <g transform="translate(137.018182 335.603125)scale(0.12 -0.12)">
       <defs>
        <path d="M 2825 1650 
Q 2825 900 2462 475 
Q 2100 50 1500 50 
Q 975 50 637 400 
Q 300 750 275 1350 
L 850 1350 
Q 850 975 1025 750 
Q 1200 525 1525 525 
Q 1850 525 2037 800 
Q 2225 1075 2225 1650 
Q 2225 2150 2062 2387 
Q 1900 2625 1625 2625 
Q 1400 2625 1237 2525 
Q 1075 2425 925 2175 
L 425 2175 
L 575 4375 
L 2725 4375 
L 2725 3900 
L 1050 3900 
L 950 2750 
Q 1100 2900 1275 2975 
Q 1450 3050 1750 3050 
Q 2225 3050 2525 2687 
Q 2825 2325 2825 1650 
z
" id="SimHei-35" transform="scale(0.015625)"/>
       </defs>
       <use xlink:href="#SimHei-31"/>
       <use x="50" xlink:href="#SimHei-35"/>
      </g>
     </g>
    </g>
    <g id="xtick_3">
     <g id="line2d_5">
      <path clip-path="url(#pb6b24d90a2)" d="M 193.745455 320.4 
L 193.745455 43.2 
" style="fill:none;stroke:#b0b0b0;stroke-dasharray:2.96,1.28;stroke-dashoffset:0;stroke-width:0.8;"/>
     </g>
     <g id="line2d_6">
      <g>
       <use style="stroke:#000000;stroke-width:0.8;" x="193.745455" xlink:href="#mb14e6bdc62" y="320.4"/>
      </g>
     </g>
     <g id="text_3">
      <!-- 20 -->
      <g transform="translate(187.745455 335.603125)scale(0.12 -0.12)">
       <defs>
        <path d="M 2850 100 
L 300 100 
L 300 500 
Q 450 900 712 1237 
Q 975 1575 1475 2000 
Q 1850 2325 2012 2600 
Q 2175 2875 2175 3200 
Q 2175 3525 2037 3737 
Q 1900 3950 1600 3950 
Q 1350 3950 1162 3725 
Q 975 3500 975 2925 
L 400 2925 
Q 425 3650 737 4037 
Q 1050 4425 1625 4425 
Q 2175 4425 2475 4087 
Q 2775 3750 2775 3175 
Q 2775 2700 2500 2350 
Q 2225 2000 1825 1650 
Q 1375 1250 1200 1050 
Q 1025 850 875 575 
L 2850 575 
L 2850 100 
z
" id="SimHei-32" transform="scale(0.015625)"/>
       </defs>
       <use xlink:href="#SimHei-32"/>
       <use x="50" xlink:href="#SimHei-30"/>
      </g>
     </g>
    </g>
    <g id="xtick_4">
     <g id="line2d_7">
      <path clip-path="url(#pb6b24d90a2)" d="M 244.472727 320.4 
L 244.472727 43.2 
" style="fill:none;stroke:#b0b0b0;stroke-dasharray:2.96,1.28;stroke-dashoffset:0;stroke-width:0.8;"/>
     </g>
     <g id="line2d_8">
      <g>
       <use style="stroke:#000000;stroke-width:0.8;" x="244.472727" xlink:href="#mb14e6bdc62" y="320.4"/>
      </g>
     </g>
     <g id="text_4">
      <!-- 25 -->
      <g transform="translate(238.472727 335.603125)scale(0.12 -0.12)">
       <use xlink:href="#SimHei-32"/>
       <use x="50" xlink:href="#SimHei-35"/>
      </g>
     </g>
    </g>
    <g id="xtick_5">
     <g id="line2d_9">
      <path clip-path="url(#pb6b24d90a2)" d="M 295.2 320.4 
L 295.2 43.2 
" style="fill:none;stroke:#b0b0b0;stroke-dasharray:2.96,1.28;stroke-dashoffset:0;stroke-width:0.8;"/>
     </g>
     <g id="line2d_10">
      <g>
       <use style="stroke:#000000;stroke-width:0.8;" x="295.2" xlink:href="#mb14e6bdc62" y="320.4"/>
      </g>
     </g>
     <g id="text_5">
      <!-- 30 -->
      <g transform="translate(289.2 335.603125)scale(0.12 -0.12)">
       <defs>
        <path d="M 2825 1300 
Q 2825 725 2462 387 
Q 2100 50 1550 50 
Q 1000 50 637 387 
Q 275 725 275 1425 
L 850 1425 
Q 850 950 1037 737 
Q 1225 525 1550 525 
Q 1875 525 2050 725 
Q 2225 925 2225 1350 
Q 2225 1700 2037 1900 
Q 1850 2100 1375 2100 
L 1375 2525 
Q 1775 2525 1962 2725 
Q 2150 2925 2150 3325 
Q 2150 3625 2012 3800 
Q 1875 3975 1575 3975 
Q 1275 3975 1112 3762 
Q 950 3550 925 3150 
L 375 3150 
Q 425 3725 737 4075 
Q 1050 4425 1575 4425 
Q 2125 4425 2425 4112 
Q 2725 3800 2725 3350 
Q 2725 2925 2575 2687 
Q 2425 2450 2075 2325 
Q 2425 2250 2625 1975 
Q 2825 1700 2825 1300 
z
" id="SimHei-33" transform="scale(0.015625)"/>
       </defs>
       <use xlink:href="#SimHei-33"/>
       <use x="50" xlink:href="#SimHei-30"/>
      </g>
     </g>
    </g>
    <g id="xtick_6">
     <g id="line2d_11">
      <path clip-path="url(#pb6b24d90a2)" d="M 345.927273 320.4 
L 345.927273 43.2 
" style="fill:none;stroke:#b0b0b0;stroke-dasharray:2.96,1.28;stroke-dashoffset:0;stroke-width:0.8;"/>
     </g>
     <g id="line2d_12">
      <g>
       <use style="stroke:#000000;stroke-width:0.8;" x="345.927273" xlink:href="#mb14e6bdc62" y="320.4"/>
      </g>
     </g>
     <g id="text_6">
      <!-- 35 -->
      <g transform="translate(339.927273 335.603125)scale(0.12 -0.12)">
       <use xlink:href="#SimHei-33"/>
       <use x="50" xlink:href="#SimHei-35"/>
      </g>
     </g>
    </g>
    <g id="xtick_7">
     <g id="line2d_13">
      <path clip-path="url(#pb6b24d90a2)" d="M 396.654545 320.4 
L 396.654545 43.2 
" style="fill:none;stroke:#b0b0b0;stroke-dasharray:2.96,1.28;stroke-dashoffset:0;stroke-width:0.8;"/>
     </g>
     <g id="line2d_14">
      <g>
       <use style="stroke:#000000;stroke-width:0.8;" x="396.654545" xlink:href="#mb14e6bdc62" y="320.4"/>
      </g>
     </g>
     <g id="text_7">
      <!-- 40 -->
      <g transform="translate(390.654545 335.603125)scale(0.12 -0.12)">
       <defs>
        <path d="M 2975 1200 
L 2450 1200 
L 2450 100 
L 1875 100 
L 1875 1200 
L 200 1200 
L 200 1675 
L 1875 4425 
L 2450 4425 
L 2450 1675 
L 2975 1675 
L 2975 1200 
z
M 1875 1675 
L 1875 3525 
L 750 1675 
L 1875 1675 
z
" id="SimHei-34" transform="scale(0.015625)"/>
       </defs>
       <use xlink:href="#SimHei-34"/>
       <use x="50" xlink:href="#SimHei-30"/>
      </g>
     </g>
    </g>
    <g id="xtick_8">
     <g id="line2d_15">
      <path clip-path="url(#pb6b24d90a2)" d="M 447.381818 320.4 
L 447.381818 43.2 
" style="fill:none;stroke:#b0b0b0;stroke-dasharray:2.96,1.28;stroke-dashoffset:0;stroke-width:0.8;"/>
     </g>
     <g id="line2d_16">
      <g>
       <use style="stroke:#000000;stroke-width:0.8;" x="447.381818" xlink:href="#mb14e6bdc62" y="320.4"/>
      </g>
     </g>
     <g id="text_8">
      <!-- 45 -->
      <g transform="translate(441.381818 335.603125)scale(0.12 -0.12)">
       <use xlink:href="#SimHei-34"/>
       <use x="50" xlink:href="#SimHei-35"/>
      </g>
     </g>
    </g>
    <g id="xtick_9">
     <g id="line2d_17">
      <path clip-path="url(#pb6b24d90a2)" d="M 498.109091 320.4 
L 498.109091 43.2 
" style="fill:none;stroke:#b0b0b0;stroke-dasharray:2.96,1.28;stroke-dashoffset:0;stroke-width:0.8;"/>
     </g>
     <g id="line2d_18">
      <g>
       <use style="stroke:#000000;stroke-width:0.8;" x="498.109091" xlink:href="#mb14e6bdc62" y="320.4"/>
      </g>
     </g>
     <g id="text_9">
      <!-- 50 -->
      <g transform="translate(492.109091 335.603125)scale(0.12 -0.12)">
       <use xlink:href="#SimHei-35"/>
       <use x="50" xlink:href="#SimHei-30"/>
      </g>
     </g>
    </g>
    <g id="text_10">
     <!-- 共识节点的数量 -->
     <g transform="translate(249.7 351.30625)scale(0.13 -0.13)">
      <defs>
       <path d="M 2400 1075 
Q 2650 850 2950 675 
Q 2600 475 2050 62 
Q 1500 -350 1000 -625 
Q 825 -350 600 -175 
Q 1100 50 1550 350 
Q 2000 650 2400 1075 
z
M 3700 650 
Q 3900 850 4075 1075 
Q 4350 900 4900 537 
Q 5450 175 5875 -175 
Q 5650 -350 5475 -600 
Q 5075 -250 4587 87 
Q 4100 425 3700 650 
z
M 2625 3300 
L 2625 1825 
L 3950 1825 
L 3950 3300 
L 2625 3300 
z
M 850 3750 
Q 1150 3725 1750 3725 
L 2125 3725 
Q 2125 4725 2100 5000 
L 2675 5000 
Q 2625 4725 2625 3725 
L 3950 3725 
Q 3950 4750 3925 5075 
L 4500 5075 
Q 4450 4750 4450 3725 
L 4950 3725 
Q 5375 3725 5675 3750 
L 5675 3275 
Q 5375 3300 4950 3300 
L 4450 3300 
L 4450 1825 
L 5275 1825 
Q 5725 1825 6000 1850 
L 6000 1375 
Q 5750 1400 5300 1400 
L 1200 1400 
Q 750 1400 475 1375 
L 475 1850 
Q 750 1825 1200 1825 
L 2125 1825 
L 2125 3300 
L 1700 3300 
Q 1125 3300 850 3275 
L 850 3750 
z
" id="SimHei-5171" transform="scale(0.015625)"/>
       <path d="M 2700 4800 
L 5550 4800 
Q 5525 4350 5525 3325 
Q 5525 2300 5550 1850 
L 2700 1850 
Q 2725 2275 2725 3312 
Q 2725 4350 2700 4800 
z
M 3200 4375 
L 3200 2275 
L 5050 2275 
L 5050 4375 
L 3200 4375 
z
M 3325 1375 
Q 3625 1225 3900 1100 
Q 3600 825 3250 400 
Q 2900 -25 2450 -525 
Q 2300 -350 2025 -175 
Q 3025 750 3325 1375 
z
M 4375 1050 
Q 4650 1200 4800 1375 
Q 5725 400 6075 -50 
Q 5825 -200 5650 -375 
Q 4725 750 4375 1050 
z
M 800 4650 
Q 1000 4775 1200 4950 
Q 1750 4375 1950 4050 
Q 1725 3900 1525 3725 
Q 1075 4400 800 4650 
z
M 350 3225 
Q 650 3200 1000 3200 
L 1700 3200 
Q 1675 2750 1675 2200 
L 1675 850 
Q 1925 1100 2200 1425 
Q 2300 1225 2475 950 
Q 2125 650 1862 362 
Q 1600 75 1350 -225 
Q 1175 25 925 175 
Q 1200 375 1200 650 
L 1200 2775 
Q 675 2775 350 2750 
L 350 3225 
z
" id="SimHei-8bc6" transform="scale(0.015625)"/>
       <path d="M 5600 2900 
Q 5525 1850 5500 1187 
Q 5475 525 5250 412 
Q 5025 300 4450 175 
Q 4400 475 4175 775 
Q 4675 750 4825 800 
Q 4975 850 5000 1125 
L 5050 2475 
L 2950 2475 
L 2950 300 
Q 2950 -150 2975 -625 
L 2450 -625 
Q 2475 -175 2475 300 
L 2475 2475 
L 1750 2475 
Q 1175 2475 725 2450 
L 725 2925 
Q 1175 2900 1800 2900 
L 5600 2900 
z
M 3725 3175 
Q 3750 3550 3750 3925 
L 2625 3925 
Q 2625 3475 2650 3150 
L 2125 3150 
Q 2150 3525 2150 3925 
L 1325 3925 
Q 900 3925 475 3875 
L 475 4375 
Q 900 4350 1325 4350 
L 2150 4350 
Q 2150 4825 2125 5150 
L 2650 5150 
Q 2625 4825 2625 4350 
L 3750 4350 
Q 3750 4850 3725 5150 
L 4250 5150 
Q 4225 4850 4225 4350 
L 5125 4350 
Q 5575 4350 5975 4375 
L 5975 3900 
Q 5575 3925 5125 3925 
L 4225 3925 
Q 4225 3550 4250 3175 
L 3725 3175 
z
" id="SimHei-8282" transform="scale(0.015625)"/>
       <path d="M 1775 2675 
L 1775 1600 
L 4650 1600 
L 4650 2675 
L 1775 2675 
z
M 2700 5125 
L 3250 5125 
Q 3225 4850 3225 4325 
L 4850 4325 
Q 5225 4325 5650 4350 
L 5650 3875 
Q 5250 3900 4850 3900 
L 3225 3900 
L 3225 3100 
L 5175 3100 
Q 5150 2675 5150 2150 
Q 5150 1625 5175 1175 
L 1250 1175 
Q 1275 1625 1275 2162 
Q 1275 2700 1250 3100 
L 2725 3100 
L 2725 4450 
Q 2725 4825 2700 5125 
z
M 1000 900 
Q 1250 800 1575 750 
Q 1100 -225 950 -600 
Q 700 -450 400 -350 
Q 700 25 1000 900 
z
M 2825 -400 
Q 2525 -450 2275 -525 
Q 2275 -300 2125 575 
Q 2350 650 2625 700 
Q 2750 -100 2825 -400 
z
M 4375 -350 
Q 4100 -450 3875 -550 
Q 3725 -50 3475 650 
Q 3625 725 3900 850 
Q 4275 -100 4375 -350 
z
M 4925 650 
Q 5125 750 5375 875 
Q 5675 150 5950 -375 
Q 5775 -425 5425 -600 
Q 5275 -100 4925 650 
z
" id="SimHei-70b9" transform="scale(0.015625)"/>
       <path d="M 1525 5100 
Q 1850 5025 2200 4925 
Q 2100 4775 2025 4487 
Q 1950 4200 1900 3975 
L 2975 3975 
Q 2950 3525 2950 2900 
L 2950 700 
Q 2950 300 2975 -225 
L 2500 -225 
L 2500 300 
L 1200 300 
L 1200 -275 
L 725 -275 
Q 750 350 750 650 
L 750 2875 
Q 750 3525 725 3975 
L 1425 3975 
Q 1450 4225 1475 4462 
Q 1500 4700 1525 5100 
z
M 1200 3525 
L 1200 2425 
L 2500 2425 
L 2500 3525 
L 1200 3525 
z
M 1200 1950 
L 1200 775 
L 2500 775 
L 2500 1950 
L 1200 1950 
z
M 5850 3925 
Q 5800 3450 5775 3000 
L 5600 175 
Q 5525 -275 5150 -400 
Q 4775 -525 4350 -550 
Q 4350 -275 4175 25 
Q 4600 0 4850 37 
Q 5100 75 5150 350 
L 5350 3475 
L 4025 3475 
Q 3825 3050 3550 2525 
Q 3350 2675 3125 2775 
Q 3275 3000 3462 3400 
Q 3650 3800 3787 4262 
Q 3925 4725 3975 5025 
Q 4300 4875 4600 4800 
Q 4475 4600 4375 4387 
Q 4275 4175 4200 3925 
L 5850 3925 
z
M 3650 2300 
Q 3825 2400 4075 2550 
Q 4200 2325 4325 2050 
Q 4450 1775 4600 1375 
Q 4400 1300 4150 1150 
Q 4075 1425 3937 1750 
Q 3800 2075 3650 2300 
z
" id="SimHei-7684" transform="scale(0.015625)"/>
       <path d="M 700 4850 
Q 950 4925 1100 5025 
Q 1300 4700 1475 4375 
Q 1250 4275 1075 4175 
Q 925 4550 700 4850 
z
M 2875 5025 
Q 3150 4900 3400 4800 
Q 3250 4700 3150 4525 
Q 3050 4350 2925 4125 
Q 2725 4225 2525 4275 
Q 2725 4600 2875 5025 
z
M 2450 3175 
Q 2675 3275 2825 3425 
Q 3125 3000 3325 2650 
Q 3100 2550 2900 2400 
Q 2700 2875 2450 3175 
z
M 525 3950 
Q 925 3925 1800 3925 
Q 1800 4650 1775 5175 
L 2275 5175 
Q 2250 4650 2250 3925 
Q 3075 3925 3450 3950 
L 3450 3500 
Q 3075 3525 2250 3525 
Q 2250 2950 2275 2525 
L 1775 2525 
Q 1800 2900 1800 3325 
Q 1675 3075 1387 2787 
Q 1100 2500 750 2300 
Q 650 2525 425 2675 
Q 650 2750 987 3000 
Q 1325 3250 1475 3525 
Q 950 3525 525 3500 
L 525 3950 
z
M 1725 1550 
Q 1600 1300 1450 1050 
Q 1750 975 2250 850 
Q 2425 1075 2575 1550 
L 1725 1550 
z
M 1550 2450 
Q 1825 2350 2100 2275 
Q 2000 2175 1875 1950 
L 2850 1950 
L 3125 1950 
Q 2975 1300 2700 725 
Q 3125 600 3375 525 
Q 3175 250 3075 25 
Q 2850 175 2400 350 
Q 1800 -250 600 -650 
Q 500 -400 300 -250 
Q 1375 0 2000 525 
Q 1300 700 850 825 
Q 1000 1025 1250 1550 
Q 850 1550 300 1525 
L 300 1975 
Q 775 1950 1400 1950 
Q 1475 2150 1550 2450 
z
M 4075 5150 
Q 4375 5025 4700 4975 
Q 4575 4825 4512 4625 
Q 4450 4425 4350 4050 
L 5475 4050 
Q 5700 4050 6050 4075 
L 6050 3625 
Q 5775 3650 5600 3650 
Q 5575 3125 5475 2262 
Q 5375 1400 5000 750 
Q 5250 400 5575 175 
Q 5900 -50 6150 -150 
Q 5800 -375 5700 -600 
Q 5275 -300 5075 -87 
Q 4875 125 4700 375 
Q 4400 75 4137 -125 
Q 3875 -325 3300 -650 
Q 3175 -425 2900 -250 
Q 3375 -75 3775 200 
Q 4175 475 4450 775 
Q 4175 1325 4025 1862 
Q 3875 2400 3850 2625 
Q 3800 2450 3725 2225 
Q 3500 2325 3225 2425 
Q 3525 2975 3775 3750 
Q 4025 4525 4075 5150 
z
M 4250 3650 
Q 4150 3400 4100 3237 
Q 4050 3075 4287 2350 
Q 4525 1625 4750 1225 
Q 4975 1825 5062 2475 
Q 5150 3125 5150 3650 
L 4250 3650 
z
" id="SimHei-6570" transform="scale(0.015625)"/>
       <path d="M 3450 2175 
L 3450 1800 
L 4750 1800 
L 4750 2175 
L 3450 2175 
z
M 3450 1525 
L 3450 1175 
L 4750 1175 
L 4750 1525 
L 3450 1525 
z
M 1675 2175 
L 1675 1800 
L 3000 1800 
L 3000 2175 
L 1675 2175 
z
M 1675 1525 
L 1675 1175 
L 3000 1175 
L 3000 1525 
L 1675 1525 
z
M 1200 2450 
L 5250 2450 
Q 5200 2150 5200 1737 
Q 5200 1325 5250 900 
L 3450 900 
L 3450 500 
L 4600 500 
Q 5000 525 5375 525 
L 5375 175 
Q 5000 225 4600 225 
L 3450 225 
L 3450 -225 
L 5125 -225 
Q 5550 -200 5950 -200 
L 5950 -525 
Q 5550 -500 5125 -500 
L 1300 -500 
Q 900 -500 475 -525 
L 475 -200 
Q 925 -200 1300 -225 
L 3000 -225 
L 3000 225 
L 1750 225 
Q 1375 225 1000 175 
L 1000 525 
Q 1400 525 1750 500 
L 3000 500 
L 3000 900 
L 1200 900 
Q 1225 1300 1225 1712 
Q 1225 2125 1200 2450 
z
M 1675 4775 
L 1675 4350 
L 4750 4350 
L 4750 4775 
L 1675 4775 
z
M 1675 4075 
L 1675 3675 
L 4750 3675 
L 4750 4075 
L 1675 4075 
z
M 1200 5050 
L 5250 5050 
Q 5200 4650 5200 4300 
Q 5200 3950 5250 3400 
L 1200 3400 
Q 1225 3950 1212 4300 
Q 1200 4650 1200 5050 
z
M 475 3150 
Q 1100 3125 1750 3100 
L 4825 3100 
Q 5400 3125 5900 3150 
L 5900 2800 
Q 5400 2825 4850 2825 
L 1750 2825 
Q 1100 2825 475 2800 
L 475 3150 
z
" id="SimHei-91cf" transform="scale(0.015625)"/>
      </defs>
      <use xlink:href="#SimHei-5171"/>
      <use x="100" xlink:href="#SimHei-8bc6"/>
      <use x="200" xlink:href="#SimHei-8282"/>
      <use x="300" xlink:href="#SimHei-70b9"/>
      <use x="400" xlink:href="#SimHei-7684"/>
      <use x="500" xlink:href="#SimHei-6570"/>
      <use x="600" xlink:href="#SimHei-91cf"/>
     </g>
    </g>
   </g>
   <g id="matplotlib.axis_2">
    <g id="ytick_1">
     <g id="line2d_19">
      <path clip-path="url(#pb6b24d90a2)" d="M 72 314.490728 
L 518.4 314.490728 
" style="fill:none;stroke:#b0b0b0;stroke-dasharray:2.96,1.28;stroke-dashoffset:0;stroke-width:0.8;"/>
     </g>
     <g id="line2d_20">
      <defs>
       <path d="M 0 0 
L -3.5 0 
" id="mf2eb98e67e" style="stroke:#000000;stroke-width:0.8;"/>
      </defs>
      <g>
       <use style="stroke:#000000;stroke-width:0.8;" x="72" xlink:href="#mf2eb98e67e" y="314.490728"/>
      </g>
     </g>
     <g id="text_11">
      <!-- 0 -->
      <g transform="translate(59 318.592291)scale(0.12 -0.12)">
       <use xlink:href="#SimHei-30"/>
      </g>
     </g>
    </g>
    <g id="ytick_2">
     <g id="line2d_21">
      <path clip-path="url(#pb6b24d90a2)" d="M 72 262.219415 
L 518.4 262.219415 
" style="fill:none;stroke:#b0b0b0;stroke-dasharray:2.96,1.28;stroke-dashoffset:0;stroke-width:0.8;"/>
     </g>
     <g id="line2d_22">
      <g>
       <use style="stroke:#000000;stroke-width:0.8;" x="72" xlink:href="#mf2eb98e67e" y="262.219415"/>
      </g>
     </g>
     <g id="text_12">
      <!-- 1000 -->
      <g transform="translate(41 266.320978)scale(0.12 -0.12)">
       <use xlink:href="#SimHei-31"/>
       <use x="50" xlink:href="#SimHei-30"/>
       <use x="100" xlink:href="#SimHei-30"/>
       <use x="150" xlink:href="#SimHei-30"/>
      </g>
     </g>
    </g>
    <g id="ytick_3">
     <g id="line2d_23">
      <path clip-path="url(#pb6b24d90a2)" d="M 72 209.948102 
L 518.4 209.948102 
" style="fill:none;stroke:#b0b0b0;stroke-dasharray:2.96,1.28;stroke-dashoffset:0;stroke-width:0.8;"/>
     </g>
     <g id="line2d_24">
      <g>
       <use style="stroke:#000000;stroke-width:0.8;" x="72" xlink:href="#mf2eb98e67e" y="209.948102"/>
      </g>
     </g>
     <g id="text_13">
      <!-- 2000 -->
      <g transform="translate(41 214.049665)scale(0.12 -0.12)">
       <use xlink:href="#SimHei-32"/>
       <use x="50" xlink:href="#SimHei-30"/>
       <use x="100" xlink:href="#SimHei-30"/>
       <use x="150" xlink:href="#SimHei-30"/>
      </g>
     </g>
    </g>
    <g id="ytick_4">
     <g id="line2d_25">
      <path clip-path="url(#pb6b24d90a2)" d="M 72 157.676789 
L 518.4 157.676789 
" style="fill:none;stroke:#b0b0b0;stroke-dasharray:2.96,1.28;stroke-dashoffset:0;stroke-width:0.8;"/>
     </g>
     <g id="line2d_26">
      <g>
       <use style="stroke:#000000;stroke-width:0.8;" x="72" xlink:href="#mf2eb98e67e" y="157.676789"/>
      </g>
     </g>
     <g id="text_14">
      <!-- 3000 -->
      <g transform="translate(41 161.778352)scale(0.12 -0.12)">
       <use xlink:href="#SimHei-33"/>
       <use x="50" xlink:href="#SimHei-30"/>
       <use x="100" xlink:href="#SimHei-30"/>
       <use x="150" xlink:href="#SimHei-30"/>
      </g>
     </g>
    </g>
    <g id="ytick_5">
     <g id="line2d_27">
      <path clip-path="url(#pb6b24d90a2)" d="M 72 105.405476 
L 518.4 105.405476 
" style="fill:none;stroke:#b0b0b0;stroke-dasharray:2.96,1.28;stroke-dashoffset:0;stroke-width:0.8;"/>
     </g>
     <g id="line2d_28">
      <g>
       <use style="stroke:#000000;stroke-width:0.8;" x="72" xlink:href="#mf2eb98e67e" y="105.405476"/>
      </g>
     </g>
     <g id="text_15">
      <!-- 4000 -->
      <g transform="translate(41 109.507039)scale(0.12 -0.12)">
       <use xlink:href="#SimHei-34"/>
       <use x="50" xlink:href="#SimHei-30"/>
       <use x="100" xlink:href="#SimHei-30"/>
       <use x="150" xlink:href="#SimHei-30"/>
      </g>
     </g>
    </g>
    <g id="ytick_6">
     <g id="line2d_29">
      <path clip-path="url(#pb6b24d90a2)" d="M 72 53.134163 
L 518.4 53.134163 
" style="fill:none;stroke:#b0b0b0;stroke-dasharray:2.96,1.28;stroke-dashoffset:0;stroke-width:0.8;"/>
     </g>
     <g id="line2d_30">
      <g>
       <use style="stroke:#000000;stroke-width:0.8;" x="72" xlink:href="#mf2eb98e67e" y="53.134163"/>
      </g>
     </g>
     <g id="text_16">
      <!-- 5000 -->
      <g transform="translate(41 57.235726)scale(0.12 -0.12)">
       <use xlink:href="#SimHei-35"/>
       <use x="50" xlink:href="#SimHei-30"/>
       <use x="100" xlink:href="#SimHei-30"/>
       <use x="150" xlink:href="#SimHei-30"/>
      </g>
     </g>
    </g>
    <g id="text_17">
     <!-- 通信量 -->
     <g transform="translate(35.324219 201.3)rotate(-90)scale(0.13 -0.13)">
      <defs>
       <path d="M 2175 4925 
Q 2550 4900 2975 4900 
L 5625 4900 
Q 5275 4525 4900 4187 
Q 4525 3850 4225 3575 
L 5650 3575 
Q 5625 3025 5625 2550 
L 5625 875 
Q 5650 575 5450 487 
Q 5250 400 4850 325 
Q 4800 550 4625 800 
Q 4975 825 5100 875 
Q 5225 925 5200 1350 
L 4100 1350 
L 4100 375 
L 3675 375 
L 3675 1350 
L 2600 1350 
L 2600 375 
L 2150 375 
Q 2175 1150 2175 1937 
Q 2175 2725 2150 3575 
L 3600 3575 
Q 3475 3775 3050 4075 
Q 3225 4225 3375 4400 
Q 3800 4050 3975 3875 
Q 4400 4300 4600 4525 
L 3025 4525 
Q 2550 4525 2175 4500 
L 2175 4925 
z
M 2600 3200 
L 2600 2675 
L 3675 2675 
L 3675 3200 
L 2600 3200 
z
M 2600 2300 
L 2600 1725 
L 3675 1725 
L 3675 2300 
L 2600 2300 
z
M 4100 3200 
L 4100 2675 
L 5200 2675 
L 5200 3200 
L 4100 3200 
z
M 4100 2300 
L 4100 1725 
L 5200 1725 
L 5200 2300 
L 4100 2300 
z
M 650 4600 
Q 850 4725 1075 4875 
Q 1500 4300 1725 3950 
Q 1475 3825 1300 3650 
Q 1125 3975 650 4600 
z
M 425 2950 
Q 800 2925 1475 2925 
Q 1450 2475 1450 2075 
L 1450 600 
Q 2000 25 3662 37 
Q 5325 50 6075 200 
Q 5925 -100 5900 -375 
Q 3875 -450 3062 -387 
Q 2250 -325 1800 -25 
Q 1350 275 1150 37 
Q 950 -200 700 -525 
Q 500 -325 275 -150 
Q 650 200 1025 500 
L 1025 2550 
Q 825 2550 425 2525 
L 425 2950 
z
" id="SimHei-901a" transform="scale(0.015625)"/>
       <path d="M 3575 5000 
Q 3800 5075 4025 5175 
Q 4100 5025 4175 4850 
Q 4250 4675 4325 4475 
Q 4100 4400 3850 4325 
Q 3675 4875 3575 5000 
z
M 2100 4325 
Q 2625 4300 4100 4300 
Q 5575 4300 6025 4325 
L 6025 3900 
Q 5550 3925 4100 3925 
Q 2650 3925 2100 3900 
L 2100 4325 
z
M 2500 3425 
Q 2950 3400 4087 3400 
Q 5225 3400 5675 3425 
L 5675 3000 
Q 5225 3025 4125 3025 
Q 3025 3025 2500 3000 
L 2500 3425 
z
M 2500 2550 
Q 3000 2525 4162 2525 
Q 5325 2525 5675 2550 
L 5675 2125 
Q 5300 2150 4162 2150 
Q 3025 2150 2500 2125 
L 2500 2550 
z
M 2550 1575 
L 5625 1575 
Q 5600 1275 5600 587 
Q 5600 -100 5625 -475 
L 5150 -475 
L 5150 -25 
L 3025 -25 
L 3025 -550 
L 2550 -550 
Q 2575 -175 2575 500 
Q 2575 1175 2550 1575 
z
M 3025 1200 
L 3025 350 
L 5150 350 
L 5150 1200 
L 3025 1200 
z
M 1475 5150 
Q 1750 5050 2075 4975 
Q 1925 4800 1675 3975 
L 1675 550 
Q 1675 -200 1700 -625 
L 1175 -625 
Q 1225 -175 1225 575 
L 1225 3150 
Q 950 2550 650 2100 
Q 500 2350 300 2500 
Q 550 2800 950 3562 
Q 1350 4325 1475 5150 
z
" id="SimHei-4fe1" transform="scale(0.015625)"/>
      </defs>
      <use xlink:href="#SimHei-901a"/>
      <use x="100" xlink:href="#SimHei-4fe1"/>
      <use x="200" xlink:href="#SimHei-91cf"/>
     </g>
    </g>
   </g>
   <g id="line2d_31">
    <path clip-path="url(#pb6b24d90a2)" d="M 92.290909 304.61145 
L 193.745455 273.771375 
L 295.2 222.022775 
L 396.654545 149.36565 
L 498.109091 55.8 
" style="fill:none;stroke:#0000ff;stroke-linecap:square;stroke-width:1.5;"/>
    <defs>
     <path d="M 0 3 
C 0.795609 3 1.55874 2.683901 2.12132 2.12132 
C 2.683901 1.55874 3 0.795609 3 0 
C 3 -0.795609 2.683901 -1.55874 2.12132 -2.12132 
C 1.55874 -2.683901 0.795609 -3 0 -3 
C -0.795609 -3 -1.55874 -2.683901 -2.12132 -2.12132 
C -2.683901 -1.55874 -3 -0.795609 -3 0 
C -3 0.795609 -2.683901 1.55874 -2.12132 2.12132 
C -1.55874 2.683901 -0.795609 3 0 3 
z
" id="m4f83e230b1" style="stroke:#0000ff;"/>
    </defs>
    <g clip-path="url(#pb6b24d90a2)">
     <use style="fill:#0000ff;stroke:#0000ff;" x="92.290909" xlink:href="#m4f83e230b1" y="304.61145"/>
     <use style="fill:#0000ff;stroke:#0000ff;" x="193.745455" xlink:href="#m4f83e230b1" y="273.771375"/>
     <use style="fill:#0000ff;stroke:#0000ff;" x="295.2" xlink:href="#m4f83e230b1" y="222.022775"/>
     <use style="fill:#0000ff;stroke:#0000ff;" x="396.654545" xlink:href="#m4f83e230b1" y="149.36565"/>
     <use style="fill:#0000ff;stroke:#0000ff;" x="498.109091" xlink:href="#m4f83e230b1" y="55.8"/>
    </g>
   </g>
   <g id="line2d_32">
    <path clip-path="url(#pb6b24d90a2)" d="M 92.290909 307.8 
L 193.745455 290.550467 
L 295.2 262.846671 
L 396.654545 224.688612 
L 498.109091 176.076291 
" style="fill:none;stroke:#008000;stroke-dasharray:5.55,2.4;stroke-dashoffset:0;stroke-width:1.5;"/>
    <defs>
     <path d="M -0 3 
L 3 -3 
L -3 -3 
z
" id="mfa24f20036" style="stroke:#008000;stroke-linejoin:miter;"/>
    </defs>
    <g clip-path="url(#pb6b24d90a2)">
     <use style="fill:#008000;stroke:#008000;stroke-linejoin:miter;" x="92.290909" xlink:href="#mfa24f20036" y="307.8"/>
     <use style="fill:#008000;stroke:#008000;stroke-linejoin:miter;" x="193.745455" xlink:href="#mfa24f20036" y="290.550467"/>
     <use style="fill:#008000;stroke:#008000;stroke-linejoin:miter;" x="295.2" xlink:href="#mfa24f20036" y="262.846671"/>
     <use style="fill:#008000;stroke:#008000;stroke-linejoin:miter;" x="396.654545" xlink:href="#mfa24f20036" y="224.688612"/>
     <use style="fill:#008000;stroke:#008000;stroke-linejoin:miter;" x="498.109091" xlink:href="#mfa24f20036" y="176.076291"/>
    </g>
   </g>
   <g id="patch_3">
    <path d="M 72 320.4 
L 72 43.2 
" style="fill:none;stroke:#000000;stroke-linecap:square;stroke-linejoin:miter;stroke-width:0.8;"/>
   </g>
   <g id="patch_4">
    <path d="M 72 320.4 
L 518.4 320.4 
" style="fill:none;stroke:#000000;stroke-linecap:square;stroke-linejoin:miter;stroke-width:0.8;"/>
   </g>
   <g id="legend_1">
    <g id="patch_5">
     <path d="M 79 81.965625 
L 147 81.965625 
Q 149 81.965625 149 79.965625 
L 149 50.2 
Q 149 48.2 147 48.2 
L 79 48.2 
Q 77 48.2 77 50.2 
L 77 79.965625 
Q 77 81.965625 79 81.965625 
z
" style="fill:#ffffff;opacity:0.8;stroke:#cccccc;stroke-linejoin:miter;"/>
    </g>
    <g id="line2d_33">
     <path d="M 81 56.903125 
L 101 56.903125 
" style="fill:none;stroke:#0000ff;stroke-linecap:square;stroke-width:1.5;"/>
    </g>
    <g id="line2d_34">
     <g>
      <use style="fill:#0000ff;stroke:#0000ff;" x="91" xlink:href="#m4f83e230b1" y="56.903125"/>
     </g>
    </g>
    <g id="text_18">
     <!-- kPBFT -->
     <g transform="translate(109 60.403125)scale(0.12 -0.12)">
      <defs>
       <path d="M 2950 100 
L 2375 100 
L 1475 1625 
L 900 1075 
L 900 100 
L 400 100 
L 400 4375 
L 900 4375 
L 900 1650 
L 2150 2900 
L 2775 2900 
L 1800 1950 
L 2950 100 
z
" id="SimHei-6b" transform="scale(0.015625)"/>
       <path d="M 2975 3075 
Q 2975 2475 2625 2125 
Q 2275 1775 1650 1775 
L 925 1775 
L 925 100 
L 350 100 
L 350 4375 
L 1650 4375 
Q 2275 4375 2625 4025 
Q 2975 3675 2975 3075 
z
M 2400 3075 
Q 2400 3550 2175 3725 
Q 1950 3900 1500 3900 
L 925 3900 
L 925 2250 
L 1500 2250 
Q 1950 2250 2175 2425 
Q 2400 2600 2400 3075 
z
" id="SimHei-50" transform="scale(0.015625)"/>
       <path d="M 2975 1375 
Q 2975 650 2575 375 
Q 2175 100 1550 100 
L 300 100 
L 300 4375 
L 1600 4375 
Q 2225 4375 2537 4050 
Q 2850 3725 2850 3275 
Q 2850 2825 2637 2612 
Q 2425 2400 2200 2325 
Q 2500 2250 2737 2012 
Q 2975 1775 2975 1375 
z
M 2275 3275 
Q 2275 3600 2087 3750 
Q 1900 3900 1625 3900 
L 875 3900 
L 875 2575 
L 1600 2575 
Q 1875 2575 2075 2737 
Q 2275 2900 2275 3275 
z
M 2375 1375 
Q 2375 1775 2112 1937 
Q 1850 2100 1525 2100 
L 875 2100 
L 875 575 
L 1450 575 
Q 1900 575 2137 750 
Q 2375 925 2375 1375 
z
" id="SimHei-42" transform="scale(0.015625)"/>
       <path d="M 2950 3900 
L 900 3900 
L 900 2500 
L 2450 2500 
L 2450 2025 
L 900 2025 
L 900 100 
L 325 100 
L 325 4375 
L 2950 4375 
L 2950 3900 
z
" id="SimHei-46" transform="scale(0.015625)"/>
       <path d="M 2875 3900 
L 1875 3900 
L 1875 100 
L 1300 100 
L 1300 3900 
L 300 3900 
L 300 4375 
L 2875 4375 
L 2875 3900 
z
" id="SimHei-54" transform="scale(0.015625)"/>
      </defs>
      <use xlink:href="#SimHei-6b"/>
      <use x="50" xlink:href="#SimHei-50"/>
      <use x="100" xlink:href="#SimHei-42"/>
      <use x="150" xlink:href="#SimHei-46"/>
      <use x="200" xlink:href="#SimHei-54"/>
     </g>
    </g>
    <g id="line2d_35">
     <path d="M 81 72.91875 
L 101 72.91875 
" style="fill:none;stroke:#008000;stroke-dasharray:5.55,2.4;stroke-dashoffset:0;stroke-width:1.5;"/>
    </g>
    <g id="line2d_36">
     <g>
      <use style="fill:#008000;stroke:#008000;stroke-linejoin:miter;" x="91" xlink:href="#mfa24f20036" y="72.91875"/>
     </g>
    </g>
    <g id="text_19">
     <!-- 本协议 -->
     <g transform="translate(109 76.41875)scale(0.12 -0.12)">
      <defs>
       <path d="M 525 3975 
Q 1000 3950 1375 3950 
L 2950 3950 
L 2950 4400 
Q 2950 4825 2900 5200 
L 3500 5200 
Q 3450 4900 3450 4450 
L 3450 3950 
L 4875 3950 
Q 5275 3950 5875 3975 
L 5875 3475 
Q 5325 3500 4900 3500 
L 3825 3500 
Q 4150 2325 4812 1687 
Q 5475 1050 6125 800 
Q 5850 600 5625 275 
Q 4675 950 4187 1612 
Q 3700 2275 3450 3350 
L 3450 975 
L 3775 975 
Q 4175 975 4600 1000 
L 4600 500 
Q 4175 525 3775 525 
L 3450 525 
Q 3450 -50 3475 -625 
L 2925 -625 
Q 2950 -50 2950 525 
L 2600 525 
Q 2225 525 1850 500 
L 1850 1000 
Q 2225 975 2600 975 
L 2950 975 
L 2950 3350 
Q 2525 2225 2037 1512 
Q 1550 800 775 125 
Q 550 375 250 550 
Q 1050 1050 1600 1800 
Q 2150 2550 2475 3500 
L 1400 3500 
Q 1000 3500 525 3450 
L 525 3975 
z
" id="SimHei-672c" transform="scale(0.015625)"/>
       <path d="M 350 3475 
Q 625 3450 1125 3450 
Q 1125 4650 1100 5050 
L 1600 5050 
Q 1575 4650 1575 3450 
Q 2025 3450 2350 3475 
L 2350 3025 
Q 2025 3050 1575 3050 
L 1575 300 
Q 1575 -50 1600 -600 
L 1100 -600 
Q 1125 -50 1125 300 
L 1125 3050 
Q 625 3050 350 3025 
L 350 3475 
z
M 2525 3825 
Q 2975 3800 3475 3800 
Q 3475 4600 3450 5125 
Q 3700 5050 4025 5025 
Q 3925 4625 3950 3800 
L 5250 3800 
Q 5200 3575 5175 3050 
L 5000 275 
Q 4950 -125 4700 -212 
Q 4450 -300 4025 -400 
Q 3925 -75 3800 150 
Q 4325 175 4425 200 
Q 4525 225 4550 550 
L 4725 3400 
L 3925 3400 
Q 3900 2275 3587 1275 
Q 3275 275 2500 -525 
Q 2350 -325 1925 -175 
Q 2475 125 2937 1050 
Q 3400 1975 3450 3400 
Q 2975 3400 2525 3375 
L 2525 3825 
z
M 2450 2600 
Q 2650 2525 2975 2475 
Q 2825 2275 2525 1200 
Q 2275 1300 2050 1325 
Q 2400 2250 2450 2600 
z
M 5225 2450 
Q 5450 2525 5650 2650 
Q 6000 1850 6100 1475 
Q 5850 1425 5650 1300 
Q 5500 1825 5225 2450 
z
" id="SimHei-534f" transform="scale(0.015625)"/>
       <path d="M 2475 4000 
Q 2725 4025 3025 4100 
Q 3075 3550 3175 3137 
Q 3275 2725 3475 2300 
Q 3675 1875 4050 1350 
Q 4350 1900 4487 2400 
Q 4625 2900 4712 3375 
Q 4800 3850 4875 4475 
Q 5175 4400 5550 4350 
Q 5400 4125 5350 3925 
Q 5300 3725 5225 3337 
Q 5150 2950 5000 2362 
Q 4850 1775 4425 950 
Q 4800 550 5200 362 
Q 5600 175 6175 25 
Q 5900 -175 5725 -550 
Q 5075 -200 4787 -25 
Q 4500 150 4075 550 
Q 3625 75 3287 -162 
Q 2950 -400 2550 -675 
Q 2325 -475 2000 -225 
Q 2525 -50 2975 250 
Q 3425 550 3700 925 
Q 3250 1525 3025 2050 
Q 2800 2575 2687 3012 
Q 2575 3450 2475 4000 
z
M 3375 4875 
Q 3600 4950 3875 5000 
Q 4150 3875 4300 3125 
Q 4000 3100 3800 3025 
Q 3650 3900 3375 4875 
z
M 950 4675 
Q 1175 4775 1375 4925 
Q 1750 4275 1950 3900 
Q 1725 3800 1500 3650 
Q 1100 4475 950 4675 
z
M 2750 1000 
Q 2375 650 2000 275 
Q 1625 -100 1325 -525 
Q 1150 -300 900 -75 
Q 1250 150 1250 500 
L 1250 2625 
L 925 2625 
Q 675 2625 375 2600 
L 375 3075 
Q 675 3050 925 3050 
L 1750 3050 
Q 1725 2625 1725 2100 
L 1725 650 
Q 1975 900 2425 1425 
Q 2525 1275 2750 1000 
z
" id="SimHei-8bae" transform="scale(0.015625)"/>
      </defs>
      <use xlink:href="#SimHei-672c"/>
      <use x="100" xlink:href="#SimHei-534f"/>
      <use x="200" xlink:href="#SimHei-8bae"/>
     </g>
    </g>
   </g>
  </g>
 </g>
 <defs>
  <clipPath id="pb6b24d90a2">
   <rect height="277.2" width="446.4" x="72" y="43.2"/>
  </clipPath>
 </defs>
</svg>
